<?xml version="1.0" encoding="UTF-8" standalone="no"?><!DOCTYPE svg PUBLIC "-//W3C//DTD SVG 1.1//EN" "http://www.w3.org/Graphics/SVG/1.1/DTD/svg11.dtd"><svg width="100%" height="100%" viewBox="0 0 149 25" version="1.1" xmlns="http://www.w3.org/2000/svg" xmlns:xlink="http://www.w3.org/1999/xlink" xml:space="preserve" xmlns:serif="http://www.serif.com/" style="fill-rule:evenodd;clip-rule:evenodd;stroke-linejoin:round;stroke-miterlimit:2;"><path d="M45.021,6.631l0,4.911l2.254,0l0,-5.041c0,-0.745 -0.11,-1.379 -0.322,-1.882c-0.221,-0.523 -0.563,-0.916 -0.996,-1.177c-0.432,-0.262 -0.976,-0.393 -1.61,-0.393c-0.453,0 -0.885,0.101 -1.318,0.292c-0.372,0.171 -0.704,0.382 -0.996,0.654l-0,-3.995l-2.234,-0l-0,11.532l2.254,0l-0,-4.981c-0,-0.211 0.04,-0.403 0.121,-0.574c0.08,-0.181 0.201,-0.332 0.342,-0.473c0.151,-0.14 0.322,-0.241 0.523,-0.322c0.201,-0.08 0.433,-0.11 0.674,-0.11c0.292,-0 0.544,0.04 0.745,0.151c0.191,0.1 0.332,0.261 0.423,0.483c0.1,0.241 0.15,0.553 0.15,0.925l-0.01,0Z" style="fill:#13284b;fill-rule:nonzero;"/><path d="M34.757,11.532l2.254,0l0,-6.209l1.64,0l0,-2.123l-1.64,0l0,-2.254l-2.254,-0l0,2.254l-1.65,0l-0,2.123l1.65,0l0,6.209Z" style="fill:#13284b;fill-rule:nonzero;"/><path d="M26.023,3.955c-0.071,-0.071 -0.151,-0.141 -0.222,-0.212c-0.271,-0.221 -0.583,-0.402 -0.935,-0.523c-0.353,-0.121 -0.745,-0.181 -1.168,-0.181c-0.724,0 -1.388,0.191 -1.972,0.553c-0.584,0.373 -1.047,0.886 -1.379,1.54c-0.332,0.644 -0.503,1.389 -0.503,2.214c0,0.825 0.171,1.57 0.503,2.214c0.332,0.644 0.785,1.167 1.339,1.549c0.563,0.383 1.197,0.574 1.892,0.574c0.402,0 0.784,-0.06 1.147,-0.191c0.352,-0.121 0.674,-0.292 0.966,-0.503c0.11,-0.081 0.221,-0.171 0.322,-0.262l-0,0.805l2.284,0l0,-8.332l-2.264,0l-0,0.755l-0.01,-0Zm-0.282,4.588c-0.171,0.343 -0.402,0.604 -0.704,0.795c-0.302,0.192 -0.644,0.282 -1.037,0.282c-0.392,0 -0.734,-0.09 -1.026,-0.282c-0.302,-0.191 -0.523,-0.452 -0.685,-0.795c-0.171,-0.352 -0.251,-0.754 -0.251,-1.217c-0,-0.463 0.08,-0.845 0.251,-1.188c0.162,-0.332 0.393,-0.603 0.685,-0.795c0.292,-0.191 0.634,-0.281 1.026,-0.281c0.393,-0 0.735,0.09 1.037,0.281c0.302,0.192 0.533,0.453 0.704,0.795c0.171,0.343 0.262,0.745 0.262,1.188c-0,0.443 -0.091,0.865 -0.262,1.207l0,0.01Z" style="fill:#13284b;fill-rule:nonzero;"/><rect x="29.706" y="0" width="2.264" height="11.532" style="fill:#13284b;fill-rule:nonzero;"/><path d="M2.647,7.205l4.387,-0l0,4.327l2.355,0l-0,-10.928l-2.355,-0l0,4.367l-4.387,-0l-0,-4.367l-2.365,-0l-0,10.928l2.365,0l-0,-4.327Z" style="fill:#13284b;fill-rule:nonzero;"/><rect x="116.588" y="0" width="2.264" height="11.532" style="fill:#13284b;fill-rule:nonzero;"/><path d="M148.427,11.2c0,-0 -0.523,-0.503 -0.905,-1.077c-0.151,-0.221 -0.312,-0.714 -0.383,-0.926l-0.02,-0.05c-0.04,-0.111 -0.07,-0.483 -0.08,-0.704l0,-8.443l-2.254,0l-0,3.854c-0,0 -0.09,-0.07 -0.131,-0.101c-0.292,-0.211 -0.634,-0.392 -1.006,-0.513c-0.383,-0.131 -0.775,-0.191 -1.167,-0.191c-0.735,0 -1.41,0.191 -1.993,0.564c-0.584,0.372 -1.046,0.895 -1.388,1.539c-0.333,0.644 -0.504,1.389 -0.504,2.214c0,0.825 0.171,1.58 0.513,2.224c0.342,0.644 0.805,1.157 1.389,1.53c0.584,0.372 1.258,0.563 1.992,0.563c0.383,0 0.756,-0.06 1.127,-0.181c0.363,-0.121 0.684,-0.282 0.966,-0.483c0.091,-0.061 0.171,-0.131 0.252,-0.211l0.02,0.724l3.925,0.02l-0.363,-0.352l0.01,-0Zm-3.823,-2.606c-0.171,0.352 -0.403,0.624 -0.705,0.825c-0.302,0.201 -0.634,0.292 -1.036,0.292c-0.403,-0 -0.735,-0.101 -1.027,-0.292c-0.301,-0.201 -0.533,-0.473 -0.704,-0.825c-0.171,-0.352 -0.251,-0.765 -0.251,-1.238c-0,-0.473 0.09,-0.875 0.251,-1.228c0.171,-0.352 0.403,-0.624 0.704,-0.825c0.292,-0.191 0.644,-0.292 1.037,-0.292c0.392,0 0.735,0.091 1.036,0.292c0.302,0.201 0.533,0.463 0.704,0.825c0.171,0.363 0.262,0.775 0.262,1.228c0,0.453 -0.091,0.886 -0.262,1.238l-0.009,-0Z" style="fill:#13284b;fill-rule:nonzero;"/><path d="M17.389,11.089c0.362,-0.181 0.684,-0.412 0.966,-0.674l0.13,-0.121l-1.147,-1.6l-0.171,0.141c-0.342,0.292 -0.664,0.503 -0.946,0.614c-0.282,0.111 -0.604,0.171 -0.946,0.171c-0.493,0 -0.936,-0.101 -1.298,-0.282c-0.352,-0.181 -0.634,-0.453 -0.835,-0.795c-0.091,-0.151 -0.151,-0.332 -0.201,-0.553l5.776,-0l0.02,-0.845c-0,-0.584 -0.081,-1.138 -0.262,-1.631c-0.181,-0.503 -0.453,-0.935 -0.805,-1.298c-0.342,-0.362 -0.764,-0.654 -1.237,-0.865c-1.017,-0.453 -2.275,-0.403 -3.251,-0c-0.523,0.211 -0.976,0.523 -1.348,0.916c-0.373,0.392 -0.664,0.865 -0.876,1.398c-0.211,0.534 -0.312,1.127 -0.312,1.771c0,0.815 0.192,1.55 0.564,2.184c0.372,0.634 0.896,1.147 1.57,1.509c0.664,0.363 1.439,0.554 2.294,0.554c0.392,-0 0.785,-0.05 1.177,-0.161c0.393,-0.101 0.775,-0.252 1.127,-0.423l0.011,-0.01Zm-4.307,-5.041c0.151,-0.322 0.372,-0.564 0.674,-0.735c0.302,-0.171 0.684,-0.261 1.137,-0.261c0.292,-0 0.553,0.06 0.785,0.181c0.231,0.12 0.433,0.281 0.583,0.493c0.121,0.171 0.202,0.372 0.242,0.573l-3.532,0c0.03,-0.1 0.06,-0.181 0.101,-0.261l0.01,0.01Z" style="fill:#13284b;fill-rule:nonzero;"/><path d="M55.104,7.265l0,-0.452c0,-0.161 -0.01,-0.333 -0.03,-0.524l-0.05,-0.714c-0.02,-0.292 -0.05,-0.624 -0.081,-1.027l0,-0.03l5.314,7.024l2.093,0l-0,-10.928l-2.345,-0l0,3.361c0,0.432 0,0.845 0.02,1.227c0,0.383 0.02,0.755 0.04,1.107c0.01,0.353 0.031,0.695 0.061,1.017c0.01,0.151 0.02,0.312 0.04,0.453l-5.323,-7.165l-2.063,-0l-0,10.928l2.344,0l0,-4.277l-0.02,0Z" style="fill:#13284b;fill-rule:nonzero;"/><path d="M104.553,4.206c-0.352,-0.362 -0.764,-0.654 -1.238,-0.865c-1.016,-0.453 -2.284,-0.393 -3.25,-0c-0.523,0.221 -0.976,0.523 -1.348,0.916c-0.373,0.392 -0.664,0.865 -0.876,1.398c-0.211,0.534 -0.312,1.127 -0.312,1.771c0,0.815 0.191,1.55 0.564,2.184c0.372,0.634 0.896,1.147 1.57,1.509c0.664,0.363 1.438,0.554 2.304,0.554c0.383,-0 0.785,-0.05 1.178,-0.161c0.392,-0.101 0.774,-0.252 1.127,-0.423c0.362,-0.181 0.684,-0.412 0.966,-0.674l0.13,-0.121l-1.146,-1.6l-0.171,0.141c-0.343,0.292 -0.655,0.503 -0.947,0.614c-0.292,0.111 -0.604,0.171 -0.946,0.171c-0.492,0 -0.936,-0.101 -1.298,-0.282c-0.362,-0.181 -0.643,-0.453 -0.835,-0.795c-0.09,-0.151 -0.151,-0.332 -0.201,-0.553l5.776,-0l0.02,-0.845c0,-0.584 -0.081,-1.127 -0.261,-1.631c-0.182,-0.493 -0.453,-0.935 -0.806,-1.298l0,-0.01Zm-4.689,2.113c0.03,-0.1 0.061,-0.181 0.101,-0.261c0.15,-0.312 0.382,-0.564 0.674,-0.735c0.302,-0.171 0.685,-0.261 1.137,-0.261c0.291,-0 0.553,0.06 0.785,0.181c0.231,0.12 0.433,0.292 0.584,0.493c0.12,0.171 0.201,0.362 0.241,0.573l-3.532,0l0.01,0.01Z" style="fill:#13284b;fill-rule:nonzero;"/><path d="M126.31,3.955c-0.071,-0.071 -0.152,-0.141 -0.222,-0.212c-0.272,-0.221 -0.584,-0.402 -0.936,-0.523c-0.352,-0.121 -0.744,-0.181 -1.167,-0.181c-0.725,0 -1.389,0.191 -1.972,0.553c-0.584,0.373 -1.047,0.886 -1.379,1.54c-0.332,0.644 -0.504,1.389 -0.504,2.214c0,0.825 0.172,1.57 0.504,2.214c0.332,0.644 0.785,1.167 1.338,1.549c0.564,0.383 1.197,0.574 1.892,0.574c0.403,0 0.785,-0.06 1.147,-0.191c0.352,-0.121 0.675,-0.292 0.966,-0.503c0.111,-0.081 0.222,-0.171 0.322,-0.262l0,0.805l2.285,0l-0,-8.332l-2.265,0l0,0.755l-0.009,-0Zm-0.202,4.598c-0.171,0.343 -0.402,0.614 -0.704,0.795c-0.584,0.383 -1.479,0.373 -2.063,0c-0.292,-0.191 -0.523,-0.462 -0.685,-0.795c-0.171,-0.342 -0.251,-0.754 -0.251,-1.217c0,-0.463 0.08,-0.845 0.251,-1.188c0.162,-0.332 0.393,-0.603 0.685,-0.795c0.292,-0.191 0.634,-0.281 1.026,-0.281c0.392,-0 0.735,0.09 1.037,0.281c0.302,0.192 0.533,0.453 0.704,0.795c0.171,0.343 0.262,0.745 0.262,1.188c-0,0.443 -0.091,0.865 -0.262,1.207l-0,0.01Z" style="fill:#13284b;fill-rule:nonzero;"/><path d="M112.895,3.955c-0.07,-0.071 -0.151,-0.141 -0.221,-0.212c-0.272,-0.221 -0.584,-0.402 -0.936,-0.523c-0.352,-0.121 -0.745,-0.181 -1.167,-0.181c-0.725,0 -1.389,0.191 -1.972,0.553c-0.584,0.373 -1.047,0.886 -1.379,1.54c-0.332,0.644 -0.503,1.389 -0.503,2.214c-0,0.825 0.171,1.57 0.503,2.214c0.332,0.644 0.785,1.167 1.339,1.549c0.563,0.383 1.197,0.574 1.891,0.574c0.403,0 0.785,-0.06 1.148,-0.191c0.351,-0.121 0.673,-0.292 0.966,-0.503c0.11,-0.081 0.221,-0.171 0.322,-0.262l-0,0.805l2.284,0l0,-8.332l-2.264,0l-0,0.755l-0.011,-0Zm-0.201,4.598c-0.171,0.343 -0.403,0.614 -0.704,0.795c-0.584,0.383 -1.48,0.373 -2.063,0c-0.292,-0.191 -0.523,-0.462 -0.684,-0.795c-0.171,-0.342 -0.252,-0.754 -0.252,-1.217c-0,-0.463 0.081,-0.845 0.252,-1.188c0.161,-0.332 0.392,-0.603 0.684,-0.795c0.291,-0.191 0.634,-0.281 1.026,-0.281c0.393,-0 0.735,0.09 1.037,0.281c0.301,0.192 0.533,0.453 0.704,0.795c0.171,0.343 0.262,0.745 0.262,1.188c-0,0.443 -0.091,0.865 -0.262,1.207l0,0.01Z" style="fill:#13284b;fill-rule:nonzero;"/><path d="M96.694,2.284l0.03,-0.06l0,-1.62l-8.14,-0l-0,2.244l4.89,-0l-5.283,7.054l-0,1.63l8.704,-0l0,-2.204l-5.443,0l5.242,-7.044Z" style="fill:#13284b;fill-rule:nonzero;"/><path d="M136.01,3.431c-0.433,-0.261 -0.976,-0.392 -1.61,-0.392c-0.453,-0 -0.895,0.101 -1.319,0.292c-0.382,0.171 -0.724,0.402 -1.016,0.674l0,-0.795l-2.214,0l0,8.322l2.255,0l-0,-4.981c-0,-0.201 0.039,-0.403 0.12,-0.574c0.081,-0.181 0.201,-0.332 0.352,-0.473c0.141,-0.14 0.323,-0.241 0.514,-0.322c0.201,-0.08 0.433,-0.11 0.684,-0.11c0.292,-0 0.544,0.04 0.745,0.151c0.191,0.1 0.332,0.261 0.422,0.483c0.101,0.241 0.151,0.553 0.151,0.925l0,4.911l2.254,0l0,-5.041c0,-0.745 -0.11,-1.379 -0.322,-1.882c-0.221,-0.523 -0.564,-0.916 -0.996,-1.177l-0.02,-0.011Z" style="fill:#13284b;fill-rule:nonzero;"/><path d="M80.342,7.96l-1.59,-3.563l-1.369,0l-1.579,3.623l-1.51,-4.83l-2.324,0.02l2.797,8.322l1.59,0l1.66,-4.075l1.742,4.075l1.599,0l2.808,-8.322l-2.325,0l-1.499,4.75Z" style="fill:#13284b;fill-rule:nonzero;"/><path d="M71.326,10.425l0.131,-0.121l-1.148,-1.6l-0.171,0.141c-0.342,0.292 -0.664,0.503 -0.945,0.614c-0.292,0.111 -0.604,0.171 -0.946,0.171c-0.493,0 -0.936,-0.101 -1.298,-0.282c-0.363,-0.181 -0.645,-0.452 -0.836,-0.795c-0.09,-0.151 -0.151,-0.332 -0.201,-0.553l5.776,-0l0.02,-0.845c0,-0.584 -0.08,-1.127 -0.261,-1.631c-0.181,-0.503 -0.453,-0.935 -0.805,-1.298c-0.353,-0.362 -0.765,-0.654 -1.238,-0.865c-1.016,-0.453 -2.284,-0.403 -3.25,-0c-0.524,0.211 -0.977,0.523 -1.349,0.916c-0.372,0.392 -0.664,0.855 -0.875,1.398c-0.212,0.534 -0.312,1.127 -0.312,1.771c-0,0.816 0.191,1.55 0.563,2.184c0.373,0.634 0.896,1.147 1.56,1.51c0.664,0.362 1.439,0.553 2.304,0.553c0.383,0 0.785,-0.05 1.178,-0.161c0.392,-0.101 0.775,-0.252 1.127,-0.423c0.362,-0.181 0.684,-0.402 0.966,-0.674l0.01,-0.01Zm-5.273,-4.367c0.151,-0.322 0.382,-0.564 0.674,-0.735c0.302,-0.171 0.684,-0.261 1.137,-0.261c0.292,-0 0.554,0.06 0.785,0.181c0.232,0.12 0.433,0.281 0.584,0.493c0.121,0.171 0.201,0.362 0.241,0.573l-3.532,0c0.03,-0.1 0.061,-0.181 0.101,-0.261l0.01,0.01Z" style="fill:#13284b;fill-rule:nonzero;"/><path d="M5.987,15.738l-5.987,0l0.543,1.319l1.631,-0l-0,6.842l1.64,0l-0,-6.843l2.173,0l0,-1.318Z" style="fill:#0c818f;fill-rule:nonzero;"/><path d="M12.126,20.518c-0,-0.634 -0.131,-1.187 -0.403,-1.68c-0.271,-0.483 -0.644,-0.866 -1.137,-1.127c-0.483,-0.262 -1.036,-0.393 -1.65,-0.393c-0.614,0 -1.208,0.141 -1.691,0.413c-0.493,0.272 -0.875,0.664 -1.147,1.167c-0.272,0.503 -0.412,1.097 -0.412,1.761c-0,0.664 0.14,1.248 0.412,1.751c0.272,0.503 0.664,0.896 1.157,1.177c0.493,0.282 1.057,0.413 1.681,0.413c0.775,0 1.419,-0.201 1.952,-0.604c0.533,-0.402 0.886,-0.915 1.077,-1.539l-1.761,-0c-0.262,0.523 -0.695,0.785 -1.298,0.785c-0.423,-0 -0.775,-0.131 -1.067,-0.393c-0.292,-0.262 -0.453,-0.634 -0.493,-1.097l4.74,0c0.03,-0.191 0.05,-0.402 0.05,-0.634l-0.01,0Zm-4.77,-0.473c0.06,-0.432 0.231,-0.775 0.503,-1.026c0.282,-0.242 0.614,-0.372 1.027,-0.372c0.432,-0 0.794,0.13 1.086,0.382c0.292,0.252 0.453,0.594 0.453,1.016l-3.079,0l0.01,0Z" style="fill:#0c818f;fill-rule:nonzero;"/><path d="M23.366,22.028l-1.57,-6.3l-1.821,0l-1.661,6.34l-1.439,-6.34l-1.751,0l2.194,8.171l1.922,-0.01l1.6,-5.806l1.53,5.806l1.932,0l2.274,-8.161l-1.761,0l-1.449,6.3Z" style="fill:#0c818f;fill-rule:nonzero;"/><path d="M32.483,17.65c-0.382,-0.211 -0.815,-0.322 -1.308,-0.322c-0.433,0 -0.815,0.081 -1.168,0.242c-0.352,0.161 -0.633,0.382 -0.845,0.664l0,-2.979l-1.64,0l-0,8.654l1.64,0l0,-3.582c0,-0.513 0.131,-0.906 0.393,-1.187c0.261,-0.282 0.613,-0.413 1.066,-0.413c0.453,-0 0.795,0.141 1.057,0.413c0.261,0.281 0.382,0.674 0.382,1.187l0,3.582l1.64,0l0,-3.793c0,-0.584 -0.11,-1.087 -0.321,-1.5c-0.212,-0.412 -0.514,-0.734 -0.896,-0.946l-0,-0.02Z" style="fill:#0c818f;fill-rule:nonzero;"/><path d="M39.839,18.345c-0.221,-0.292 -0.513,-0.544 -0.875,-0.735c-0.363,-0.191 -0.785,-0.292 -1.268,-0.292c-0.554,0 -1.057,0.141 -1.5,0.413c-0.453,0.272 -0.805,0.664 -1.066,1.167c-0.262,0.503 -0.393,1.087 -0.393,1.741c0,0.654 0.131,1.248 0.393,1.761c0.261,0.513 0.613,0.906 1.066,1.188c0.453,0.281 0.946,0.422 1.49,0.422c0.483,0 0.905,-0.101 1.278,-0.302c0.372,-0.201 0.664,-0.453 0.875,-0.754l0,0.945l1.65,0l0,-6.48l-1.65,-0l0,0.926Zm-0.231,3.341c-0.151,0.281 -0.363,0.503 -0.634,0.654c-0.262,0.151 -0.554,0.231 -0.856,0.231c-0.302,0 -0.573,-0.08 -0.835,-0.231c-0.262,-0.151 -0.473,-0.383 -0.634,-0.675c-0.161,-0.291 -0.241,-0.633 -0.241,-1.026c-0,-0.392 0.08,-0.724 0.241,-1.006c0.161,-0.282 0.372,-0.503 0.624,-0.654c0.252,-0.151 0.533,-0.222 0.845,-0.222c0.312,0 0.584,0.081 0.856,0.232c0.261,0.151 0.473,0.372 0.634,0.654c0.161,0.282 0.231,0.624 0.231,1.026c0,0.403 -0.08,0.735 -0.231,1.027l-0,-0.01Z" style="fill:#0c818f;fill-rule:nonzero;"/><path d="M44.85,15.819l-1.65,-0l0,1.6l-0.775,-0l0,1.348l0.775,0l0,3.12c0,1.338 0.694,2.012 2.073,2.012l1.026,0l0,-1.378l-0.764,-0c-0.252,-0 -0.423,-0.051 -0.534,-0.141c-0.1,-0.101 -0.161,-0.252 -0.161,-0.473l0,-3.13l1.449,0l0,-1.348l-1.449,-0l0,-1.6l0.01,-0.01Z" style="fill:#0c818f;fill-rule:nonzero;"/><path d="M51.804,21.011c-0,0.513 -0.131,0.906 -0.383,1.188c-0.261,0.282 -0.614,0.412 -1.066,0.412c-0.453,0 -0.795,-0.141 -1.057,-0.412c-0.262,-0.282 -0.382,-0.675 -0.382,-1.188l-0,-3.562l-1.641,0l0,3.794c0,0.573 0.111,1.076 0.332,1.489c0.222,0.413 0.524,0.735 0.916,0.946c0.393,0.211 0.835,0.322 1.349,0.322c0.392,0 0.764,-0.081 1.107,-0.242c0.342,-0.161 0.613,-0.382 0.825,-0.664l-0,0.795l1.65,0l0,-6.46l-1.65,-0l-0,3.582Z" style="fill:#0c818f;fill-rule:nonzero;"/><path d="M63.668,16.181c-0.634,-0.362 -1.338,-0.533 -2.113,-0.533c-0.775,-0 -1.469,0.181 -2.103,0.533c-0.644,0.362 -1.148,0.855 -1.52,1.489c-0.372,0.634 -0.563,1.349 -0.563,2.144c-0,0.795 0.191,1.519 0.563,2.153c0.372,0.634 0.876,1.127 1.52,1.49c0.634,0.362 1.338,0.533 2.103,0.533c0.765,-0 1.469,-0.181 2.103,-0.533c0.644,-0.363 1.147,-0.856 1.509,-1.49c0.373,-0.634 0.554,-1.358 0.554,-2.153c-0,-0.795 -0.181,-1.51 -0.554,-2.144c-0.372,-0.634 -0.875,-1.127 -1.509,-1.489l0.01,0Zm0.06,5.072c-0.211,0.412 -0.503,0.734 -0.875,0.956c-0.372,0.221 -0.805,0.332 -1.298,0.332c-0.493,-0 -0.926,-0.111 -1.308,-0.332c-0.383,-0.222 -0.675,-0.544 -0.886,-0.956c-0.211,-0.413 -0.312,-0.896 -0.312,-1.439c0,-0.544 0.101,-1.027 0.312,-1.429c0.211,-0.403 0.503,-0.725 0.886,-0.936c0.382,-0.221 0.815,-0.332 1.308,-0.332c0.493,0 0.926,0.111 1.298,0.332c0.372,0.221 0.664,0.533 0.875,0.936c0.212,0.413 0.312,0.885 0.312,1.429c0,0.543 -0.1,1.026 -0.312,1.439Z" style="fill:#0c818f;fill-rule:nonzero;"/><path d="M68.438,18.425l-0,-1.006l-1.641,-0l0,6.48l1.641,0l-0,-3.23c-0,-0.604 0.131,-1.016 0.392,-1.258c0.262,-0.241 0.644,-0.362 1.167,-0.362l0.433,0l0,-1.721c-0.433,0 -0.825,0.101 -1.167,0.292c-0.342,0.191 -0.614,0.463 -0.825,0.805Z" style="fill:#0c818f;fill-rule:nonzero;"/><path d="M76.096,18.345c-0.222,-0.292 -0.514,-0.544 -0.876,-0.735c-0.362,-0.191 -0.785,-0.292 -1.268,-0.292c-0.553,0 -1.057,0.141 -1.499,0.413c-0.453,0.272 -0.805,0.664 -1.067,1.167c-0.262,0.503 -0.392,1.087 -0.392,1.741c-0,0.654 0.13,1.248 0.392,1.761c0.262,0.513 0.614,0.906 1.067,1.188c0.453,0.281 0.946,0.422 1.489,0.422c0.483,0 0.906,-0.101 1.278,-0.302c0.372,-0.201 0.664,-0.453 0.876,-0.754l-0,0.945l1.65,0l-0,-6.48l-1.65,-0l-0,0.926Zm-0.232,3.341c-0.151,0.281 -0.362,0.503 -0.634,0.654c-0.262,0.151 -0.553,0.231 -0.855,0.231c-0.302,0 -0.574,-0.08 -0.835,-0.231c-0.262,-0.151 -0.473,-0.383 -0.634,-0.675c-0.161,-0.291 -0.242,-0.633 -0.242,-1.026c0,-0.392 0.081,-0.724 0.242,-1.006c0.161,-0.282 0.372,-0.503 0.623,-0.654c0.252,-0.151 0.534,-0.222 0.846,-0.222c0.312,0 0.583,0.081 0.855,0.232c0.262,0.151 0.473,0.372 0.634,0.654c0.161,0.282 0.232,0.624 0.232,1.026c-0,0.403 -0.081,0.735 -0.232,1.027l-0,-0.01Z" style="fill:#0c818f;fill-rule:nonzero;"/></svg>