<?xml version="1.0" encoding="UTF-8" standalone="no"?><!DOCTYPE svg PUBLIC "-//W3C//DTD SVG 1.1//EN" "http://www.w3.org/Graphics/SVG/1.1/DTD/svg11.dtd"><svg width="100%" height="100%" viewBox="0 0 214 58" version="1.1" xmlns="http://www.w3.org/2000/svg" xmlns:xlink="http://www.w3.org/1999/xlink" xml:space="preserve" xmlns:serif="http://www.serif.com/" style="fill-rule:evenodd;clip-rule:evenodd;stroke-linejoin:round;stroke-miterlimit:2;"><path id="path3781" d="M28.8,57.825c15.9,-0 28.8,-12.975 28.8,-28.95c-0,-15.9 -12.9,-28.875 -28.8,-28.875c-15.9,-0 -28.8,12.975 -28.8,28.95c0,15.975 12.9,28.875 28.8,28.875" style="fill:#eebc32;fill-rule:nonzero;"/><path id="path3783" d="M17.175,36.75c-1.2,-1.875 -1.875,-4.05 -2.1,-6.3l-0,-0.15l-2.625,-0l-0,0.225c0.225,2.4 0.9,4.725 2.025,6.75l-6,6.9c-0.3,0.375 -0.45,0.9 -0.225,1.425c0.225,0.45 0.675,0.75 1.2,0.75l0.675,-0l1.875,-2.25l5.025,-5.775c0.45,-0.525 0.45,-1.125 0.15,-1.575" style="fill:#fff;fill-rule:nonzero;"/><path id="path3785" d="M44.4,30.45c-0.75,6.825 -6.15,12.375 -12.975,13.2l-0.15,0l0,2.625l0.225,0c8.25,-0.825 14.775,-7.425 15.525,-15.75l0,-0.225l-2.55,0l-0.075,0.15Z" style="fill:#fff;fill-rule:nonzero;"/><path id="polygon3787" d="M13.65,46.275l14.925,0l0,-2.55l-12.75,-0l-2.175,2.55Z" style="fill:#fff;fill-rule:nonzero;"/><path id="path3789" d="M12.45,27.3l0,0.225l2.55,-0l-0,-0.15c0.75,-7.05 6.3,-12.6 13.275,-13.2l0.15,-0l0,-2.625l-0.225,-0c-8.325,0.675 -15,7.35 -15.75,15.75" style="fill:#fff;fill-rule:nonzero;"/><path id="path3791" d="M44.4,27.375l0,0.15l2.55,0l0,-0.225c-0.75,-8.325 -7.275,-14.925 -15.525,-15.75l-0.225,0l0,2.625l0.15,0c6.9,0.825 12.3,6.375 13.05,13.2" style="fill:#fff;fill-rule:nonzero;"/><path id="path3793" d="M66.15,25.5l4.575,0c-0,2.175 1.2,3.375 3.225,3.375c1.65,0 2.625,-0.825 2.625,-2.175c-0,-1.2 -0.6,-1.8 -2.4,-2.55l-3.525,-1.35c-2.625,-0.975 -3.975,-2.85 -3.975,-5.4c0,-3.45 2.7,-5.775 6.975,-5.775c4.35,0 7.2,2.475 7.2,6.225l-4.575,0c0,-1.8 -0.975,-2.85 -2.7,-2.85c-1.5,0 -2.325,0.75 -2.325,1.95c0,1.125 0.75,1.8 2.7,2.55l3.225,1.275c2.7,1.05 3.975,2.925 3.975,5.55c0,3.675 -2.85,6.075 -7.2,6.075c-4.875,0.075 -7.8,-2.475 -7.8,-6.9" style="fill:#2c3949;fill-rule:nonzero;"/><path id="path3795" d="M93.15,25.125c0,-1.95 -1.125,-3.525 -3.225,-3.525c-2.025,0 -3.225,1.5 -3.225,3.525c-0,2.025 1.2,3.6 3.225,3.6c2.1,-0 3.225,-1.65 3.225,-3.6m-10.8,0c-0,-4.05 2.475,-7.125 6.45,-7.125c1.95,0 3.525,0.9 4.2,2.325l-0,-1.95l4.275,0l-0,13.575l-4.275,0l-0,-1.95c-0.75,1.35 -2.4,2.25 -4.275,2.25c-4.05,0.075 -6.375,-3 -6.375,-7.125" style="fill:#2c3949;fill-rule:nonzero;"/><path id="path3797" d="M105.6,16.95l0,1.35l3.15,0l-0,3.45l-3.15,0l0,10.2l-4.275,0l0,-10.2l-2.4,0l0,-3.375l2.4,0l0,-1.35c0,-4.2 2.925,-5.1 4.95,-5.1c1.125,0 1.95,0.15 2.475,0.3l0,3.075c-0.45,0 -0.75,-0.075 -1.2,-0.075c-0.9,0 -1.95,0.225 -1.95,1.725" style="fill:#2c3949;fill-rule:nonzero;"/><path id="path3799" d="M119.4,23.625c-0,-1.8 -1.05,-2.85 -2.85,-2.85c-1.875,0 -3,1.125 -3,2.85l5.85,0Zm4.125,2.7l-9.975,0c0.075,1.8 1.275,2.775 3.15,2.775c1.35,0 2.175,-0.45 2.55,-1.275l4.2,0c-0.45,2.7 -3.15,4.5 -6.75,4.5c-4.575,0 -7.425,-2.7 -7.425,-7.2c-0,-4.425 2.925,-7.2 7.275,-7.2c4.2,-0 7.05,2.625 7.05,6.45c0.075,0.825 -0,1.125 -0.075,1.95" style="fill:#2c3949;fill-rule:nonzero;"/><path id="path3801" d="M141.6,28.5l0,3.45c-0.6,0.075 -1.65,0.225 -2.85,0.225c-2.025,0 -4.8,-0.45 -4.8,-5.025l0,-5.4l-2.1,0l0,-3.375l2.1,0l0,-4.05l4.275,0l0,4.05l3.075,0l0,3.375l-3.075,0l0,4.5c0,2.025 0.825,2.325 1.875,2.325c0.6,0 1.125,0 1.5,-0.075" style="fill:#2c3949;fill-rule:nonzero;"/><path id="path3803" d="M153.825,25.125c-0,-2.025 -1.2,-3.525 -3.225,-3.525c-2.025,0 -3.225,1.5 -3.225,3.525c-0,2.025 1.2,3.525 3.225,3.525c2.025,0.075 3.225,-1.425 3.225,-3.525m-10.725,0c0,-4.125 2.85,-7.2 7.5,-7.2c4.65,-0 7.5,3.075 7.5,7.2c0,4.125 -2.85,7.2 -7.5,7.2c-4.65,0 -7.5,-3.075 -7.5,-7.2" style="fill:#2c3949;fill-rule:nonzero;"/><path id="path3805" d="M174.6,28.5l0,3.45c-0.6,0.075 -1.65,0.225 -2.85,0.225c-2.025,0 -4.8,-0.45 -4.8,-5.025l0,-5.4l-2.1,0l0,-3.375l2.1,0l0,-4.05l4.275,0l0,4.05l3.075,0l0,3.375l-3.075,0l0,4.5c0,2.025 0.825,2.325 1.875,2.325c0.6,0 1.125,0 1.5,-0.075" style="fill:#2c3949;fill-rule:nonzero;"/><path id="path3807" d="M186.675,25.125c0,-1.95 -1.125,-3.525 -3.225,-3.525c-2.025,0 -3.225,1.5 -3.225,3.525c-0,2.025 1.2,3.6 3.225,3.6c2.1,-0 3.225,-1.65 3.225,-3.6m-10.875,0c0,-4.05 2.475,-7.125 6.45,-7.125c1.95,0 3.525,0.9 4.2,2.325l0,-1.95l4.275,0l0,13.575l-4.275,0l0,-1.95c-0.75,1.35 -2.4,2.25 -4.275,2.25c-4.05,0.075 -6.375,-3 -6.375,-7.125" style="fill:#2c3949;fill-rule:nonzero;"/><rect id="rect3809" x="192.975" y="12.225" width="4.275" height="19.725" style="fill:#2c3949;"/><path id="polygon3811" d="M208.2,31.95l-4.35,-5.925l0,5.925l-4.2,0l-0,-19.725l4.2,0l0,11.85l4.425,-5.7l5.1,0l-5.4,6.375l5.475,7.2l-5.25,0Z" style="fill:#2c3949;fill-rule:nonzero;"/><path id="path3813" d="M72.405,44.933l3.892,4.949l-2.797,0l-3.278,-4.342l0.001,4.342l-2.371,0l0,-9.697l2.34,0l0,4.268l3.308,-4.268l2.797,0l-3.892,4.748Z" style="fill:#2c3949;fill-rule:nonzero;"/><path id="path3815" d="M82.537,42.608c0.592,0.31 1.081,0.784 1.41,1.364c0.683,1.305 0.683,2.866 0,4.17c-0.33,0.579 -0.819,1.05 -1.41,1.358c-0.625,0.322 -1.321,0.484 -2.025,0.472c-0.708,0.012 -1.408,-0.15 -2.04,-0.472c-0.592,-0.308 -1.082,-0.783 -1.409,-1.365c-0.689,-1.303 -0.689,-2.867 -0,-4.17c0.327,-0.582 0.817,-1.057 1.41,-1.365c0.631,-0.322 1.331,-0.484 2.04,-0.472c0.704,-0.01 1.399,0.155 2.025,0.48Zm0.704,-2.955l0.001,1.597l-5.468,0l0,-1.575l5.468,-0.022Zm-3.863,5.002c-0.609,0.833 -0.609,1.972 0,2.805c0.291,0.314 0.704,0.489 1.133,0.48c0.423,0.005 0.829,-0.17 1.117,-0.48c0.599,-0.836 0.599,-1.969 0,-2.805c-0.282,-0.319 -0.692,-0.497 -1.118,-0.487c-0.429,-0.008 -0.842,0.17 -1.132,0.487Z" style="fill:#2c3949;fill-rule:nonzero;"/><path id="path3817" d="M88.8,42.563c0.451,-0.276 0.971,-0.419 1.5,-0.413l0,2.512l-0.667,0c-0.512,-0.035 -1.02,0.105 -1.441,0.398c-0.376,0.339 -0.568,0.838 -0.517,1.342l0,3.48l-2.332,0.001l-0.001,-7.651l2.333,0.001l0,1.44c0.279,-0.457 0.665,-0.838 1.125,-1.11Z" style="fill:#2c3949;fill-rule:nonzero;"/><path id="path3819" d="M98.108,46.5l-5.288,0c-0.018,0.453 0.138,0.896 0.435,1.237c0.274,0.257 0.638,0.394 1.012,0.383c0.309,0.011 0.613,-0.081 0.863,-0.263c0.222,-0.167 0.381,-0.405 0.45,-0.675l2.475,0c-0.094,0.531 -0.321,1.029 -0.66,1.448c-0.342,0.432 -0.782,0.776 -1.282,1.005c-1.204,0.525 -2.581,0.484 -3.751,-0.113c-0.576,-0.314 -1.05,-0.788 -1.365,-1.365c-0.335,-0.642 -0.503,-1.36 -0.487,-2.085c-0.02,-0.727 0.148,-1.448 0.487,-2.092c0.31,-0.576 0.782,-1.048 1.358,-1.358c1.256,-0.621 2.734,-0.621 3.99,0c0.56,0.301 1.021,0.757 1.328,1.313c0.323,0.595 0.486,1.265 0.472,1.942c0.007,0.209 -0.006,0.417 -0.038,0.623Zm-2.7,-2.123c-0.283,-0.249 -0.65,-0.383 -1.027,-0.375c-0.391,-0.016 -0.774,0.121 -1.065,0.383c-0.302,0.297 -0.475,0.702 -0.48,1.125l3,-0c0.037,-0.427 -0.12,-0.849 -0.428,-1.148l0,0.015Z" style="fill:#2c3949;fill-rule:nonzero;"/><path id="path3821" d="M102.518,42.563c0.451,-0.275 0.971,-0.418 1.499,-0.413l0.001,2.512l-0.668,0c-0.511,-0.035 -1.019,0.105 -1.44,0.398c-0.376,0.339 -0.569,0.838 -0.517,1.343l-0,3.48l-2.333,-0l0,-7.651l2.333,0.001l-0,1.44c0.278,-0.457 0.664,-0.838 1.125,-1.11Z" style="fill:#2c3949;fill-rule:nonzero;"/><path id="path3823" d="M110.25,42.608c0.59,0.312 1.079,0.785 1.41,1.364c0.682,1.305 0.682,2.866 0,4.17c-0.332,0.577 -0.821,1.048 -1.41,1.358c-1.281,0.63 -2.784,0.63 -4.065,0c-0.593,-0.31 -1.086,-0.784 -1.417,-1.365c-0.683,-1.305 -0.683,-2.865 -0,-4.17c0.331,-0.581 0.824,-1.055 1.417,-1.365c1.281,-0.63 2.784,-0.63 4.065,0l0,0.008Zm-3.157,2.047c-0.609,0.833 -0.609,1.972 -0.001,2.805c0.29,0.312 0.7,0.487 1.126,0.48c0.425,0.007 0.835,-0.168 1.124,-0.48c0.6,-0.836 0.6,-1.969 0.001,-2.805c-0.285,-0.321 -0.697,-0.5 -1.126,-0.487c-0.427,-0.006 -0.836,0.172 -1.124,0.487Z" style="fill:#2c3949;fill-rule:nonzero;"/><path id="path3825" d="M127.5,43.02c0.568,0.675 0.855,1.542 0.803,2.422l-0,4.44l-2.303,0l0,-4.132c0.023,-0.412 -0.117,-0.816 -0.39,-1.125c-0.282,-0.279 -0.669,-0.426 -1.065,-0.405c-0.409,-0.02 -0.808,0.136 -1.095,0.428c-0.286,0.337 -0.431,0.773 -0.405,1.215l0,4.057l-2.295,0l0,-4.17c0.025,-0.409 -0.11,-0.812 -0.375,-1.125c-0.279,-0.279 -0.664,-0.427 -1.058,-0.405c-0.41,-0.024 -0.811,0.129 -1.102,0.42c-0.305,0.318 -0.472,0.744 -0.465,1.185l0,4.058l-2.34,-0l0,-7.651l2.34,0.001l0,1.305c0.196,-0.427 0.518,-0.783 0.923,-1.02c0.442,-0.254 0.945,-0.381 1.454,-0.368c0.543,-0.011 1.078,0.13 1.546,0.405c0.446,0.274 0.799,0.676 1.012,1.155c0.256,-0.467 0.631,-0.858 1.087,-1.132c0.45,-0.281 0.97,-0.429 1.501,-0.428c0.833,-0.047 1.646,0.271 2.227,0.87Z" style="fill:#2c3949;fill-rule:nonzero;"/><path id="path3827" d="M133.95,42.533c0.414,0.259 0.738,0.638 0.93,1.087l0,-1.388l2.325,0l0,7.651l-2.325,-0.001l0,-1.38c-0.192,0.447 -0.517,0.824 -0.93,1.08c-0.451,0.276 -0.972,0.414 -1.5,0.398c-0.596,0.01 -1.183,-0.155 -1.688,-0.473c-0.515,-0.332 -0.924,-0.806 -1.177,-1.364c-0.57,-1.334 -0.57,-2.844 0,-4.178c0.256,-0.555 0.664,-1.026 1.177,-1.358c0.505,-0.317 1.092,-0.482 1.688,-0.472c0.528,-0.012 1.048,0.125 1.5,0.397Zm-1.95,2.153c-0.621,0.806 -0.621,1.939 0,2.745c0.31,0.334 0.752,0.515 1.208,0.495c0.457,0.013 0.897,-0.174 1.207,-0.51c0.628,-0.795 0.628,-1.927 0,-2.723c-0.313,-0.331 -0.752,-0.514 -1.207,-0.502c-0.456,-0.02 -0.898,0.161 -1.208,0.495Z" style="fill:#2c3949;fill-rule:nonzero;"/><path id="path3829" d="M138.638,39.195c0.59,-0.469 1.434,-0.469 2.024,0c0.244,0.227 0.382,0.545 0.382,0.877c-0,0.333 -0.138,0.651 -0.382,0.878c-0.594,0.459 -1.43,0.459 -2.025,0c-0.243,-0.227 -0.381,-0.545 -0.381,-0.878c0,-0.332 0.138,-0.65 0.381,-0.877Zm2.175,3.037l0,7.65l-2.34,0l0,-7.65l2.34,0Z" style="fill:#2c3949;fill-rule:nonzero;"/><path id="path3831" d="M149.093,49.883l-2.25,-3.248l-0,3.248l-2.34,-0l-0,-10.133l2.34,0l-0,5.572l2.25,-3.075l2.744,0.001l-3.075,3.825l3.143,3.825l-2.813,-0.015Z" style="fill:#2c3949;fill-rule:nonzero;"/><path id="path3833" d="M156.81,42.533c0.414,0.259 0.738,0.638 0.93,1.087l0,-1.388l2.325,0l0,7.651l-2.325,-0.001l0,-1.38c-0.192,0.447 -0.517,0.824 -0.93,1.08c-0.45,0.277 -0.972,0.415 -1.5,0.398c-0.596,0.01 -1.183,-0.155 -1.688,-0.473c-0.513,-0.334 -0.921,-0.808 -1.177,-1.364c-0.57,-1.334 -0.57,-2.844 0,-4.178c0.258,-0.554 0.666,-1.024 1.177,-1.358c0.505,-0.317 1.092,-0.482 1.688,-0.472c0.528,-0.014 1.048,0.124 1.5,0.397Zm-1.958,2.153c-0.608,0.811 -0.608,1.934 0,2.745c0.32,0.321 0.755,0.502 1.208,0.502c0.453,0 0.888,-0.181 1.207,-0.502c0.628,-0.795 0.628,-1.927 0,-2.723c-0.312,-0.331 -0.751,-0.514 -1.207,-0.502c-0.453,-0.022 -0.894,0.153 -1.208,0.48Z" style="fill:#2c3949;fill-rule:nonzero;"/><path id="path3835" d="M169.32,42.608c0.591,0.31 1.081,0.784 1.41,1.364c0.682,1.305 0.682,2.866 0,4.17c-0.33,0.579 -0.82,1.05 -1.41,1.358c-0.625,0.323 -1.321,0.485 -2.025,0.472c-0.708,0.012 -1.409,-0.15 -2.04,-0.472c-0.593,-0.308 -1.083,-0.783 -1.41,-1.365c-0.689,-1.303 -0.689,-2.867 0,-4.17c0.327,-0.582 0.817,-1.057 1.41,-1.365c0.631,-0.322 1.332,-0.484 2.04,-0.472c0.704,-0.011 1.4,0.154 2.025,0.48Zm-3.157,2.047c-0.609,0.833 -0.609,1.972 -0,2.805c0.291,0.314 0.703,0.489 1.132,0.48c0.423,0.005 0.83,-0.17 1.118,-0.48c0.599,-0.836 0.599,-1.969 -0,-2.805c-0.283,-0.319 -0.692,-0.497 -1.118,-0.487c-0.43,-0.008 -0.842,0.17 -1.132,0.487Z" style="fill:#2c3949;fill-rule:nonzero;"/><path id="path3837" d="M175.583,42.563c0.451,-0.275 0.971,-0.418 1.5,-0.413l-0,2.512l-0.668,0c-0.511,-0.035 -1.019,0.105 -1.44,0.398c-0.376,0.339 -0.569,0.838 -0.517,1.343l-0,3.48l-2.333,-0l0,-7.651l2.333,0.001l-0,1.44c0.278,-0.457 0.664,-0.838 1.125,-1.11Z" style="fill:#2c3949;fill-rule:nonzero;"/><path id="path3839" d="M182.115,42.533c0.416,0.256 0.741,0.637 0.93,1.087l0,-1.388l2.325,0l0,7.651l-2.325,-0.001l0,-1.38c-0.19,0.449 -0.515,0.826 -0.93,1.08c-0.45,0.278 -0.972,0.416 -1.5,0.398c-0.596,0.01 -1.183,-0.155 -1.688,-0.473c-0.511,-0.336 -0.919,-0.809 -1.177,-1.364c-0.57,-1.334 -0.57,-2.844 -0,-4.178c0.26,-0.552 0.668,-1.022 1.177,-1.358c0.505,-0.317 1.092,-0.482 1.688,-0.472c0.528,-0.015 1.049,0.124 1.5,0.397Zm-1.958,2.153c-0.62,0.806 -0.62,1.939 0,2.745c0.321,0.322 0.757,0.503 1.212,0.503c0.454,-0 0.89,-0.181 1.211,-0.503c0.609,-0.802 0.609,-1.92 -0,-2.723c-0.315,-0.332 -0.757,-0.515 -1.215,-0.502c-0.453,-0.021 -0.893,0.154 -1.208,0.48Z" style="fill:#2c3949;fill-rule:nonzero;"/></svg>