<?xml version="1.0" encoding="UTF-8" standalone="no"?><!DOCTYPE svg PUBLIC "-//W3C//DTD SVG 1.1//EN" "http://www.w3.org/Graphics/SVG/1.1/DTD/svg11.dtd"><svg width="100%" height="100%" viewBox="0 0 254 249" version="1.1" xmlns="http://www.w3.org/2000/svg" xmlns:xlink="http://www.w3.org/1999/xlink" xml:space="preserve" xmlns:serif="http://www.serif.com/" style="fill-rule:evenodd;clip-rule:evenodd;stroke-linejoin:round;stroke-miterlimit:2;"><path d="M216.968,249l-216.968,0l0,-212.573l36.353,-36.427l217.042,0l0,212.595l-36.427,36.405Z" style="fill:#00467f;fill-rule:nonzero;"/><path d="M109.297,132.9l0,-2.835l-9.397,0l0,17.82l9.608,0l-0.001,-2.835l-6.772,0l0,-4.74l6.345,0l0,-2.835l-6.345,0l0,-4.575l6.563,0Zm-65.295,15.21c2.325,0 4.14,-0.682 5.392,-2.017c1.17,-1.253 1.793,-3.083 1.793,-5.28l-0,-10.748l-2.843,0l0,10.32c0,1.815 -0.262,2.85 -0.892,3.555c-0.435,0.48 -1.448,1.282 -3.405,1.282c-1.26,0 -2.28,-0.442 -3.113,-1.357c-0.652,-0.735 -0.847,-1.507 -0.847,-3.33l-0,-10.47l-2.835,-0.007l-0,11.002c-0,2.25 0.727,4.102 2.092,5.355c1.193,1.095 2.843,1.695 4.658,1.695Zm26.212,-0.225l0,-17.82l-2.707,0l-0,12.743l-10.035,-12.743l-2.22,0l-0,17.82l2.7,0l-0,-12.66c0.255,0.323 9.9,12.66 9.9,12.66l2.362,0Zm25.613,-17.82l-2.858,0c0,0 -4.297,11.197 -4.425,11.535c-0.127,-0.338 -4.44,-11.535 -4.44,-11.535l-2.88,0l6.938,17.97l0.877,0.007l6.787,-17.977Zm26.993,17.82l3.398,0l-0.465,-0.712c-0.938,-1.433 -1.328,-2.025 -1.943,-3.143c-0.54,-0.982 -1.095,-2.002 -1.658,-2.827c-0.502,-0.728 -0.975,-1.283 -1.5,-1.733c1.5,-0.847 2.333,-2.362 2.333,-4.275c0,-1.545 -0.51,-2.842 -1.47,-3.75c-0.953,-0.9 -2.31,-1.38 -3.922,-1.38l-4.215,0l-0,17.82l2.842,-0.007l0,-7.47l0.623,-0c0.967,-0 1.814,0.27 3.847,3.787l2.13,3.69Zm-2.737,-12.727c-0.001,0.742 -0.203,1.32 -0.6,1.732c-0.451,0.458 -1.178,0.698 -2.138,0.698l-1.125,-0l0,-4.793l1.125,0c1.853,0 2.715,0.728 2.737,2.303l0.001,0.06Zm13.905,-2.258c1.192,0 2.34,0.57 3.404,1.695l0.405,0.428l0.128,0.127l0,-3.72l-0.037,-0.023l-0.091,-0.075c-1.125,-0.832 -2.377,-1.267 -3.637,-1.267c-1.477,-0 -2.73,0.465 -3.623,1.335c-0.899,0.877 -1.372,2.107 -1.372,3.562c0,2.468 1.717,3.833 3.48,5.025l0.427,0.293l0.788,0.547c0.458,0.33 0.772,0.585 1.035,0.848c0.653,0.63 0.96,1.26 0.96,1.972c0,0.72 -0.608,1.868 -2.22,1.868c-1.395,-0 -2.76,-0.84 -3.833,-2.37l-0.427,-0.608l-0.135,-0.195l0.09,4.313l0.022,0.022c1.358,1.133 2.79,1.665 4.53,1.665c1.298,0 2.483,-0.51 3.338,-1.425c0.84,-0.907 1.312,-2.167 1.312,-3.555c0,-2.925 -1.807,-4.335 -3.495,-5.437l-1.23,-0.773c-0.442,-0.285 -0.772,-0.532 -1.035,-0.757c-0.66,-0.57 -0.945,-1.11 -0.945,-1.763c0.015,-1.02 0.9,-1.732 2.16,-1.732Zm37.703,14.993l2.835,-0l-0,-9.3c0.03,-0.038 6.037,-8.528 6.037,-8.528l-3.435,0c0,0 -3.93,5.535 -4.035,5.7c-0.112,-0.165 -3.997,-5.7 -3.997,-5.7l-3.435,-0.007c-0,-0 6.007,8.46 6.037,8.505c-0.007,0.052 -0.007,9.33 -0.007,9.33Zm-97.38,-17.828l2.835,0l-0,17.82l-2.835,0l-0,-17.82Zm68.302,0l2.843,0l-0,17.82l-2.843,0l0,-17.82Zm12.21,17.82l2.835,0l0,-14.985l5.363,0l-0,-2.835l-13.56,0l0,2.835l5.362,0l0,14.985Zm56.273,-8.123l5.962,0l0,-2.79l-5.962,0l-0,-4.109l5.962,-0l0,-2.798l-8.767,0l-0,17.603l2.805,-0l-0,-7.906Zm-15.458,8.363c2.543,0 4.725,-0.953 6.308,-2.745c1.463,-1.657 2.273,-3.885 2.273,-6.285c-0,-2.438 -0.818,-4.688 -2.303,-6.337c-1.575,-1.756 -3.735,-2.686 -6.233,-2.686c-2.43,0 -4.619,0.96 -6.187,2.701c-1.5,1.665 -2.317,3.915 -2.317,6.329c-0,2.393 0.81,4.62 2.28,6.293c1.544,1.755 3.75,2.73 6.18,2.73Zm-3.983,-13.47c1.035,-1.125 2.46,-1.74 4.028,-1.74c3.285,0 5.662,2.595 5.662,6.18c0,1.725 -0.57,3.3 -1.612,4.433c-1.035,1.132 -2.475,1.747 -4.043,1.747c-1.56,0 -2.992,-0.615 -4.027,-1.748c-1.043,-1.132 -1.613,-2.707 -1.613,-4.432c-0.007,-1.733 0.563,-3.308 1.605,-4.44Zm-32.61,18.795l-2.618,-0l-9.067,23.58l3.855,-0c-0,-0 2.52,-6.555 2.565,-6.668l8.122,0l2.708,6.668l3.863,-0l-9.428,-23.58Zm-3.817,13.185c0.09,-0.24 2.325,-6.255 2.482,-6.683c0.18,0.428 2.588,6.435 2.678,6.683l-5.16,-0Zm-11.708,6.667l-9.21,0l0,-19.717l-3.727,-0l-0,23.445l12.937,-0l0,-3.728Zm-100.087,-2.947l8.122,-0c0.045,0.112 2.723,6.667 2.723,6.667l3.855,0l-9.435,-23.572l-2.618,-0l-9.067,23.58l3.862,-0c0,-0 2.52,-6.555 2.558,-6.675Zm3.93,-10.403c0.165,0.428 2.572,6.435 2.67,6.683l-5.153,-0c0.083,-0.24 2.318,-6.255 2.483,-6.683Zm56.805,15.21l-0,-4.567l-0.158,0.105l-0.487,0.345c-2.213,1.605 -4.65,2.482 -6.871,2.482c-2.287,0 -4.245,-0.78 -5.669,-2.265c-1.426,-1.477 -2.168,-3.532 -2.168,-5.925c0,-2.31 0.78,-4.41 2.205,-5.925c1.417,-1.507 3.375,-2.34 5.513,-2.34c2.264,0 4.364,0.713 6.81,2.288l0.472,0.307l0.158,0.098l-0.18,-4.568l-0.06,-0.022c-2.858,-1.335 -5.003,-1.905 -7.163,-1.905c-6.698,-0 -11.573,5.197 -11.573,12.36c0,2.685 1.013,5.557 2.715,7.672c1.478,1.83 4.17,4.013 8.678,4.013c3.57,-0 5.827,-1.028 7.732,-2.138l0.045,-0.015Zm11.558,-10.47l9.195,-11.107l-4.702,0c-0,0 -7.65,9.248 -7.965,9.637l-0,-9.637l-3.735,0l-0,23.438l3.735,-0l-0,-10.568c0.314,0.345 9.787,10.568 9.787,10.568l5.123,-0c-0.008,0.007 -11.333,-12.21 -11.438,-12.331Zm99.262,-7.305c-2.032,-2.489 -4.987,-3.802 -8.549,-3.802l-8.326,0l0,23.438l8.355,-0c3.285,-0 6.128,-1.253 8.228,-3.615c1.89,-2.145 2.985,-5.1 2.985,-8.108c0,-2.932 -0.975,-5.827 -2.692,-7.912Zm-8.88,15.915l-4.261,-0l0,-15.99l4.111,-0c2.535,-0 4.605,0.825 5.985,2.362c1.252,1.403 1.919,3.345 1.919,5.633c0,2.97 -1.642,7.995 -7.754,7.995Zm-134.926,4.027c3.068,0 5.445,-0.892 7.095,-2.647c1.545,-1.65 2.355,-4.05 2.355,-6.953l0,-14.137l-3.735,-0l0,13.575c0,2.385 -0.345,3.742 -1.185,4.672c-0.57,0.623 -1.905,1.688 -4.477,1.688c-1.665,-0 -3.008,-0.578 -4.095,-1.785c-0.855,-0.96 -1.118,-1.98 -1.118,-4.38l0,-13.77l-3.727,-0.008l-0,14.483c-0,2.962 0.952,5.392 2.76,7.042c1.582,1.425 3.75,2.22 6.127,2.22Zm117.271,-6.975l-13.201,-16.762l-2.932,-0.008l-0,23.438l3.547,-0l0,-16.658c0.33,0.428 13.035,16.658 13.035,16.658l3.105,-0l0,-23.438l-3.562,0c0.007,0.008 0.007,16.238 0.007,16.77Zm-151.305,35.243l180.338,-0l0,1.05l-180.338,-0l0,-1.05Z" style="fill:#fff;fill-rule:nonzero;"/><path d="M127.32,118.837c-13.74,-5.752 -23.865,-14.625 -30.09,-26.385c-4.485,-8.467 -5.67,-16.365 -5.67,-19.35l-0,-36.18l71.7,0l0,36.18c0,8.558 -6.42,33.465 -35.738,45.735l-0.105,0.045l-0.097,-0.045Z" style="fill:none;fill-rule:nonzero;"/><path d="M109.193,74.137l4.252,-3.217l4.26,3.217l-1.635,-5.13l4.485,-3.232l-5.46,-0l-1.65,-5.168l-1.642,5.168l-5.46,-0l4.484,3.232l-1.635,5.13Zm27.908,-0.044l4.26,-3.218l4.253,3.218l-1.628,-5.13l4.477,-3.233l-5.46,0l-1.642,-5.16l-1.65,5.16l-5.46,0l4.485,3.233l-1.635,5.129Zm-8.048,31.95l-1.642,-5.16l-1.643,5.16l-5.467,0l4.485,3.233l-1.628,5.13l4.253,-3.218l4.252,3.218l-1.627,-5.13l4.477,-3.233l-5.46,0Zm21.818,-13.087c-0.27,-0 -0.525,0.12 -0.69,0.322l-0.113,0.135l-1.425,0l0,-1.732l1.418,-0l0.112,0.135c0.165,0.202 0.42,0.315 0.69,0.315c0.48,-0 0.87,-0.36 0.87,-0.81c0,-0.443 -0.39,-0.81 -0.87,-0.81c-0.277,0 -0.525,0.112 -0.69,0.323l-0.112,0.135l-1.418,-0l0,-1.733l1.41,0l0.113,0.135c0.165,0.203 0.42,0.315 0.69,0.315c0.48,0 0.87,-0.36 0.87,-0.81c-0,-0.45 -0.39,-0.81 -0.87,-0.81c-0.27,0 -0.525,0.12 -0.698,0.323l-0.112,0.135l-1.41,-0l-0,-1.733l1.41,0l0.112,0.135c0.165,0.203 0.42,0.315 0.69,0.315c0.48,0 0.87,-0.36 0.87,-0.81c0,-0.442 -0.39,-0.81 -0.87,-0.81c-0.27,0 -0.525,0.12 -0.697,0.323l-0.113,0.135l-1.41,-0l0,-1.733l1.403,0l0.112,0.135c0.165,0.195 0.42,0.315 0.69,0.315c0.48,0 0.87,-0.367 0.87,-0.81c0,-0.442 -0.39,-0.81 -0.87,-0.81c-0.27,0 -0.525,0.113 -0.69,0.315l-0.112,0.135l-1.403,0l0,-1.732l1.395,-0l0.113,0.135c0.172,0.202 0.42,0.315 0.697,0.315c0.48,-0 0.87,-0.36 0.87,-0.81c0,-0.45 -0.39,-0.81 -0.87,-0.81c-0.27,-0 -0.525,0.12 -0.697,0.322l-0.113,0.135l-1.395,0l0,-1.732l1.395,-0l0.113,0.135c0.172,0.202 0.427,0.315 0.697,0.315c0.48,-0 0.87,-0.36 0.87,-0.81c0,-0.443 -0.39,-0.81 -0.87,-0.81c-0.277,-0 -0.525,0.12 -0.697,0.322l-0.113,0.135l-1.102,0.008l-1.185,-0.6l-0,15.697l-0.21,0.338c-3.548,1.755 -6.713,1.95 -9.42,0.585c-3.053,-1.545 -7.41,-1.905 -10.013,1.875l1.223,-0c0.21,-0 0.375,0.165 0.375,0.375c-0,0.21 -0.165,0.375 -0.375,0.375l-3.818,-0c-0.21,-0 -0.375,-0.165 -0.375,-0.375c0,-0.21 0.165,-0.375 0.375,-0.375l1.215,-0c-2.557,-3.72 -6.907,-3.638 -9.997,-1.883c-2.933,1.658 -6.21,1.455 -9.465,-0.6l-0.173,-0.315l0,-15.697l-1.185,0.6l-1.11,-0.008l-0.112,-0.135c-0.165,-0.202 -0.42,-0.315 -0.698,-0.315c-0.48,0 -0.87,0.36 -0.87,0.81c0,0.443 0.39,0.81 0.87,0.81c0.27,0 0.525,-0.112 0.69,-0.315l0.113,-0.135l1.395,0l-0,1.733l-1.395,-0l-0.113,-0.135c-0.165,-0.203 -0.42,-0.323 -0.697,-0.323c-0.48,0 -0.87,0.36 -0.87,0.81c-0,0.443 0.39,0.81 0.87,0.81c0.27,0 0.525,-0.112 0.69,-0.315l0.112,-0.135l1.395,0l0,1.733l-1.402,-0l-0.113,-0.135c-0.172,-0.203 -0.42,-0.323 -0.697,-0.323c-0.48,0 -0.878,0.36 -0.878,0.81c0,0.45 0.39,0.81 0.878,0.81c0.27,0 0.525,-0.112 0.69,-0.315l0.112,-0.135l1.403,0l-0,1.733l-1.41,-0l-0.113,-0.135c-0.165,-0.203 -0.42,-0.323 -0.69,-0.323c-0.48,0 -0.877,0.36 -0.877,0.81c-0,0.45 0.39,0.81 0.877,0.81c0.27,0 0.518,-0.113 0.69,-0.315l0.113,-0.135l1.41,0l-0,1.733l-1.41,-0.001l-0.113,-0.135c-0.172,-0.21 -0.42,-0.322 -0.69,-0.322c-0.48,0 -0.87,0.36 -0.87,0.81c0,0.442 0.39,0.81 0.87,0.81c0.27,-0 0.525,-0.113 0.69,-0.315l0.113,-0.135l1.417,-0l0,1.732l-1.417,0l-0.113,-0.135c-0.165,-0.202 -0.42,-0.322 -0.69,-0.322c-0.48,-0 -0.877,0.36 -0.877,0.81c-0,0.45 0.39,0.81 0.877,0.81c0.27,-0 0.525,-0.113 0.69,-0.315l0.113,-0.135l1.417,-0l0,1.732l-1.425,0l-0.112,-0.135c-0.165,-0.202 -0.42,-0.322 -0.69,-0.322c-0.48,-0 -0.878,0.36 -0.878,0.81c0,0.45 0.39,0.81 0.878,0.81c0.27,-0 0.525,-0.113 0.69,-0.315l0.112,-0.135l1.193,-0l0.105,0.09c1.875,1.62 3.937,2.37 6.495,2.37c2.025,-0 3.195,-0.3 4.477,-1.155c1.17,-0.773 2.475,-1.155 3.773,-1.155c1.297,-0 2.595,0.382 3.742,1.155l0.518,0.352l-0.555,0.293c-0.36,0.187 -0.578,0.562 -0.578,0.975c0,0.607 0.495,1.102 1.103,1.102l4.755,0c0.607,0 1.102,-0.495 1.102,-1.102c0,-0.413 -0.225,-0.788 -0.577,-0.975l-0.555,-0.293l0.525,-0.352c2.295,-1.545 5.175,-1.545 7.515,-0c1.29,0.847 2.46,1.155 4.485,1.155c2.557,-0 4.627,-0.758 6.495,-2.37l0.105,-0.09l1.185,-0l0.112,0.127c0.173,0.203 0.428,0.315 0.69,0.315c0.48,0 0.878,-0.36 0.878,-0.81c-0,-0.45 -0.375,-0.802 -0.855,-0.802Z" style="fill:#fff;fill-rule:nonzero;"/><path d="M107.835,77.753l0,15.87c2.947,1.792 5.895,1.957 8.52,0.472c3.277,-1.853 7.837,-1.995 10.687,1.695l0,-1.177c-2.31,-2.243 -6.337,-3.57 -10.245,-1.538c-3.562,1.853 -5.542,1.5 -7.965,0.225l-0.202,-0.105l-0,-15.832l-0.795,0.39Zm30.623,16.335c2.43,1.23 5.294,1.065 8.535,-0.488l-0,-15.84l-0.796,-0.397l0,15.832l-0.202,0.105c-2.415,1.283 -4.403,1.628 -7.957,-0.225c-3.908,-2.032 -7.936,-0.705 -10.245,1.538l-0,1.177c2.887,-3.742 7.447,-3.33 10.665,-1.702Z" style="fill:#fff;fill-rule:nonzero;"/><path d="M109.477,76.928l-0.097,0.052l-0,15.75c2.145,1.102 3.877,1.327 7.065,-0.33c1.462,-0.765 2.947,-1.088 4.365,-1.088c2.407,0 4.612,0.938 6.232,2.288l0,-16.08c-3.345,-2.288 -6.72,-2.738 -10.042,-1.335c-2.752,1.162 -4.8,1.372 -7.523,0.742Zm28.905,15.473c3.188,1.657 4.913,1.432 7.058,0.33l0,-15.75l-0.097,-0.053c-2.715,0.63 -4.77,0.42 -7.516,-0.742c-3.329,-1.403 -6.704,-0.96 -10.042,1.335l0,16.08c2.565,-2.138 6.63,-3.255 10.597,-1.2Zm6.728,-46.575c0.165,0.127 1.095,2.55 3.24,2.685c0.24,0.18 1.312,1.972 3.225,1.793c0.022,0.202 0.015,1.927 0.352,2.489l0.075,0.105c-0.007,-0.052 0.015,-0.007 0.015,-0.007c0.15,-0.173 1.231,-0.953 2.123,-1.245c0,-0 0.383,-1.185 0.645,-1.492c1.853,-0.428 2.813,-1.891 2.865,-3.308c0.038,-1.973 -1.732,-4.102 -3.705,-3.848c0,0 -0.067,0 -0.007,-0.052c0.06,-0.158 0.63,-0.405 0.997,-0.428c-1.635,-0.652 -2.707,0.143 -2.67,0.053l-0.015,-0.053c0,0 0.225,-0.375 0.757,-0.742c-1.515,-0 -2.287,0.81 -2.287,0.81l-0.008,-0.113c0,0 0.098,-0.307 0.585,-0.772c-1.71,0.052 -3.045,2.22 -3.045,2.22c0,-0 -0.3,-1.553 -1.792,-1.553c-1.088,-0.165 -3.525,1.328 -2.588,3.345c-0.435,0.81 -1.867,2.055 -3.082,4.583c-0.023,0.052 0.022,0.037 -0,0.09c1.117,-1.568 2.7,-3.578 4.32,-4.56Zm-0.338,-1.403c0.255,0 0.458,0.203 0.458,0.458c-0,0.249 -0.205,0.454 -0.454,0.454c-0.249,-0 -0.454,-0.205 -0.454,-0.454c0,-0.248 0.203,-0.458 0.45,-0.458Zm-22.605,1.403c0.165,0.127 1.103,2.55 3.248,2.685c0.24,0.18 1.312,1.972 3.217,1.792c0.023,0.203 0.023,1.928 0.353,2.49l0.082,0.105c-0.007,-0.052 0.015,-0.007 0.015,-0.007c0.15,-0.173 1.23,-0.953 2.123,-1.245c0,-0 0.382,-1.185 0.645,-1.493c1.86,-0.427 2.805,-1.89 2.873,-3.307c0.037,-1.973 -1.733,-4.103 -3.705,-3.848c-0,0 -0.06,0 -0.008,-0.052c0.068,-0.158 0.638,-0.405 0.998,-0.428c-1.635,-0.652 -2.7,0.143 -2.67,0.053l-0.015,-0.053c-0,0 0.217,-0.375 0.757,-0.742c-1.515,-0 -2.28,0.81 -2.28,0.81l-0.007,-0.113c-0,0 0.105,-0.307 0.585,-0.772c-1.71,0.052 -3.045,2.22 -3.045,2.22c-0,-0 -0.293,-1.553 -1.785,-1.553c-1.088,-0.165 -3.525,1.328 -2.588,3.345c-0.435,0.81 -1.86,2.055 -3.082,4.583c-0.03,0.052 0.022,0.037 -0,0.09c1.08,-1.568 2.677,-3.578 4.29,-4.56Zm-0.331,-1.403c0.251,0.001 0.458,0.207 0.458,0.458c-0,0.251 -0.207,0.457 -0.458,0.457c-0.255,0 -0.457,-0.202 -0.457,-0.457c-0,-0.248 0.202,-0.458 0.457,-0.458Z" style="fill:#fff;fill-rule:nonzero;"/><path d="M91.035,36.39l0,36.712c0,3.038 1.2,11.04 5.73,19.598c6.285,11.865 16.492,20.828 30.352,26.625l0.308,0.127l0.307,-0.127c29.588,-12.383 36.068,-37.568 36.068,-46.223l-0,-36.712l-72.765,0Zm48.795,14.513c0.54,-1.478 1.83,-3.51 3.232,-5.318c-0.532,-3.045 2.273,-4.05 3.36,-4.013c1.125,0.023 1.92,0.758 2.055,0.983c1.298,-1.523 2.985,-1.68 3.75,-1.717c5.475,-0.173 8.243,3.922 8.123,7.199c-0.135,3.736 -2.97,4.605 -3.353,4.718c0,0 -0.044,0.81 0.585,1.905c0.038,0.083 0.165,0.173 0.045,0.383c-0.014,0.045 -0.127,0.247 -0.157,0.285c-0.023,0.037 -0.075,0.15 -0.037,0.292c0.067,0.24 -0.023,0.533 -0.203,0.87c-0.135,0.3 0.023,1.058 0.097,1.575c0.016,0.105 -0.06,0.113 -0.127,0.038c-0.345,-0.225 -0.615,-0.923 -0.697,-1.313c-0.668,0.173 -1.433,1.148 -1.695,1.718c-0.03,0.082 -0.166,0.165 -0.188,-0.015c-0.015,-0.045 -0.143,-1.14 0.915,-1.943c-0.54,-0.172 -1.095,0.09 -1.477,0.3c-0.023,0.03 -0.188,0.098 -0.068,-0.075c0.03,-0.037 0.33,-0.735 1.755,-0.937c0.015,-0.053 0.315,-0.518 0.435,-0.878c-0.03,-0.532 -0.307,-1.2 -0.645,-1.822c-0.052,-0 -1.065,0.09 -1.777,0.637c-0.046,0.03 -0.143,0.12 -0.143,0.263l0,0.307c0.015,0.045 -0.052,0.323 -0.412,0.443c-0.03,0.03 -1.23,0.412 -1.808,0.682c-0.03,0.023 -0.54,0.248 -0.915,0.78c-0.083,0.083 -0.382,0.555 -0.817,0.698c-0.113,0.022 -0.345,0.135 -0.511,0.3c-0.165,0.172 -0.322,0.337 -0.465,0.427c-0.142,0.09 -0.465,0.443 -0.697,0.923c-0.038,0.067 -0.105,0.157 -0.105,-0c-0.015,-0.195 0.007,-0.45 0.007,-0.45c0.135,-0.608 0.413,-0.915 0.653,-1.178c-0.097,-0.03 -0.083,-0.007 -0.18,-0.06c-0.435,0.053 -1.808,-0.067 -2.632,0.33c-0.061,0.03 -0.12,0.023 -0.061,-0.067c0.15,-0.21 0.458,-1.005 2.311,-1.043c0.03,-0.172 -0.826,-0.592 -1.261,-0.592c-0.127,-0 -0.052,-0.075 0,-0.098c0.098,-0.045 0.916,-0.397 1.875,0.233c0.046,-0.03 0.698,-0.263 1.065,-0.293c0.443,-0.33 1.44,-1.327 1.838,-1.477c-0.008,-0.06 -0.038,-0.27 0.015,-0.488l-0.052,-0.015c-0.518,-0.735 -0.601,-1.807 -0.578,-2.407c-1.065,-0.098 -2.198,-1.05 -2.797,-1.815c-0.773,-0.053 -2.303,-0.705 -3.128,-2.363c-2.79,2.01 -4.605,5.58 -4.71,5.745c-0.067,0.053 -0.105,0.053 -0.157,0.015c-0.3,-0.562 -0.36,-1.41 -0.263,-1.672Zm-22.942,-0c0.54,-1.478 1.83,-3.51 3.232,-5.318c-0.525,-3.045 2.273,-4.05 3.36,-4.013c1.125,0.023 1.92,0.758 2.055,0.983c1.29,-1.523 2.978,-1.68 3.75,-1.717c5.468,-0.173 8.243,3.922 8.115,7.199c-0.135,3.736 -2.97,4.605 -3.352,4.718c-0,0 -0.045,0.81 0.585,1.905c0.037,0.083 0.165,0.173 0.045,0.383c-0.015,0.045 -0.128,0.247 -0.158,0.285c-0.03,0.037 -0.075,0.15 -0.037,0.292c0.067,0.24 -0.023,0.533 -0.203,0.87c-0.142,0.3 0.023,1.058 0.097,1.575c0.016,0.105 -0.06,0.113 -0.127,0.038c-0.345,-0.225 -0.615,-0.923 -0.697,-1.313c-0.668,0.173 -1.433,1.148 -1.695,1.718c-0.023,0.082 -0.165,0.165 -0.195,-0.015c-0.008,-0.045 -0.143,-1.14 0.922,-1.943c-0.54,-0.172 -1.095,0.09 -1.477,0.3c-0.03,0.03 -0.188,0.098 -0.068,-0.075c0.023,-0.037 0.33,-0.735 1.748,-0.937c0.015,-0.053 0.315,-0.518 0.442,-0.878c-0.037,-0.532 -0.315,-1.2 -0.645,-1.822c-0.052,-0 -1.065,0.09 -1.777,0.637c-0.085,0.061 -0.136,0.158 -0.136,0.263l0,0.307c0.016,0.045 -0.052,0.323 -0.419,0.443c-0.038,0.03 -1.23,0.412 -1.8,0.682c-0.03,0.023 -0.548,0.248 -0.923,0.78c-0.082,0.083 -0.382,0.555 -0.817,0.698c-0.113,0.022 -0.345,0.135 -0.51,0.3c-0.165,0.172 -0.323,0.337 -0.465,0.427c-0.143,0.09 -0.465,0.443 -0.698,0.923c-0.038,0.067 -0.105,0.157 -0.105,-0c-0.015,-0.195 0.008,-0.45 0,-0.45c0.143,-0.608 0.42,-0.915 0.653,-1.178c-0.098,-0.03 -0.083,-0.007 -0.18,-0.06c-0.435,0.053 -1.808,-0.067 -2.633,0.33c-0.06,0.03 -0.12,0.023 -0.06,-0.067c0.158,-0.21 0.458,-1.005 2.31,-1.043c0.023,-0.172 -0.825,-0.592 -1.252,-0.592c-0.135,-0 -0.06,-0.075 -0,-0.098c0.097,-0.045 0.907,-0.397 1.875,0.233c0.045,-0.03 0.69,-0.263 1.057,-0.293c0.45,-0.33 1.44,-1.327 1.838,-1.477c-0,-0.06 -0.038,-0.27 0.015,-0.488l-0.053,-0.015c-0.51,-0.735 -0.6,-1.807 -0.577,-2.407c-1.058,-0.098 -2.198,-1.05 -2.798,-1.815c-0.772,-0.053 -2.302,-0.705 -3.12,-2.363c-2.79,2.01 -4.612,5.58 -4.717,5.745c-0.06,0.053 -0.098,0.053 -0.15,0.015c-0.285,-0.562 -0.353,-1.41 -0.255,-1.672Zm-23.078,-0c0.54,-1.478 1.83,-3.51 3.233,-5.318c-0.533,-3.045 2.272,-4.05 3.36,-4.013c1.132,0.023 1.92,0.758 2.062,0.983c1.29,-1.523 2.978,-1.68 3.75,-1.717c5.468,-0.173 8.243,3.922 8.123,7.199c-0.143,3.736 -2.97,4.605 -3.353,4.718c0,0 -0.045,0.81 0.585,1.905c0.038,0.083 0.165,0.173 0.045,0.383c-0.022,0.045 -0.127,0.247 -0.157,0.285c-0.023,0.037 -0.075,0.15 -0.03,0.292c0.067,0.24 -0.023,0.533 -0.203,0.87c-0.135,0.3 0.023,1.058 0.098,1.575c0.015,0.105 -0.06,0.113 -0.128,0.038c-0.352,-0.225 -0.615,-0.923 -0.705,-1.313c-0.66,0.173 -1.425,1.148 -1.687,1.718c-0.023,0.082 -0.165,0.165 -0.188,-0.015c-0.007,-0.045 -0.142,-1.14 0.915,-1.943c-0.54,-0.172 -1.095,0.09 -1.477,0.3c-0.03,0.03 -0.188,0.098 -0.068,-0.075c0.023,-0.037 0.33,-0.735 1.748,-0.937c0.015,-0.053 0.315,-0.518 0.442,-0.878c-0.037,-0.532 -0.315,-1.2 -0.652,-1.822c-0.053,-0 -1.065,0.09 -1.778,0.637c-0.085,0.061 -0.135,0.158 -0.135,0.263l0,0.307c0.008,0.045 -0.052,0.323 -0.42,0.443c-0.03,0.03 -1.23,0.412 -1.8,0.682c-0.03,0.023 -0.54,0.248 -0.922,0.78c-0.083,0.083 -0.383,0.555 -0.818,0.698c-0.105,0.022 -0.345,0.135 -0.51,0.3c-0.172,0.172 -0.322,0.337 -0.465,0.427c-0.142,0.09 -0.465,0.443 -0.697,0.923c-0.038,0.067 -0.105,0.157 -0.113,-0c-0.015,-0.195 0.015,-0.45 0.008,-0.45c0.135,-0.608 0.412,-0.915 0.652,-1.178c-0.09,-0.03 -0.082,-0.007 -0.18,-0.06c-0.442,0.053 -1.807,-0.067 -2.632,0.33c-0.06,0.03 -0.128,0.023 -0.06,-0.067c0.15,-0.21 0.457,-1.005 2.31,-1.043c0.022,-0.172 -0.825,-0.592 -1.26,-0.592c-0.135,-0 -0.053,-0.075 -0,-0.098c0.097,-0.045 0.907,-0.397 1.875,0.233c0.037,-0.03 0.69,-0.263 1.065,-0.293c0.442,-0.33 1.432,-1.327 1.837,-1.477c-0.007,-0.06 -0.037,-0.27 0.008,-0.488l-0.045,-0.015c-0.518,-0.735 -0.6,-1.807 -0.578,-2.407c-1.057,-0.098 -2.197,-1.05 -2.805,-1.815c-0.765,-0.053 -2.302,-0.705 -3.12,-2.363c-2.79,2.01 -4.605,5.58 -4.71,5.745c-0.067,0.053 -0.105,0.053 -0.15,0.015c-0.307,-0.562 -0.375,-1.41 -0.27,-1.672Zm68.393,22.199c-0,8.333 -6.263,32.535 -34.778,44.625c-13.35,-5.654 -23.19,-14.325 -29.25,-25.77c-4.387,-8.287 -5.542,-15.952 -5.542,-18.855l-0,-14.902l0.037,-0c2.01,-0 3.99,0.517 5.738,1.492l0.232,0.12c3.39,2.003 7.838,2.003 11.213,0.008l0.165,-0.098l0.015,0.008c3.577,-2.025 8.227,-1.988 11.775,0.105l0.06,0.045c3.375,1.965 7.8,1.943 11.16,-0.038l0.105,-0.052c3.585,-2.077 8.287,-2.047 11.85,0.06c3.42,2.01 7.852,1.995 11.235,0c1.807,-1.065 3.87,-1.613 5.992,-1.613l0,14.865l-0.007,0Z" style="fill:#fff;fill-rule:nonzero;"/><path d="M99.09,45.825c0.165,0.127 1.095,2.55 3.24,2.685c0.24,0.18 1.313,1.972 3.217,1.793c0.023,0.202 0.023,1.927 0.346,2.489l0.082,0.105c-0.007,-0.052 0.015,-0.007 0.015,-0.007c0.15,-0.173 1.23,-0.953 2.123,-1.245c-0,-0 0.382,-1.185 0.645,-1.492c1.852,-0.428 2.812,-1.891 2.865,-3.308c0.037,-1.973 -1.725,-4.102 -3.705,-3.848c-0,0 -0.068,0 -0.008,-0.052c0.06,-0.158 0.63,-0.405 0.998,-0.428c-1.635,-0.652 -2.7,0.143 -2.67,0.053l-0.015,-0.053c-0,0 0.225,-0.375 0.757,-0.742c-1.515,-0 -2.287,0.81 -2.287,0.81l-0.008,-0.113c0,0 0.105,-0.307 0.585,-0.772c-1.71,0.052 -3.045,2.22 -3.045,2.22c0,-0 -0.3,-1.553 -1.785,-1.553c-1.087,-0.165 -3.525,1.328 -2.587,3.345c-0.435,0.81 -1.86,2.055 -3.083,4.583c-0.03,0.052 0.03,0.037 0,0.09c1.11,-1.568 2.7,-3.578 4.32,-4.56Zm-0.337,-1.403c0.247,0 0.457,0.203 0.457,0.458c0,0.249 -0.205,0.454 -0.454,0.454c-0.249,-0 -0.454,-0.205 -0.454,-0.454c0.001,-0.248 0.203,-0.458 0.451,-0.458Z" style="fill:#fff;fill-rule:nonzero;"/><g><path d="M55.853,182.625l2.01,0l-5.693,14.145l-0.443,0l-4.605,-11.453l-4.65,11.453l-0.435,0l-5.677,-14.145l2.032,0l3.886,9.712l3.907,-9.712l1.905,0l3.93,9.712l3.832,-9.712Zm7.913,8.512l0,3.946c0,0.315 0.105,0.472 0.323,0.472c0.217,0 0.57,-0.165 1.035,-0.495l-0,1.118c-0.42,0.269 -0.75,0.45 -1.005,0.547c-0.255,0.097 -0.518,0.143 -0.796,0.143c-0.787,-0 -1.252,-0.308 -1.395,-0.93c-0.779,0.607 -1.612,0.907 -2.489,0.907c-0.645,-0 -1.185,-0.21 -1.613,-0.638c-0.427,-0.427 -0.645,-0.959 -0.645,-1.605c0,-0.585 0.21,-1.11 0.63,-1.567c0.42,-0.458 1.02,-0.825 1.793,-1.095l2.347,-0.81l0,-0.495c0,-1.118 -0.555,-1.673 -1.673,-1.673c-0.997,0 -1.972,0.518 -2.925,1.553l0,-2.01c0.713,-0.84 1.74,-1.26 3.075,-1.26c0.998,-0 1.808,0.262 2.408,0.787c0.202,0.165 0.382,0.39 0.547,0.668c0.158,0.277 0.263,0.555 0.308,0.84c0.052,0.285 0.075,0.817 0.075,1.597Zm-1.808,3.743l0,-2.753l-1.23,0.473c-0.622,0.247 -1.065,0.502 -1.327,0.75c-0.255,0.255 -0.39,0.57 -0.39,0.945c0,0.382 0.12,0.697 0.367,0.937c0.248,0.24 0.563,0.36 0.953,0.36c0.592,0 1.133,-0.24 1.627,-0.712Zm5.738,-11.348c0.3,0 0.563,0.105 0.78,0.315c0.218,0.21 0.323,0.465 0.323,0.765c-0,0.293 -0.105,0.555 -0.323,0.765c-0.218,0.218 -0.472,0.323 -0.78,0.323c-0.285,0 -0.532,-0.113 -0.742,-0.33c-0.218,-0.217 -0.323,-0.472 -0.323,-0.765c-0,-0.285 0.105,-0.533 0.323,-0.75c0.217,-0.218 0.465,-0.323 0.742,-0.323Zm-0.907,3.9l1.837,0l0,9.278l-1.838,-0l0,-9.278Zm3.96,14.01l0,-14.01l3.21,0c1.643,0 2.925,0.413 3.84,1.23c0.915,0.818 1.373,1.965 1.373,3.443c-0,1.395 -0.435,2.535 -1.29,3.427c-0.863,0.893 -1.965,1.343 -3.3,1.343c-0.593,-0 -1.245,-0.128 -1.965,-0.39l-0,4.957l-1.868,0Zm3.173,-12.292l-1.298,-0l0,5.708c0.563,0.292 1.155,0.434 1.77,0.434c0.855,0 1.56,-0.299 2.108,-0.9c0.547,-0.6 0.817,-1.364 0.817,-2.309c0,-0.608 -0.127,-1.141 -0.389,-1.605c-0.256,-0.465 -0.608,-0.803 -1.058,-1.013c-0.442,-0.21 -1.095,-0.315 -1.95,-0.315Zm13.103,1.987l-0,3.946c-0,0.315 0.105,0.472 0.322,0.472c0.225,0 0.57,-0.165 1.043,-0.495l-0.001,1.118c-0.419,0.269 -0.749,0.45 -1.004,0.547c-0.255,0.097 -0.518,0.143 -0.795,0.143c-0.788,-0 -1.253,-0.308 -1.395,-0.93c-0.781,0.607 -1.613,0.907 -2.49,0.907c-0.645,-0 -1.185,-0.21 -1.613,-0.638c-0.427,-0.427 -0.645,-0.959 -0.645,-1.605c0,-0.585 0.21,-1.11 0.63,-1.567c0.42,-0.458 1.02,-0.825 1.793,-1.095l2.347,-0.81l0,-0.495c0,-1.118 -0.563,-1.673 -1.672,-1.673c-0.998,0 -1.981,0.518 -2.926,1.553l0,-2.01c0.713,-0.84 1.74,-1.26 3.075,-1.26c1.005,-0 1.808,0.262 2.408,0.787c0.202,0.165 0.382,0.39 0.547,0.668c0.158,0.277 0.263,0.555 0.308,0.84c0.045,0.285 0.067,0.817 0.067,1.597Zm-1.807,3.743l0,-2.753l-1.23,0.473c-0.622,0.247 -1.065,0.502 -1.328,0.75c-0.254,0.255 -0.389,0.57 -0.389,0.945c-0,0.382 0.12,0.697 0.367,0.937c0.248,0.24 0.563,0.36 0.953,0.36c0.584,0 1.132,-0.24 1.627,-0.712Zm4.47,6.562l0,-14.01l3.21,0c1.642,0 2.925,0.413 3.84,1.23c0.915,0.818 1.373,1.965 1.373,3.443c-0.001,1.395 -0.428,2.535 -1.298,3.427c-0.862,0.893 -1.965,1.343 -3.3,1.343c-0.593,-0 -1.245,-0.128 -1.965,-0.39l0,4.957l-1.86,0Zm3.172,-12.292l-1.297,-0l0,5.707c0.563,0.293 1.155,0.435 1.77,0.435c0.862,0 1.56,-0.3 2.108,-0.9c0.547,-0.6 0.817,-1.365 0.817,-2.31c0,-0.607 -0.127,-1.14 -0.39,-1.605c-0.255,-0.465 -0.615,-0.802 -1.057,-1.012c-0.443,-0.21 -1.095,-0.315 -1.95,-0.315Zm13.102,1.987l0,3.945c0,0.315 0.105,0.473 0.323,0.473c0.217,-0 0.57,-0.165 1.035,-0.495l-0,1.117c-0.413,0.27 -0.75,0.45 -1.005,0.548c-0.255,0.097 -0.518,0.142 -0.795,0.142c-0.788,0 -1.253,-0.307 -1.388,-0.93c-0.78,0.608 -1.612,0.908 -2.49,0.908c-0.645,-0 -1.185,-0.21 -1.612,-0.638c-0.428,-0.427 -0.645,-0.96 -0.645,-1.605c-0.001,-0.585 0.21,-1.11 0.629,-1.567c0.421,-0.458 1.02,-0.825 1.793,-1.095l2.347,-0.81l0,-0.495c0,-1.118 -0.555,-1.673 -1.672,-1.673c-1.005,0 -1.973,0.518 -2.925,1.553l-0,-2.01c0.712,-0.84 1.74,-1.26 3.075,-1.26c0.997,-0 1.807,0.262 2.407,0.787c0.203,0.165 0.383,0.39 0.548,0.668c0.165,0.277 0.262,0.555 0.307,0.84c0.045,0.285 0.068,0.817 0.068,1.597Zm-1.808,3.743l0.001,-2.753l-1.23,0.473c-0.623,0.247 -1.065,0.502 -1.328,0.75c-0.262,0.255 -0.39,0.57 -0.39,0.945c0,0.382 0.12,0.697 0.368,0.937c0.247,0.24 0.562,0.36 0.952,0.36c0.593,0 1.133,-0.24 1.628,-0.712Zm7.41,-12.278l11.767,0l0,1.793l-4.912,-0l-0,12.315l-2.025,-0l-0,-12.315l-4.83,-0l-0,-1.793Zm16.672,8.535l0,3.945c0,0.315 0.105,0.473 0.323,0.473c0.225,-0 0.57,-0.165 1.035,-0.495l-0,1.117c-0.413,0.27 -0.75,0.45 -1.006,0.548c-0.255,0.097 -0.517,0.142 -0.794,0.142c-0.788,0 -1.253,-0.307 -1.396,-0.93c-0.78,0.608 -1.612,0.908 -2.49,0.908c-0.645,-0 -1.185,-0.21 -1.612,-0.638c-0.428,-0.427 -0.645,-0.96 -0.645,-1.605c-0,-0.585 0.21,-1.11 0.63,-1.567c0.42,-0.458 1.012,-0.825 1.792,-1.095l2.348,-0.81l-0,-0.495c-0,-1.118 -0.555,-1.673 -1.673,-1.673c-1.005,0 -1.98,0.518 -2.925,1.553l0,-2.01c0.713,-0.84 1.74,-1.26 3.075,-1.26c1.005,-0 1.808,0.262 2.408,0.787c0.202,0.165 0.382,0.39 0.547,0.668c0.165,0.277 0.263,0.555 0.308,0.84c0.052,0.285 0.075,0.817 0.075,1.597Zm-1.807,3.743l-0,-2.753l-1.23,0.473c-0.623,0.247 -1.065,0.502 -1.328,0.75c-0.262,0.255 -0.39,0.57 -0.39,0.945c0,0.382 0.12,0.697 0.368,0.937c0.247,0.24 0.562,0.36 0.952,0.36c0.593,0 1.133,-0.24 1.628,-0.712Zm10.702,1.83l0,-1.193c-0.39,0.428 -0.832,0.758 -1.335,0.998c-0.502,0.24 -0.997,0.352 -1.5,0.352c-0.585,0 -1.125,-0.142 -1.62,-0.435c-0.495,-0.292 -0.87,-0.69 -1.117,-1.192c-0.255,-0.503 -0.375,-1.335 -0.375,-2.498l-0,-5.317l1.837,-0l0,5.287c0,0.975 0.135,1.65 0.42,2.04c0.278,0.383 0.765,0.578 1.47,0.578c0.878,-0 1.62,-0.428 2.228,-1.283l-0,-6.622l1.837,-0l0,9.277l-1.845,0l0,0.008Zm11.603,-6.735l-0,6.735l-1.845,-0l-0,-5.16c-0,-1.028 -0.135,-1.748 -0.413,-2.153c-0.277,-0.405 -0.757,-0.607 -1.44,-0.607c-0.382,-0 -0.735,0.09 -1.057,0.262c-0.315,0.173 -0.683,0.488 -1.095,0.93l-0,6.735l-1.838,0l0,-9.277l1.838,-0l-0,1.222c0.937,-0.937 1.852,-1.402 2.745,-1.402c1.177,-0 2.085,0.555 2.73,1.672c0.982,-1.132 2.01,-1.695 3.075,-1.695c0.9,0 1.642,0.33 2.22,0.99c0.585,0.66 0.87,1.665 0.87,3.015l-0,5.475l-1.838,0l0,-5.497c0,-0.773 -0.157,-1.365 -0.472,-1.778c-0.315,-0.412 -0.773,-0.615 -1.358,-0.615c-0.75,0 -1.462,0.383 -2.122,1.148Zm14.152,1.162l0,3.945c0,0.315 0.105,0.473 0.323,0.473c0.217,-0 0.57,-0.165 1.035,-0.495l-0,1.117c-0.413,0.27 -0.75,0.45 -1.005,0.548c-0.255,0.097 -0.518,0.142 -0.795,0.142c-0.788,0 -1.253,-0.307 -1.388,-0.93c-0.78,0.608 -1.612,0.908 -2.49,0.908c-0.645,-0 -1.185,-0.21 -1.612,-0.638c-0.428,-0.427 -0.645,-0.96 -0.645,-1.605c-0,-0.585 0.21,-1.11 0.63,-1.567c0.42,-0.458 1.02,-0.825 1.792,-1.095l2.348,-0.81l-0,-0.495c-0,-1.118 -0.555,-1.673 -1.673,-1.673c-1.005,0 -1.972,0.518 -2.925,1.553l0,-2.01c0.713,-0.84 1.74,-1.26 3.075,-1.26c0.998,-0 1.808,0.262 2.408,0.787c0.202,0.165 0.382,0.39 0.547,0.668c0.165,0.277 0.263,0.555 0.308,0.84c0.045,0.285 0.067,0.817 0.067,1.597Zm-1.807,3.743l-0,-2.753l-1.23,0.473c-0.623,0.247 -1.065,0.502 -1.328,0.75c-0.262,0.255 -0.39,0.57 -0.39,0.945c0,0.382 0.12,0.697 0.368,0.937c0.247,0.24 0.562,0.36 0.952,0.36c0.593,0 1.133,-0.24 1.628,-0.712Zm3.075,-5.978l3.45,-3.39l-0,1.913l2.932,-0l0,1.65l-2.932,-0l-0,4.537c-0,1.058 0.442,1.59 1.32,1.59c0.66,0 1.357,-0.217 2.085,-0.652l-0,1.717c-0.705,0.398 -1.478,0.593 -2.31,0.593c-0.84,-0 -1.538,-0.248 -2.1,-0.735c-0.173,-0.15 -0.323,-0.315 -0.435,-0.503c-0.113,-0.187 -0.21,-0.427 -0.285,-0.727c-0.075,-0.3 -0.113,-0.87 -0.113,-1.71l0,-4.118l-1.612,0l-0,-0.165Zm14.422,2.235l0,3.945c0,0.315 0.105,0.473 0.323,0.473c0.225,-0 0.57,-0.165 1.035,-0.495l-0,1.117c-0.413,0.27 -0.75,0.45 -1.005,0.548c-0.255,0.097 -0.518,0.142 -0.795,0.142c-0.788,0 -1.253,-0.307 -1.395,-0.93c-0.78,0.608 -1.613,0.908 -2.49,0.908c-0.645,-0 -1.185,-0.21 -1.613,-0.638c-0.427,-0.427 -0.645,-0.96 -0.645,-1.605c0,-0.585 0.21,-1.11 0.63,-1.567c0.42,-0.458 1.013,-0.825 1.793,-1.095l2.347,-0.81l0,-0.495c0,-1.118 -0.555,-1.673 -1.672,-1.673c-1.005,0 -1.98,0.518 -2.925,1.553l-0,-2.01c0.712,-0.84 1.74,-1.26 3.075,-1.26c1.005,-0 1.807,0.262 2.407,0.787c0.203,0.165 0.383,0.39 0.548,0.668c0.157,0.277 0.262,0.555 0.307,0.84c0.053,0.285 0.075,0.817 0.075,1.597Zm-1.807,3.743l-0,-2.753l-1.23,0.473c-0.623,0.247 -1.065,0.502 -1.328,0.75c-0.262,0.255 -0.39,0.57 -0.39,0.945c0,0.382 0.12,0.697 0.368,0.937c0.247,0.24 0.562,0.36 0.952,0.36c0.593,0 1.133,-0.24 1.628,-0.712Zm11.257,1.83l0,-14.085l3.533,-0c1.425,-0 2.557,0.352 3.39,1.057c0.84,0.705 1.252,1.658 1.252,2.865c0,0.818 -0.202,1.53 -0.615,2.13c-0.412,0.6 -0.997,1.043 -1.762,1.343c0.45,0.292 0.892,0.697 1.32,1.207c0.427,0.51 1.035,1.403 1.815,2.67c0.369,0.618 0.762,1.221 1.177,1.808l0.743,1.005l-2.4,-0l-0.615,-0.93c-0.023,-0.038 -0.06,-0.09 -0.12,-0.173l-0.39,-0.555l-0.623,-1.027l-0.675,-1.103c-0.42,-0.577 -0.795,-1.042 -1.147,-1.38c-0.345,-0.345 -0.66,-0.592 -0.938,-0.742c-0.277,-0.15 -0.75,-0.225 -1.41,-0.225l-0.525,-0l0,6.127l-2.01,0l0,0.008Zm2.618,-12.375l-0.608,-0l0,4.447l0.765,0c1.02,0 1.725,-0.09 2.108,-0.262c0.382,-0.173 0.675,-0.435 0.885,-0.795c0.21,-0.353 0.315,-0.758 0.315,-1.208c-0,-0.442 -0.12,-0.847 -0.353,-1.207c-0.232,-0.36 -0.562,-0.615 -0.99,-0.758c-0.427,-0.142 -1.132,-0.217 -2.122,-0.217Zm15.367,6.802l0,3.945c0,0.315 0.105,0.473 0.323,0.473c0.217,-0 0.57,-0.165 1.035,-0.495l-0,1.117c-0.42,0.27 -0.75,0.45 -1.005,0.548c-0.255,0.097 -0.518,0.142 -0.795,0.142c-0.788,0 -1.253,-0.307 -1.395,-0.93c-0.78,0.608 -1.613,0.908 -2.49,0.908c-0.645,-0 -1.185,-0.21 -1.613,-0.638c-0.427,-0.427 -0.645,-0.96 -0.645,-1.605c0,-0.585 0.21,-1.11 0.63,-1.567c0.42,-0.458 1.02,-0.825 1.793,-1.095l2.347,-0.81l0,-0.495c0,-1.118 -0.555,-1.673 -1.672,-1.673c-0.998,0 -1.973,0.518 -2.925,1.553l-0,-2.01c0.712,-0.84 1.74,-1.26 3.075,-1.26c0.997,-0 1.807,0.262 2.407,0.787c0.203,0.165 0.383,0.39 0.548,0.668c0.157,0.277 0.262,0.555 0.307,0.84c0.053,0.285 0.075,0.817 0.075,1.597Zm-1.8,3.743l0,-2.753l-1.23,0.473c-0.622,0.247 -1.065,0.502 -1.327,0.75c-0.255,0.255 -0.39,0.57 -0.39,0.945c-0,0.382 0.12,0.697 0.367,0.937c0.248,0.24 0.563,0.36 0.953,0.36c0.585,0 1.125,-0.24 1.627,-0.712Zm10.695,1.83l0,-1.193c-0.39,0.428 -0.832,0.758 -1.335,0.998c-0.502,0.24 -0.997,0.352 -1.5,0.352c-0.585,0 -1.125,-0.142 -1.62,-0.435c-0.495,-0.292 -0.87,-0.69 -1.117,-1.192c-0.255,-0.503 -0.383,-1.335 -0.383,-2.498l0,-5.317l1.838,-0l-0,5.287c-0,0.975 0.142,1.65 0.42,2.04c0.277,0.383 0.765,0.578 1.47,0.578c0.877,-0 1.62,-0.428 2.227,-1.283l0,-6.622l1.838,-0l-0,9.277l-1.838,0l0,0.008Z" style="fill:#fff;fill-rule:nonzero;"/></g><g><path d="M44.55,217.56l-5.685,-6.675l-1.62,0l-0,9.563l1.807,-0l0,-6.78l5.715,6.78l1.59,-0l0,-9.563l-1.807,0l-0,6.675Zm13.32,-1.268l4.155,0l-0,-1.447l-4.155,-0l-0,-2.513l4.335,0l-0,-1.447l-6.18,-0l-0,9.562l6.277,0l0,-1.44l-4.432,0l-0,-2.715Zm23.602,0.518l-2.52,-5.925l-1.56,0l-2.505,5.903l-2.377,-5.903l-1.913,0l3.945,9.69l0.6,0l3.023,-7.095l3.015,7.095l0.622,0l3.938,-9.69l-1.89,0l-2.378,5.925Zm32.273,-5.925l-8.408,0l0,1.448l5.228,-0l-5.565,8.114l8.775,0l-0,-1.44l-5.603,0l5.573,-8.122Zm10.852,5.407l4.148,0l-0,-1.447l-4.148,-0l0,-2.513l4.328,0l-0,-1.447l-6.18,-0l-0,9.562l6.277,0l0,-1.44l-4.425,0l0,-2.715Zm16.68,-5.407l-3.945,9.563l1.935,-0l0.923,-2.325l4.252,-0l0.99,2.325l1.95,-0l-4.222,-9.563l-1.883,0Zm-0.525,5.835l1.471,-3.788l1.612,3.788l-3.083,-0Zm17.176,-5.835l-1.846,0l0,9.563l6.488,-0l0,-1.44l-4.642,-0l-0,-8.123Zm16.432,0l-3.945,9.563l1.935,-0l0.923,-2.325l4.252,-0l0.99,2.325l1.95,-0l-4.215,-9.563l-1.89,0Zm-0.518,5.835l1.47,-3.788l1.613,3.788l-3.083,-0Zm22.628,0.84l-5.685,-6.675l-1.62,0l-0,9.563l1.807,-0l0,-6.78l5.715,6.78l1.59,-0l0,-9.563l-1.807,0l-0,6.675Zm18.135,-6.06c-0.773,-0.405 -1.658,-0.608 -2.655,-0.608l-4.005,0l-0,9.563l3.892,0c1.028,0 1.935,-0.195 2.73,-0.593c0.795,-0.397 1.41,-0.959 1.838,-1.68c0.435,-0.72 0.645,-1.552 0.645,-2.489c-0,-0.916 -0.218,-1.74 -0.645,-2.476c-0.42,-0.742 -1.02,-1.312 -1.8,-1.717Zm-0.382,6.585c-0.615,0.615 -1.441,0.923 -2.46,0.923l-1.965,-0l-0,-6.675l1.905,-0c1.05,-0 1.89,0.3 2.512,0.9c0.623,0.6 0.938,1.41 0.938,2.445c-0,0.99 -0.315,1.792 -0.93,2.407Z" style="fill:#fff;fill-rule:nonzero;"/></g></svg>