<?xml version="1.0" encoding="UTF-8" standalone="no"?><!DOCTYPE svg PUBLIC "-//W3C//DTD SVG 1.1//EN" "http://www.w3.org/Graphics/SVG/1.1/DTD/svg11.dtd"><svg width="100%" height="100%" viewBox="0 0 128 116" version="1.1" xmlns="http://www.w3.org/2000/svg" xmlns:xlink="http://www.w3.org/1999/xlink" xml:space="preserve" xmlns:serif="http://www.serif.com/" style="fill-rule:evenodd;clip-rule:evenodd;"><path d="M0,0l127.5,0l0,109.217c0,3.314 -2.686,6 -6,6l-115.5,0c-3.314,0 -6,-2.686 -6,-6l0,-109.217Z" style="fill:#fff;fill-rule:nonzero;"/><g><path d="M50.112,21.037c-3.047,0.048 -3.845,1.174 -3.889,3.797l-0.19,15.051c-0.093,6.844 -2.951,13.736 -13.267,13.736c-8.673,0 -15.283,-3.751 -15.283,-13.781l0,-15.006c0,-2.623 -0.845,-3.749 -3.893,-3.797l0,-1.408c3.752,0.141 5.343,0.141 6.844,0.141c1.501,0 3.106,0 6.848,-0.141l-0,1.408c-3.048,0.048 -3.894,1.174 -3.894,3.797l0,16.176c0,7.034 4.456,10.83 9.706,10.83c8.159,0 11.065,-5.253 11.065,-13.408c-0,-2.627 -0.049,-4.487 -0.094,-6.558l-0.141,-6.799c-0.048,-2.813 -0.656,-4.031 -4.08,-4.031l0,-1.408c1.726,0.048 3.611,0.141 5.064,0.141c1.453,0 3.378,-0.093 5.204,-0.141l0,1.401Z" style="fill:#c01;fill-rule:nonzero;"/><path d="M82.559,30.042l-1.222,0c-1.035,-6.751 -6.751,-9.236 -12.376,-9.236c-6.237,0 -12.284,4.922 -12.284,14.02c0,8.814 5.063,16.832 13.174,16.832c3.517,-0 9.005,-2.071 13.036,-8.442l0.02,5.522c-3.903,3.289 -9.539,4.873 -14.554,4.873c-16.221,0 -18.616,-12.563 -18.616,-17.674c-0,-7.593 5.394,-16.912 19.976,-16.912c2.951,0 8.391,0.843 12.846,2.627l-0,8.39Z" style="fill:#c01;fill-rule:nonzero;"/><path d="M107.47,22.912l-0,-0.024c-0.049,-0.145 -0.231,-0.901 0.931,-1.06c0.145,-0.284 0.342,-0.538 0.58,-0.749c0.221,0.241 0.406,0.512 0.553,0.804c0.254,0.047 0.486,0.176 0.66,0.367c0.174,0.192 0.28,0.435 0.303,0.693c-0,-0 -0.587,-0.345 -0.725,0.093l0.062,1.481l1.405,-0c0.093,-0.078 0.162,-0.182 0.195,-0.299c0.034,-0.117 0.032,-0.241 -0.006,-0.357c0,-0 0.922,-0.425 0.974,0.956c0.293,0.116 0.567,0.276 0.811,0.476c-0.214,0.29 -0.517,0.502 -0.863,0.604c0,0 -0.11,0.991 -0.973,0.936c-0,-0 0.293,-0.539 -0.128,-0.711l-1.477,-0l-0,1.466c0.026,0.053 0.064,0.1 0.109,0.138c0.045,0.039 0.098,0.068 0.155,0.086c0.056,0.018 0.115,0.024 0.174,0.019c0.06,-0.005 0.117,-0.022 0.169,-0.049c0,-0 0.449,0.962 -0.825,0.962c-0.135,0.317 -0.329,0.606 -0.573,0.85c-0.262,-0.248 -0.462,-0.555 -0.583,-0.894c0,-0 -0.922,-0.076 -0.935,-0.932c0,-0 0.496,0.186 0.721,-0.169l-0.066,-1.467l-1.411,-0c-0.058,0.032 -0.109,0.077 -0.149,0.131c-0.04,0.054 -0.068,0.115 -0.081,0.181c-0.014,0.065 -0.014,0.133 0.001,0.198c0.015,0.066 0.044,0.127 0.084,0.18c0,0 -0.956,0.314 -1.035,-0.914c-0.303,-0.14 -0.576,-0.335 -0.805,-0.577c0.246,-0.246 0.538,-0.439 0.86,-0.569c0,-0 0.127,-0.97 0.99,-0.96c0,0 -0.311,0.583 0.121,0.722l1.488,-0l-0,-1.478c-0.032,-0.061 -0.079,-0.115 -0.134,-0.156c-0.057,-0.041 -0.121,-0.069 -0.189,-0.082c-0.069,-0.013 -0.139,-0.011 -0.206,0.007c-0.067,0.018 -0.13,0.051 -0.182,0.097Zm1.035,-0.062l-0,2.012l-2.012,-0c-0.108,-0.047 -0.201,-0.124 -0.268,-0.222c-0.067,-0.098 -0.104,-0.212 -0.108,-0.33c-0.099,0.097 -0.176,0.215 -0.227,0.344c-0.051,0.13 -0.073,0.269 -0.066,0.408c-0.127,-0.004 -0.253,0.017 -0.372,0.062c-0.118,0.045 -0.227,0.113 -0.319,0.2c0.179,0.164 0.41,0.259 0.652,0.269c0.032,0.905 0.345,0.874 0.345,0.874c-0.11,-0.397 0.346,-0.691 0.346,-0.691l1.998,0l0,1.978c-0.064,0.101 -0.149,0.187 -0.249,0.253c-0.1,0.066 -0.213,0.111 -0.331,0.13c0.097,0.245 0.742,0.345 0.742,0.345c-0.004,0.135 0.026,0.268 0.086,0.389c0.06,0.12 0.15,0.224 0.259,0.302c0.18,-0.118 0.242,-0.715 0.242,-0.715c0.711,0.155 0.867,-0.304 0.867,-0.304c-0.141,-0 -0.278,-0.037 -0.4,-0.108c-0.12,-0.07 -0.221,-0.171 -0.291,-0.292l-0,-1.953l1.978,-0c0.317,0.086 0.404,0.6 0.404,0.6c0.187,-0.24 0.293,-0.534 0.303,-0.839c0.116,0.006 0.232,-0.012 0.341,-0.051c0.109,-0.04 0.209,-0.101 0.294,-0.18c-0.08,-0.093 -0.179,-0.168 -0.29,-0.22c-0.111,-0.052 -0.233,-0.081 -0.355,-0.084c0.08,-0.728 -0.283,-0.9 -0.283,-0.9c-0.006,0.139 -0.039,0.276 -0.099,0.402c-0.059,0.126 -0.143,0.239 -0.246,0.333l-2.043,-0l-0,-2.037c0.075,-0.097 0.17,-0.178 0.278,-0.237c0.108,-0.06 0.227,-0.096 0.349,-0.108c-0.234,-0.176 -0.52,-0.273 -0.814,-0.276c0.002,-0.24 -0.086,-0.472 -0.245,-0.652c-0.166,0.183 -0.271,0.414 -0.3,0.659c-0.66,-0.141 -0.852,0.249 -0.852,0.249c0.137,-0.001 0.272,0.034 0.39,0.103c0.12,0.068 0.218,0.167 0.286,0.287l0.01,-0Z" style="fill:#c01;fill-rule:nonzero;"/><path d="M86.02,22.914l1.557,-1.557l2.343,2.344l2.35,-2.344l1.629,1.629l-2.905,2.761l-0,3.797l-2.21,0l0,-3.797l-2.764,-2.833Zm3.065,2.682l0,3.579l1.597,-0l0.001,-3.603l2.626,-2.599l-1.073,-1.132l-2.334,2.329l-2.367,-2.371l-1.063,1.101l2.613,2.696Z" style="fill:#c01;fill-rule:nonzero;"/><path d="M89.581,24.393l0.61,-0l-0.134,0.535l0.403,-0.201l0,0.67l-0.345,-0.135l0,1.008c-0.04,0.128 -0.109,0.246 -0.2,0.345c-0.065,0 -0.134,-0.134 -0.2,-0.345l0,-1.008l-0.404,0.135l0,-0.67l0.404,0.201l-0.134,-0.535Z" style="fill:#c01;fill-rule:nonzero;"/><path d="M89.51,26.871l0.68,0l-0.135,0.469l0.404,-0.134l0,0.604l-0.404,-0.135l0,1.074c-0.066,0.203 -0.135,0.269 -0.2,0.269c-0.099,-0.061 -0.172,-0.157 -0.204,-0.269l0,-1.074l-0.345,0.135l0,-0.604l0.404,0.134l-0.2,-0.469Z" style="fill:#c01;fill-rule:nonzero;"/><path d="M87.109,22.984l0.468,-0.469l0.27,0.4l0.135,-0.4l0.469,0.469l-0.404,0.135l0.804,0.804c0.043,0.006 0.084,0.024 0.118,0.052c0.033,0.028 0.057,0.065 0.072,0.106c0.013,0.041 0.015,0.086 0.005,0.128c-0.01,0.042 -0.032,0.081 -0.062,0.112c-0.031,0.031 -0.07,0.052 -0.112,0.062c-0.043,0.011 -0.087,0.008 -0.128,-0.005c-0.042,-0.014 -0.078,-0.039 -0.106,-0.072c-0.029,-0.034 -0.047,-0.074 -0.053,-0.117l-0.807,-0.736l-0.132,0.346l-0.468,-0.47l0.399,-0.134l-0.468,-0.201l-0,-0.01Z" style="fill:#c01;fill-rule:nonzero;"/><path d="M92.205,22.446l0.469,0.469l-0.404,0.27l0.404,0.134l-0.469,0.48l-0.204,-0.345l-0.735,0.804c-0.131,0.04 -0.267,0.062 -0.404,0.065c0.005,-0.118 0.028,-0.234 0.069,-0.345l0.804,-0.804l-0.345,-0.2l0.4,-0.469l0.2,0.4l0.204,-0.469l0.011,0.01Z" style="fill:#c01;fill-rule:nonzero;"/><path d="M91.61,43.547c0.201,0.031 0.936,0.252 0.936,0.252c0.059,-0.09 0.59,-0.632 0.59,-0.632c-0.124,-0.069 -0.842,-0.317 -0.842,-0.317c-0.079,0.069 -0.684,0.697 -0.684,0.697Z" style="fill:#c01;fill-rule:nonzero;"/><path d="M107.754,44.024l-0.276,0.28l0.276,0.276l0.276,-0.276l-0.276,-0.28Z" style="fill:#c01;fill-rule:nonzero;"/><path d="M105.889,42.961l-0.276,0.276l-0.28,-0.276l0.28,-0.273l0.276,0.273Z" style="fill:#c01;fill-rule:nonzero;"/><path d="M107.239,43.637l-0.57,0.556l-0.556,-0.559l0.573,-0.573l0.553,0.576Zm-0.564,-0.107l-0.099,0.093l0.099,0.1l0.111,-0.093l-0.111,-0.1Z" style="fill:#c01;fill-rule:nonzero;"/><path d="M95.144,39.157c-0.015,-0.009 -0.027,-0.023 -0.034,-0.038c-0.008,-0.016 -0.011,-0.034 -0.011,-0.051c0.002,0.01 0.002,0.02 0,0.031c-0.023,0.061 -0.028,0.128 -0.015,0.192c0.014,0.064 0.045,0.123 0.091,0.17l0.118,-0.121l0.117,-0.117c-0.002,-0.015 -0.002,-0.03 -0,-0.045c0.016,-0.03 0.027,-0.063 0.03,-0.098c0.003,-0.034 -0.002,-0.069 -0.013,-0.101c-0.012,-0.033 -0.03,-0.063 -0.053,-0.088c-0.024,-0.025 -0.053,-0.045 -0.085,-0.058l-0.073,0.148l-0.072,0.176Z" style="fill:#c01;fill-rule:nonzero;"/><path d="M113.793,31.564c0.065,20.046 -14.213,22.927 -14.213,22.927c-0,0 -14.213,-3.016 -14.213,-22.927l0,-11.531l28.426,0l-0,11.531Zm-27.821,-10.961l-0,10.492c-0,-0 0.945,0.766 1.725,0.738c-0,0 0.604,0.2 1.587,-0.831c0,-0 0.874,-1.019 1.847,-1.012c-0,0 0.573,-0.172 1.96,0.836c0,-0 0.963,1.035 2.133,1.035c0,-0 1.018,0.069 2.151,-0.994c-0,-0 0.959,-0.88 2.07,-0.904c0.001,-0 0.832,-0.156 2.144,0.932c0,-0 0.976,0.969 2.15,0.966c0.404,-0.03 0.798,-0.145 1.155,-0.338c0.357,-0.192 0.669,-0.458 0.916,-0.78c0,-0 0.956,-0.956 1.964,-0.932c0.743,0.046 1.44,0.381 1.943,0.932c-0,-0 1.108,1.187 1.963,1.083c0,0 1.012,0 1.491,-0.738l0,-10.458l-27.199,-0.027Zm13.425,11.306l-0.293,0l-0,2.934l0.293,-0l-0,-2.934Zm0.632,0l-0.294,0l-0,2.934l0.307,-0l-0.013,-2.934Zm0.304,-0.272c0.058,-0.117 0.088,-0.246 0.089,-0.377c-0.014,-0.213 -0.108,-0.414 -0.264,-0.56c-0.156,-0.146 -0.362,-0.228 -0.576,-0.228c-0.215,0 -0.42,0.082 -0.576,0.228c-0.157,0.146 -0.251,0.347 -0.265,0.56c0.001,0.13 0.03,0.257 0.087,0.373l0.569,0c-0.066,-0.033 -0.121,-0.083 -0.162,-0.145c-0.039,-0.061 -0.062,-0.133 -0.066,-0.206c-0.002,-0.074 0.014,-0.147 0.048,-0.212c0.034,-0.065 0.085,-0.12 0.148,-0.159c0.062,-0.038 0.134,-0.06 0.208,-0.062c0.073,-0.002 0.146,0.016 0.211,0.052c0.064,0.035 0.117,0.087 0.156,0.151c0.037,0.063 0.057,0.135 0.057,0.208c0.001,0.078 -0.021,0.155 -0.063,0.221c-0.041,0.066 -0.101,0.119 -0.171,0.152l0.57,0.004Zm-3.87,13.636l0.001,1.139l6.778,-0c0,-0 0.566,2.499 2.071,2.695l-0,-1.083c-0,-0 -0.425,0.103 -0.729,-0.673l-0.4,-1.15c0,0 1.691,-0.586 2.558,-1.505l-0.994,-0.569c-0.57,0.418 -1.194,0.754 -1.857,0.997l-0.397,-1.263l-1.001,0.214l0.383,1.194l-6.412,0.004Zm1.139,1.415l-0,0.386l2.278,0l-0,-0.393l-2.278,0.007Zm-1.077,-0.031l-0,2.309l5.176,-0c0,-0 0.277,-0.017 0.267,-0.262c-0,-0 0.045,-0.183 -0.218,-0.442l-1.519,-1.616l0,0.774l-2.95,-0l-0,-0.756l-0.756,-0.007Zm-0.804,2.654l-0,0.373l7.996,-0l-2.781,-3.031l-0.204,0l1.38,1.495c0.091,0.109 0.153,0.24 0.178,0.379c0.026,0.14 0.016,0.284 -0.029,0.418c-0,0 -0.107,0.328 -0.629,0.362l-5.911,0.004Zm11.955,-4.38c0.814,0.345 1.053,-0.079 1.053,-0.079c0.313,-0.573 -0.38,-1.005 -0.38,-1.005l-2.671,-1.535c-0.749,-0.211 -0.943,0.241 -0.943,0.241c-0.071,0.159 -0.082,0.339 -0.031,0.506c0.05,0.167 0.159,0.31 0.308,0.402l2.664,1.47Zm-11.493,1.187l-0,-0.883c-0.942,-0.454 -1.907,-0.858 -2.892,-1.211c-0,-0 0.397,-0.477 0.532,-0.611c1.006,0.444 1.968,0.983 2.871,1.611l1.118,0c-2.293,-1.816 -5.01,-3.019 -7.897,-3.496c0,0 -0.296,-0.076 -0.4,0.307c-0.017,0.091 0.001,0.185 0.051,0.263c0.048,0.078 0.126,0.135 0.215,0.158c0.585,0.084 1.162,0.214 1.726,0.39l-0.746,0.763c0,0 -1.094,-0.207 -1.674,-0.276c-0.103,-0.003 -0.205,0.036 -0.28,0.107c-0.075,0.071 -0.12,0.169 -0.123,0.273c-0,-0 -0.045,0.328 0.22,0.421c0.014,-0 3.911,0.183 7.279,2.184Zm-1.035,-8.873c0.118,-0.096 0.262,-0.157 0.413,-0.174c0.152,-0.018 0.305,0.008 0.443,0.074c0.071,-0.017 0.144,-0.017 0.216,0c0.07,0.018 0.136,0.052 0.191,0.1c-0.028,-0.121 -0.026,-0.247 0.007,-0.368c0.031,-0.12 0.092,-0.23 0.176,-0.322c-0.018,0.055 -0.025,0.113 -0.019,0.17c0.006,0.058 0.024,0.113 0.053,0.163c0.029,0.05 0.069,0.093 0.116,0.127c0.046,0.033 0.1,0.057 0.157,0.068c-0.449,0.29 -0,0.511 -0,0.511c-0.486,0.293 -0.038,0.517 -0.038,0.517c-0.345,0.304 0.08,0.345 0.08,0.345c-0.132,0.691 0.345,0.874 0.345,0.874c-0.055,0.019 -0.115,0.019 -0.17,-0c0.125,0.734 0.125,1.484 0,2.219c0.023,0.049 0.034,0.102 0.034,0.155c-0,0.054 -0.011,0.107 -0.034,0.155c0.101,0.28 -0.214,0.29 -0.214,0.29c-0.06,0.163 -0.145,0.315 -0.252,0.453l0.118,0.155l0.269,-0.345l0.069,0.065l-0.204,0.404l0.345,-0.069c0.097,-0.036 0.181,-0.1 0.243,-0.183c0.061,-0.084 0.096,-0.183 0.102,-0.286c-0.183,-0.556 0.135,-0.735 0.135,-0.735c-0.245,-0.774 0.104,-2.416 0.104,-2.416c0.511,-0.056 0.241,-0.656 0.241,-0.656c0.366,-0.197 0.087,-0.604 0.087,-0.604c0.307,-0.169 0.083,-0.604 0.083,-0.604c0.31,-0.211 0.127,-0.715 0.127,-0.715c0.345,-0.141 0.097,-0.576 0.097,-0.576c0.283,-0.183 0,-0.673 0,-0.673c0.252,0.083 0.345,-0.345 0.345,-0.345l0,-3.279c-0.116,0.011 -0.229,0.047 -0.329,0.107c-0.101,0.06 -0.186,0.141 -0.251,0.238c-0.135,-0.001 -0.268,0.042 -0.377,0.122c-0.109,0.081 -0.19,0.194 -0.23,0.324c-0.15,0.004 -0.294,0.058 -0.409,0.155c-0.115,0.096 -0.193,0.229 -0.223,0.376c-0.49,0 -0.49,0.604 -0.49,0.604c-0.113,0.023 -0.212,0.088 -0.276,0.183c-0.065,0.095 -0.089,0.211 -0.069,0.324c-0.092,0.054 -0.17,0.129 -0.227,0.219c-0.056,0.09 -0.09,0.193 -0.098,0.299c-0.321,0.142 -0.321,0.59 -0.321,0.59c-0.393,0.111 -0.255,0.546 -0.255,0.546c-0.293,0.127 -0.179,0.576 -0.179,0.576c-0.087,0.072 -0.157,0.163 -0.206,0.265c-0.048,0.101 -0.075,0.212 -0.078,0.325c0.127,0.08 0.249,0.169 0.363,0.266l-0.01,-0.014Zm-0.422,0.69c0.308,0.587 0.691,0.563 0.691,0.563c0.141,0.023 0.287,0.008 0.42,-0.044c0.134,-0.052 0.251,-0.14 0.339,-0.253c0.074,-0.094 0.119,-0.208 0.129,-0.328c0.01,-0.12 -0.016,-0.24 -0.073,-0.345c-0.114,-0.21 -0.252,0.041 -0.252,0.041c-0.183,0.549 -0.408,0.522 -0.408,0.522c-0.31,0.124 -0.535,-0.411 -0.535,-0.411c-0.074,-0.156 -0.191,-0.287 -0.338,-0.376c-0.147,-0.09 -0.318,-0.134 -0.49,-0.128c0.228,0.206 0.409,0.459 0.528,0.742l-0.011,0.017Zm0.042,1.036c-0.015,0.099 -0.05,0.194 -0.104,0.279c0.138,0.066 0.261,0.157 0.363,0.27c0.102,0.114 0.181,0.246 0.231,0.389c0.325,0.673 0.618,0.463 0.618,0.463l-0.135,-0.211c-0.033,-0.036 -0.052,-0.083 -0.052,-0.132c0,-0.05 0.019,-0.097 0.052,-0.133c0.125,-0.097 0.266,0.041 0.266,0.041c-0.279,-0.632 0.193,-0.77 0.193,-0.77c0.023,-0.207 -0.015,-0.417 -0.11,-0.604c-0.139,0.082 -0.293,0.133 -0.453,0.152c-0.16,0.019 -0.322,0.005 -0.476,-0.041c-0.1,0.133 -0.232,0.239 -0.383,0.311l-0.01,-0.014Zm0.49,-1.474l0.138,0.252c0,-0 0.073,0.155 0.214,-0c0.091,-0.116 0.159,-0.25 0.197,-0.394c0,0 -0.172,-0.096 -0.538,0.142l-0.011,-0Zm-1.122,0.114c-0.172,-0.155 -0.4,-0.236 -0.631,-0.224c0.167,0.184 0.318,0.383 0.452,0.593c-0,0 0.107,-0.317 0.19,-0.376l-0.011,0.007Zm2.234,1.726c-0.044,0.038 -0.091,0.072 -0.142,0.1c-0.04,0.041 -0.062,0.096 -0.062,0.153c-0,0.058 0.022,0.113 0.062,0.154c-0,-0 0.293,0.476 0.041,0.69c0.117,0.495 0.117,1.01 0,1.505c-0.089,0.2 -0.146,0.413 -0.169,0.631l0.156,-0.283l0.096,0l-0.066,0.346l0.207,-0.049c0.092,-0.161 0.153,-0.338 0.183,-0.521c0,0 -0.048,-0.293 0.146,-0.345c-0.031,-0.053 -0.047,-0.112 -0.047,-0.173c0,-0.06 0.016,-0.12 0.047,-0.172c-0,-0 0.265,-0.632 -0.028,-2.071c-0.06,0.042 -0.13,0.067 -0.203,0.072c-0.074,0.005 -0.146,-0.01 -0.211,-0.044l-0.01,0.007Zm-0,-0.729c-0,0 0.054,0.294 0.054,0.38l0.069,0.083l0.114,-0l0,-0.321l-0.237,-0.142Zm5.463,4.235l0.538,-0.345l0.038,0.072c-0.156,0.109 -0.3,0.235 -0.428,0.377c0,-0 0.09,0.069 0.659,-0.114c0.12,-0.037 0.224,-0.111 0.297,-0.211c0,0 0.111,-0.076 0,-0.245c-0.059,-0.081 -0.09,-0.179 -0.09,-0.279c0.039,0.012 0.081,0.012 0.121,0.002c0.04,-0.01 0.076,-0.031 0.104,-0.061c-0,-0 0.042,-0 0.1,-0.124c-0.008,-0.065 0,-0.131 0.025,-0.192c0.025,-0.06 0.065,-0.113 0.117,-0.153c-0,-0 -0.101,-2.247 0.044,-2.416c0,-0 0.09,-0.463 -0.279,-0.546c0,0 0.428,-0.397 0.059,-0.559c-0,0 0.444,-0.417 -0.066,-0.587c-0,0 0.545,-0.383 0.18,-0.711c0.073,-0.094 0.108,-0.213 0.099,-0.332c-0.01,-0.12 -0.063,-0.231 -0.151,-0.313c-0,0 0.131,-0.566 -0.221,-0.625c-0,0 0.286,-0.397 -0.052,-0.497c-0,0 0.196,-0.545 -0.194,-0.714c0,-0 0.429,0.024 0.522,0.59c-0,0 0.293,0.142 0.086,0.511c0.091,0.08 0.157,0.184 0.187,0.301c0.032,0.117 0.028,0.24 -0.011,0.355c0.075,0.096 0.122,0.212 0.136,0.334c0.013,0.122 -0.008,0.245 -0.06,0.356c-0,-0 0.301,0.469 -0.128,0.714c0.072,0.074 0.116,0.171 0.123,0.274c0.008,0.103 -0.021,0.205 -0.081,0.289c0.033,0.038 0.058,0.083 0.074,0.131c0.016,0.048 0.022,0.098 0.018,0.149c-0.004,0.05 -0.018,0.099 -0.041,0.144c-0.023,0.045 -0.054,0.085 -0.093,0.118c0.042,0.082 0.064,0.173 0.064,0.266c0,0.092 -0.022,0.183 -0.064,0.265c0,0 0.438,0.363 0.774,0.08c0.072,-0.085 0.12,-0.188 0.141,-0.297c0.021,-0.11 0.012,-0.223 -0.024,-0.328c-0,0 0.21,-0.2 0.093,-0.387c0.032,-0.054 0.044,-0.118 0.035,-0.181c-0.01,-0.063 -0.041,-0.121 -0.087,-0.164c0.061,-0.101 0.085,-0.22 0.07,-0.337c-0.015,-0.117 -0.069,-0.225 -0.153,-0.308c0.027,-0.11 0.028,-0.224 0.005,-0.334c-0.023,-0.111 -0.071,-0.215 -0.139,-0.305c0.023,-0.102 0.018,-0.209 -0.016,-0.308c-0.035,-0.1 -0.096,-0.188 -0.177,-0.254c-0,-0 0.117,-0.473 -0.17,-0.673c0.006,-0.106 -0.013,-0.212 -0.058,-0.309c-0.043,-0.097 -0.11,-0.181 -0.194,-0.247c0.003,-0.133 -0.032,-0.264 -0.102,-0.377c-0.07,-0.113 -0.171,-0.204 -0.291,-0.261c-0.013,-0.121 -0.061,-0.235 -0.14,-0.328c-0.078,-0.092 -0.182,-0.16 -0.299,-0.193c-0.024,-0.107 -0.081,-0.204 -0.162,-0.278c-0.081,-0.074 -0.181,-0.123 -0.289,-0.14c0.005,-0.088 -0.02,-0.175 -0.073,-0.246c-0.052,-0.071 -0.128,-0.12 -0.214,-0.141c0,0 -0.048,-0.397 -0.621,-0.362c-0.036,-0.095 -0.097,-0.178 -0.177,-0.239c-0.081,-0.061 -0.178,-0.098 -0.279,-0.106c-0.054,-0.06 -0.122,-0.107 -0.197,-0.135c-0.076,-0.029 -0.157,-0.04 -0.238,-0.031l-0.148,-0.103l-0,3.244c-0,-0 -0,0.1 -0.069,0.11c-0,0 -0.028,0.48 0.283,0.604c-0.044,0.093 -0.057,0.196 -0.036,0.296c0.019,0.1 0.071,0.191 0.147,0.26c-0,0 -0.094,0.469 0.175,0.639c0,-0 -0.134,0.386 0.111,0.538c-0.034,0.113 -0.034,0.234 -0.004,0.347c0.032,0.114 0.094,0.218 0.18,0.298c-0,0 -0,0.387 0.328,0.439c0,-0 0.21,0.434 0.563,0.345c-0,-0 0.396,0.269 0.093,2.612c-0.087,0.041 -0.155,0.111 -0.193,0.198c-0.039,0.087 -0.045,0.184 -0.018,0.275c-0,0 -0.207,0.125 -0.321,0.649l0.066,0l0.49,-0.428c-0.047,-0.08 -0.063,-0.174 -0.043,-0.265c0.019,-0.091 0.071,-0.171 0.146,-0.225c0.029,-0.167 0.083,-0.328 0.159,-0.48c0.128,-0.695 0.134,-1.408 0.017,-2.105c-0.053,-0.073 -0.086,-0.159 -0.096,-0.248c-0.146,-0.046 -0.269,-0.144 -0.345,-0.277c-0.12,-0.012 -0.231,-0.066 -0.316,-0.151c-0.084,-0.086 -0.137,-0.198 -0.147,-0.318c-0.259,-0.121 -0.235,-0.473 -0.235,-0.473c-0.345,-0.193 -0.148,-0.645 -0.148,-0.645c-0.279,-0.152 -0.204,-0.666 -0.204,-0.666c-0.276,-0.176 -0.127,-0.553 -0.127,-0.553c-0.218,-0.1 -0.131,-0.472 -0.131,-0.472c-0.287,-0.301 -0.045,-0.791 -0.045,-0.791c-0.019,0.141 0.003,0.284 0.065,0.412c0.061,0.128 0.158,0.236 0.28,0.31c-0.156,0.252 0.11,0.49 0.11,0.49c-0.176,0.317 0.18,0.531 0.18,0.531c-0.047,0.117 -0.058,0.245 -0.032,0.368c0.027,0.123 0.09,0.235 0.18,0.322c-0.19,0.428 0.165,0.542 0.165,0.542c-0.138,0.314 0.239,0.48 0.239,0.48c-0.114,0.39 0.39,0.4 0.39,0.4c-0.086,0.228 0.345,0.477 0.345,0.477c-0.038,0.016 -0.079,0.026 -0.121,0.031c0.086,0.094 0.202,0.156 0.328,0.172c0.064,0.728 0.064,1.461 -0,2.188c-0,0 -0.083,0.346 -0.11,0.408c-0.014,0.05 -0.014,0.102 -0,0.152c-0.024,0.042 -0.058,0.078 -0.099,0.104c-0.041,0.027 -0.087,0.043 -0.136,0.047c-0.044,0.031 -0.081,0.071 -0.109,0.116c-0.028,0.046 -0.046,0.097 -0.053,0.15l-0.404,0.611Zm-7.593,-4.904l0.103,0.103c0.094,0.225 -0.19,0.245 -0.19,0.245c-0.138,0.028 -0.127,0.187 0.021,0.214l0.018,0c0.035,0.004 0.068,0.017 0.096,0.038c0.028,0.021 0.05,0.05 0.063,0.083c0.051,0.117 -0.094,0.238 -0.094,0.238c-0.021,0.038 -0.029,0.082 -0.022,0.124c0.007,0.043 0.028,0.082 0.06,0.111c0.062,0.048 0.142,-0.055 0.142,-0.055l-0,-0.207c-0,-0.207 0.227,-0.183 0.227,-0.183c0.098,0.012 0.197,-0.01 0.28,-0.062c-0.155,-0.105 -0.286,-0.241 -0.383,-0.401l-0.207,-0.386l-0.114,0.138Z" style="fill:#c01;fill-rule:nonzero;"/><path d="M96.19,22.605c0.465,0.037 0.931,-0.064 1.34,-0.29c0,0 1.07,-0.639 1.963,0c0.331,-0.18 0.7,-0.276 1.077,-0.28c0.376,-0.004 0.747,0.085 1.081,0.259c-0.001,0 0.928,0.473 1.566,0.345l0,0.087l0.719,0.062l-0,0.583l0.4,0l-0.001,1.077l-0.407,-0l0,0.262l0.407,0l0.001,1.081l-0.408,-0l0,0.472l0.407,0l0.001,1.036l-0.408,-0l0,0.431l0.407,0l0.001,1.067l-0.408,-0l0,0.345l-3.831,-0c-0.177,0.083 -0.37,0.126 -0.565,0.126c-0.196,-0 -0.389,-0.043 -0.566,-0.126l-3.614,-0l0,-0.452l-0.411,-0.031l0.173,0.107l-0.345,0.345l-0.597,-0.518l-0.29,-0.021c0,0 -0.249,-0.141 0,-0.324l0.279,-0.035l0.584,-0.514l0.4,0.345l-0.207,0.024l0,0.118l0.4,-0.055l0,-0.96l-0.432,-0.041l0.183,0.127l-0.345,0.37l-0.573,-0.577l-0.258,0c-0,0 -0.291,-0.172 -0,-0.345l0.269,-0.021l0.573,-0.528l0.386,0.345l-0.203,0.108l0.421,-0.021l-0,-0.984l-0.498,-0.079l0.228,0.131l-0.345,0.345l-0.573,-0.476l-0.279,-0.021c-0,0 -0.27,-0.141 -0,-0.345l0.269,-0l0.583,-0.549l0.377,0.345l-0.269,0.128l0.496,-0.041l0,-0.953l-0.431,-0.031l0.214,0.086l-0.387,0.387l-0.507,-0.494l-0.29,0c0,0 -0.345,-0.114 0,-0.345l0.166,-0.024l0.653,-0.57l0.362,0.346l-0.27,0.162l0.498,-0.035l-0,-0.769l0.841,-0.049l-0.007,-0.148Zm-0.438,5.902l0.418,-0.432l0,-4.932l-0.432,0.035l0.014,5.329Zm3.127,0.238l0.387,-0.801c-2.392,0.528 -2.847,0.369 -2.847,0.369l-0.422,0.442l2.882,-0.01Zm0.638,-0.508l-0.324,0.646c0.223,0.079 0.467,0.079 0.69,-0l-0.366,-0.646Zm0.204,-0.314l0.463,0.832l3.13,0l-0.466,-0.41c-0.868,0.005 -1.732,-0.111 -2.568,-0.346c-0.184,-0.03 -0.371,-0.05 -0.559,-0.058l0,-0.018Zm3.507,0.29l0.3,0.273l0.001,-5.308l-0.301,-0.035l-0,5.07Zm-6.699,-0.224c0.484,-0.003 0.968,-0.053 1.443,-0.152c0.735,-0.138 1.359,-0.248 1.359,-0.248l0.001,-4.639l0.172,-0.204l0.172,0.204l0,4.618c0.538,0.064 1.072,0.161 1.599,0.29c0.528,0.114 1.068,0.161 1.608,0.141l-0,-4.983c-0.483,-0.051 -0.952,-0.194 -1.381,-0.421c-0.314,-0.147 -0.659,-0.214 -1.004,-0.195c-0.346,0.02 -0.681,0.124 -0.977,0.305c-0.255,-0.191 -0.561,-0.302 -0.88,-0.319c-0.318,-0.017 -0.634,0.062 -0.908,0.226c-0.368,0.209 -0.78,0.328 -1.204,0.345l-0,5.032Z" style="fill:#c01;fill-rule:nonzero;"/><path d="M59.378,85.952l-1.753,0l0.127,-0.414l1.75,0l-0.124,0.414Z" style="fill:#c01;fill-rule:nonzero;"/><path d="M20.009,85.058l-0.566,0c-0.28,-0.024 -0.557,0.062 -0.774,0.24c-0.217,0.178 -0.355,0.434 -0.386,0.713l-0.207,-0l0.193,-1.209c0.691,0.001 1.381,0.022 2.071,0.022c0.691,-0.001 1.381,-0.001 2.071,-0.022l-0.2,1.168l-0.207,-0c0.018,-0.115 0.027,-0.23 0.027,-0.346c0,-0.469 -0.248,-0.58 -0.69,-0.58l-0.711,0l-0.711,3.749c-0.024,0.114 -0.04,0.228 -0.048,0.344c-0,0.298 0.2,0.367 0.407,0.367l0.145,-0l-0.034,0.207c-0.277,-0 -0.601,-0.021 -0.96,-0.021c-0.359,-0 -0.587,-0 -0.808,0.021l0.049,-0.207l0.055,-0c0.428,-0 0.476,-0.138 0.614,-0.864l0.67,-3.582Z" style="fill:#c01;fill-rule:nonzero;stroke:#c01;stroke-width:0.15px;"/><path d="M24.038,88.937c-0.379,0.428 -0.766,0.87 -1.38,0.87c-0.122,-0.004 -0.242,-0.032 -0.353,-0.084c-0.11,-0.052 -0.209,-0.126 -0.289,-0.217c-0.081,-0.092 -0.141,-0.2 -0.178,-0.316c-0.037,-0.116 -0.049,-0.238 -0.036,-0.36c-0,-0.742 0.752,-2.267 1.891,-2.267c0.087,-0.007 0.175,0.004 0.258,0.033c0.082,0.028 0.158,0.073 0.223,0.132c0.064,0.058 0.116,0.13 0.152,0.21c0.036,0.079 0.056,0.165 0.057,0.252c0,0.463 -0.455,1.091 -1.601,1.091c-0.122,0.002 -0.245,-0.007 -0.366,-0.028c-0.056,0.158 -0.089,0.324 -0.096,0.491c-0,0.345 0.151,0.776 0.524,0.776c0.304,0 0.663,-0.328 1.036,-0.735l0.158,0.152Zm-0.179,-1.822c-0,-0.183 -0.083,-0.318 -0.29,-0.318c-0.511,-0 -0.98,0.842 -1.077,1.229c0.099,0.013 0.198,0.02 0.297,0.02c0.262,0.006 0.517,-0.087 0.715,-0.259c0.197,-0.172 0.324,-0.412 0.355,-0.672Z" style="fill:#c01;fill-rule:nonzero;stroke:#c01;stroke-width:0.15px;"/><path d="M27.71,85.664c-0.034,-0.504 -0.117,-0.655 -0.559,-0.655l-0.103,-0l0.048,-0.207c0.166,-0 0.469,0.02 0.918,0.02c0.345,0 0.628,0 0.808,-0.02l-0.042,0.207l-0.124,-0c-0.249,-0 -0.366,0.075 -0.366,0.317l0,0.317l0.228,3.21l2.098,-4.217l0.194,0l0.234,4.286l1.767,-3.027c0.143,-0.195 0.247,-0.417 0.304,-0.651c0,-0.18 -0.145,-0.235 -0.38,-0.235l-0.11,-0l0.041,-0.207c0.166,-0 0.463,0.02 0.905,0.02c0.441,0 0.648,0 0.766,-0.02l-0.042,0.207c-0.158,-0.017 -0.318,0.014 -0.458,0.089c-0.14,0.075 -0.255,0.191 -0.328,0.332l-2.81,4.376l-0.207,-0l-0.169,-3.824l-2.092,3.824l-0.207,-0l-0.314,-4.142Z" style="fill:#c01;fill-rule:nonzero;stroke:#c01;stroke-width:0.15px;"/><path d="M35.214,85.103c0.024,-0.097 0.04,-0.196 0.048,-0.296c-0,-0.025 -0.006,-0.049 -0.016,-0.072c-0.01,-0.022 -0.024,-0.043 -0.042,-0.059c-0.018,-0.017 -0.039,-0.03 -0.063,-0.039c-0.023,-0.008 -0.047,-0.011 -0.072,-0.01c-0.108,0.002 -0.214,0.019 -0.318,0.049l0.049,-0.215l1.139,-0.261l-0.849,3.865c0.345,-0.573 1.014,-1.519 1.615,-1.519c0.058,-0.006 0.116,-0 0.172,0.018c0.055,0.017 0.106,0.048 0.149,0.087c0.043,0.038 0.077,0.087 0.101,0.14c0.023,0.053 0.034,0.111 0.034,0.169c-0.005,0.117 -0.023,0.233 -0.056,0.345l-0.4,1.623c-0.02,0.081 -0.034,0.165 -0.041,0.248c-0.003,0.022 -0.001,0.043 0.006,0.064c0.007,0.02 0.018,0.039 0.034,0.054c0.015,0.016 0.034,0.027 0.054,0.035c0.021,0.007 0.043,0.009 0.064,0.006c0.2,-0 0.366,-0.255 0.442,-0.455l0.186,0.054c-0.062,0.201 -0.462,0.843 -0.911,0.843c-0.06,-0.001 -0.119,-0.014 -0.174,-0.039c-0.055,-0.025 -0.104,-0.061 -0.144,-0.105c-0.04,-0.045 -0.071,-0.098 -0.09,-0.155c-0.019,-0.057 -0.025,-0.118 -0.02,-0.178c0.007,-0.128 0.028,-0.255 0.062,-0.379l0.394,-1.547c0.021,-0.076 0.035,-0.155 0.041,-0.234c0.002,-0.022 -0,-0.044 -0.008,-0.064c-0.007,-0.021 -0.018,-0.039 -0.033,-0.055c-0.015,-0.016 -0.034,-0.029 -0.054,-0.036c-0.02,-0.008 -0.042,-0.012 -0.063,-0.011c-0.366,-0 -0.905,0.732 -1.105,1.035c-0.336,0.492 -0.549,1.059 -0.621,1.651l-0.532,0.11l1.022,-4.667Z" style="fill:#c01;fill-rule:nonzero;stroke:#c01;stroke-width:0.15px;"/><path d="M41.568,88.922c-0.214,0.318 -0.601,0.884 -1.036,0.884c-0.262,-0 -0.324,-0.2 -0.324,-0.401c0.013,-0.26 0.05,-0.52 0.11,-0.773l0.111,-0.47c-0.29,0.567 -0.973,1.657 -1.726,1.657c-0.455,0 -0.614,-0.414 -0.614,-0.759c-0,-0.752 0.828,-2.484 2.45,-2.484c0.166,-0.001 0.387,0.023 0.504,0.023c0.084,-0.001 0.167,-0.009 0.249,-0.023l-0.477,2.249c-0.027,0.114 -0.044,0.229 -0.048,0.346c-0.002,0.02 -0,0.042 0.006,0.062c0.007,0.021 0.018,0.04 0.032,0.055c0.015,0.016 0.032,0.028 0.052,0.037c0.019,0.008 0.041,0.012 0.062,0.011c0.145,0 0.345,-0.283 0.476,-0.455l0.173,0.041Zm-2.651,0.552c0.566,0 1.726,-1.726 1.767,-2.623c-0.079,-0.019 -0.16,-0.028 -0.241,-0.027c-0.265,-0.019 -0.528,0.041 -0.759,0.171c-0.231,0.13 -0.418,0.324 -0.539,0.56c-0.288,0.433 -0.463,0.931 -0.511,1.45c0,0.214 0.042,0.469 0.283,0.469Z" style="fill:#c01;fill-rule:nonzero;stroke:#c01;stroke-width:0.15px;"/><path d="M42.821,87.563c0.037,-0.129 0.063,-0.261 0.076,-0.394c0.002,-0.017 0.001,-0.034 -0.003,-0.05c-0.005,-0.017 -0.013,-0.033 -0.024,-0.046c-0.012,-0.012 -0.025,-0.023 -0.041,-0.03c-0.015,-0.008 -0.032,-0.011 -0.049,-0.012c-0.152,-0 -0.325,0.187 -0.58,0.469l-0.145,-0.124c0.028,-0.041 0.628,-0.815 1.097,-0.815c0.221,0 0.297,0.174 0.297,0.394c-0.038,0.321 -0.115,0.636 -0.228,0.939c0.076,-0.152 0.097,-0.2 0.159,-0.304c0.159,-0.276 0.594,-1.035 1.277,-1.035c0.052,0 0.103,0.008 0.152,0.023l-0.11,0.633c-0.089,-0.033 -0.182,-0.049 -0.276,-0.049c-0.532,0 -0.932,0.552 -1.036,0.76c-0.268,0.56 -0.458,1.155 -0.566,1.767l-0.552,0.11l0.552,-2.236Z" style="fill:#c01;fill-rule:nonzero;stroke:#c01;stroke-width:0.15px;"/><path d="M47.168,88.937c-0.379,0.428 -0.766,0.87 -1.38,0.87c-0.122,-0.004 -0.242,-0.032 -0.353,-0.084c-0.11,-0.052 -0.209,-0.126 -0.289,-0.217c-0.081,-0.092 -0.141,-0.2 -0.178,-0.316c-0.037,-0.116 -0.049,-0.238 -0.036,-0.36c-0,-0.742 0.752,-2.267 1.891,-2.267c0.087,-0.007 0.175,0.004 0.257,0.033c0.083,0.028 0.159,0.073 0.224,0.132c0.064,0.058 0.116,0.13 0.152,0.21c0.036,0.079 0.056,0.165 0.057,0.252c0,0.463 -0.455,1.091 -1.601,1.091c-0.123,0.002 -0.245,-0.007 -0.366,-0.028c-0.057,0.158 -0.089,0.324 -0.097,0.491c0,0.345 0.152,0.776 0.525,0.776c0.304,0 0.663,-0.328 1.035,-0.735l0.159,0.152Zm-0.179,-1.822c-0,-0.183 -0.083,-0.318 -0.29,-0.318c-0.511,-0 -0.98,0.842 -1.077,1.229c0.098,0.013 0.198,0.02 0.297,0.02c0.262,0.006 0.517,-0.087 0.715,-0.259c0.197,-0.172 0.324,-0.412 0.355,-0.672Z" style="fill:#c01;fill-rule:nonzero;stroke:#c01;stroke-width:0.15px;"/><path d="M50.839,85.664c-0.034,-0.504 -0.117,-0.655 -0.559,-0.655l-0.103,-0l0.048,-0.207c0.166,-0 0.469,0.02 0.918,0.02c0.345,0 0.628,0 0.808,-0.02l-0.042,0.207l-0.124,-0c-0.248,-0 -0.366,0.075 -0.366,0.317l0,0.317l0.228,3.21l2.143,-4.217l0.194,0l0.234,4.286l1.767,-3.027c0.143,-0.195 0.246,-0.417 0.304,-0.651c0,-0.18 -0.145,-0.235 -0.38,-0.235l-0.11,-0l0.041,-0.207c0.166,-0 0.463,0.02 0.905,0.02c0.441,0 0.649,0 0.766,-0.02l-0.042,0.207c-0.158,-0.017 -0.318,0.014 -0.458,0.089c-0.14,0.075 -0.255,0.191 -0.328,0.332l-2.81,4.376l-0.207,-0l-0.2,-3.824l-2.092,3.824l-0.207,-0l-0.328,-4.142Z" style="fill:#c01;fill-rule:nonzero;stroke:#c01;stroke-width:0.15px;"/><path d="M59.856,88.922c-0.214,0.318 -0.6,0.884 -1.035,0.884c-0.262,-0 -0.324,-0.2 -0.324,-0.401c0.012,-0.26 0.049,-0.52 0.11,-0.773l0.11,-0.47c-0.289,0.567 -0.973,1.657 -1.725,1.657c-0.456,0 -0.615,-0.414 -0.615,-0.759c0,-0.752 0.829,-2.484 2.451,-2.484c0.166,-0.001 0.386,0.023 0.504,0.023c0.083,-0.001 0.166,-0.009 0.248,-0.023l-0.476,2.249c-0.028,0.114 -0.044,0.229 -0.048,0.346c-0.003,0.02 -0.001,0.042 0.006,0.062c0.006,0.021 0.017,0.04 0.032,0.055c0.014,0.016 0.032,0.028 0.051,0.037c0.02,0.008 0.041,0.012 0.063,0.011c0.145,0 0.345,-0.283 0.476,-0.455l0.172,0.041Zm-2.65,0.552c0.566,0 1.725,-1.726 1.767,-2.623c-0.079,-0.019 -0.16,-0.028 -0.242,-0.027c-0.264,-0.019 -0.528,0.041 -0.758,0.171c-0.231,0.13 -0.419,0.324 -0.539,0.56c-0.288,0.433 -0.464,0.931 -0.511,1.45c-0,0.214 0.041,0.469 0.283,0.469Z" style="fill:#c01;fill-rule:nonzero;stroke:#c01;stroke-width:0.15px;"/><path d="M60.348,87.398c0.083,-0.121 0.614,-0.835 0.98,-0.835c0.193,-0 0.304,0.124 0.304,0.414c-0.035,0.404 -0.109,0.804 -0.221,1.194c0.186,-0.345 0.904,-1.623 1.567,-1.623c0.373,0 0.504,0.222 0.504,0.435c-0,0.366 -0.504,1.802 -0.504,2.14c-0.003,0.023 -0,0.045 0.007,0.066c0.006,0.021 0.018,0.041 0.033,0.057c0.015,0.016 0.033,0.029 0.054,0.038c0.02,0.009 0.042,0.012 0.065,0.012c0.103,-0 0.2,-0.035 0.393,-0.276l0.173,-0.214l0.145,0.131c-0.346,0.428 -0.691,0.828 -1.07,0.828c-0.249,0 -0.38,-0.131 -0.38,-0.324c-0,-0.373 0.532,-2.092 0.532,-2.361c-0.001,-0.023 -0.005,-0.046 -0.014,-0.067c-0.009,-0.022 -0.023,-0.041 -0.039,-0.057c-0.017,-0.016 -0.037,-0.029 -0.059,-0.037c-0.022,-0.008 -0.045,-0.012 -0.068,-0.011c-0.235,-0 -0.656,0.489 -1.035,1.077c-0.316,0.521 -0.531,1.097 -0.635,1.698l-0.553,0.11l0.428,-1.898c0.063,-0.233 0.105,-0.471 0.125,-0.711c-0,-0.09 -0.035,-0.159 -0.111,-0.159c-0.138,-0 -0.345,0.255 -0.497,0.463l-0.124,-0.09Z" style="fill:#c01;fill-rule:nonzero;stroke:#c01;stroke-width:0.15px;"/><path d="M67.819,88.922c-0.214,0.318 -0.6,0.884 -1.035,0.884c-0.262,-0 -0.325,-0.2 -0.325,-0.401c0.013,-0.26 0.05,-0.52 0.111,-0.773l0.11,-0.47c-0.29,0.567 -0.973,1.657 -1.725,1.657c-0.456,0 -0.615,-0.414 -0.615,-0.759c0,-0.752 0.829,-2.484 2.451,-2.484c0.165,-0.001 0.386,0.023 0.504,0.023c0.083,-0.001 0.166,-0.009 0.248,-0.023l-0.476,2.249c-0.028,0.114 -0.044,0.229 -0.048,0.346c-0.003,0.02 -0.001,0.042 0.006,0.062c0.006,0.021 0.017,0.04 0.032,0.055c0.014,0.016 0.032,0.028 0.051,0.037c0.02,0.008 0.041,0.012 0.062,0.011c0.145,0 0.346,-0.283 0.477,-0.455l0.172,0.041Zm-2.65,0.552c0.566,0 1.725,-1.726 1.767,-2.623c-0.079,-0.019 -0.16,-0.028 -0.242,-0.027c-0.264,-0.019 -0.528,0.041 -0.758,0.171c-0.231,0.13 -0.419,0.324 -0.54,0.56c-0.287,0.433 -0.463,0.931 -0.51,1.45c-0,0.214 0.041,0.469 0.293,0.469l-0.01,0Z" style="fill:#c01;fill-rule:nonzero;stroke:#c01;stroke-width:0.15px;"/><path d="M68.306,87.398c0.083,-0.121 0.614,-0.835 0.98,-0.835c0.193,-0 0.304,0.124 0.304,0.414c-0.036,0.404 -0.11,0.804 -0.221,1.194c0.186,-0.345 0.904,-1.623 1.567,-1.623c0.372,0 0.503,0.222 0.503,0.435c0,0.366 -0.503,1.802 -0.503,2.14c-0.003,0.023 -0.001,0.045 0.006,0.066c0.007,0.021 0.019,0.041 0.034,0.057c0.015,0.016 0.033,0.029 0.054,0.038c0.02,0.009 0.042,0.012 0.064,0.012c0.104,-0 0.201,-0.035 0.394,-0.276l0.172,-0.214l0.145,0.131c-0.345,0.428 -0.69,0.828 -1.07,0.828c-0.248,0 -0.379,-0.131 -0.379,-0.324c-0,-0.373 0.531,-2.092 0.531,-2.361c0,-0.023 -0.004,-0.046 -0.013,-0.067c-0.01,-0.022 -0.023,-0.041 -0.04,-0.057c-0.016,-0.016 -0.036,-0.029 -0.058,-0.037c-0.022,-0.008 -0.045,-0.012 -0.068,-0.011c-0.235,-0 -0.656,0.489 -1.036,1.077c-0.315,0.521 -0.53,1.097 -0.635,1.698l-0.552,0.11l0.428,-1.898c0.063,-0.233 0.105,-0.471 0.124,-0.711c0,-0.09 -0.034,-0.159 -0.11,-0.159c-0.138,-0 -0.345,0.255 -0.497,0.463l-0.124,-0.09Z" style="fill:#c01;fill-rule:nonzero;stroke:#c01;stroke-width:0.15px;"/><path d="M75.364,86.209c0.006,0.051 0.006,0.102 -0,0.152c-0,0.345 -0.186,0.538 -0.607,0.69c0.041,0.11 0.062,0.227 0.062,0.345c-0,1.243 -1.809,1.298 -1.809,1.726c0,0.428 1.864,0.456 1.864,1.332c-0,0.428 -0.456,0.829 -1.443,0.829c-0.918,-0 -1.484,-0.345 -1.484,-0.78c0,-0.435 0.401,-0.67 0.808,-0.787c-0.235,-0.111 -0.38,-0.242 -0.38,-0.401c0,-0.31 0.38,-0.49 0.925,-0.69c-0.096,0 -0.191,-0.019 -0.279,-0.058c-0.088,-0.038 -0.167,-0.095 -0.232,-0.166c-0.065,-0.07 -0.115,-0.154 -0.146,-0.245c-0.03,-0.091 -0.042,-0.188 -0.033,-0.284c0.023,-0.335 0.17,-0.651 0.412,-0.884c0.243,-0.233 0.563,-0.368 0.899,-0.379c0.142,-0.008 0.285,0.017 0.415,0.073c0.131,0.056 0.247,0.143 0.338,0.252c0.103,-0.021 0.179,-0.076 0.179,-0.18c-0.019,-0.124 -0.08,-0.238 -0.172,-0.324l0.683,-0.221Zm-2.247,3.638c-0.221,0.027 -0.69,0.19 -0.69,0.593c-0,0.287 0.276,0.601 1.035,0.601c0.532,0 0.891,-0.152 0.891,-0.469c0.01,-0.373 -0.652,-0.587 -1.236,-0.725Zm0.801,-3.079c-0.421,0 -0.794,0.608 -0.794,1.153c0,0.345 0.124,0.504 0.394,0.504c0.51,0 0.724,-0.711 0.724,-1.146c0.011,-0.366 -0.134,-0.511 -0.314,-0.511l-0.01,0Z" style="fill:#c01;fill-rule:nonzero;stroke:#c01;stroke-width:0.15px;"/><path d="M78.872,88.922c-0.214,0.318 -0.601,0.884 -1.035,0.884c-0.263,-0 -0.325,-0.2 -0.325,-0.401c0.013,-0.26 0.049,-0.52 0.11,-0.773l0.11,-0.47c-0.289,0.567 -0.972,1.657 -1.725,1.657c-0.456,0 -0.615,-0.414 -0.615,-0.759c0,-0.752 0.829,-2.484 2.451,-2.484c0.166,-0.001 0.386,0.023 0.504,0.023c0.083,-0.001 0.167,-0.009 0.248,-0.023l-0.476,2.249c-0.028,0.114 -0.044,0.229 -0.049,0.346c-0.002,0.02 0,0.042 0.007,0.062c0.006,0.021 0.017,0.04 0.032,0.055c0.014,0.016 0.032,0.028 0.051,0.037c0.02,0.008 0.041,0.012 0.063,0.011c0.144,0 0.345,-0.283 0.476,-0.455l0.172,0.041Zm-2.65,0.552c0.566,0 1.726,-1.726 1.767,-2.623c-0.079,-0.019 -0.16,-0.028 -0.242,-0.027c-0.263,-0.019 -0.527,0.041 -0.758,0.171c-0.231,0.13 -0.418,0.324 -0.539,0.56c-0.288,0.433 -0.463,0.931 -0.511,1.45c0,0.214 0.041,0.469 0.286,0.469l-0.003,0Z" style="fill:#c01;fill-rule:nonzero;stroke:#c01;stroke-width:0.15px;"/><path d="M83.339,86.562c0.141,-0.014 0.283,0.004 0.417,0.051c0.134,0.047 0.255,0.122 0.358,0.221c0.102,0.098 0.181,0.216 0.234,0.348c0.052,0.132 0.075,0.274 0.068,0.415c-0,0.925 -0.726,2.202 -1.788,2.202c-0.147,-0.005 -0.291,-0.041 -0.424,-0.104c-0.133,-0.063 -0.251,-0.153 -0.348,-0.263c-0.097,-0.111 -0.17,-0.24 -0.216,-0.379c-0.045,-0.141 -0.062,-0.287 -0.048,-0.434c-0,-1.105 0.932,-2.057 1.746,-2.057Zm-0.027,0.207c-0.711,0 -1.166,1.222 -1.166,1.995c-0.001,0.587 0.165,0.835 0.504,0.835c0.821,-0 1.214,-1.698 1.214,-2.15c-0,-0.59 -0.317,-0.68 -0.552,-0.68Z" style="fill:#c01;fill-rule:nonzero;stroke:#c01;stroke-width:0.15px;"/><path d="M87.893,85.664c-0.034,-0.504 -0.117,-0.655 -0.559,-0.655l-0.103,-0l0.048,-0.207c0.166,-0 0.469,0.02 0.918,0.02c0.345,0 0.628,0 0.808,-0.02l-0.042,0.207l-0.124,-0c-0.248,-0 -0.366,0.075 -0.366,0.317l-0,0.317l0.228,3.21l2.098,-4.217l0.194,0l0.234,4.286l1.768,-3.027c0.142,-0.195 0.246,-0.417 0.303,-0.651c0,-0.18 -0.145,-0.235 -0.38,-0.235l-0.11,-0l0.041,-0.207c0.166,-0 0.463,0.02 0.905,0.02c0.441,0 0.648,0 0.766,-0.02l-0.042,0.207c-0.158,-0.017 -0.318,0.014 -0.458,0.089c-0.14,0.075 -0.254,0.191 -0.329,0.332l-2.809,4.376l-0.162,-0l-0.2,-3.824l-2.092,3.824l-0.207,-0l-0.328,-4.142Z" style="fill:#c01;fill-rule:nonzero;stroke:#c01;stroke-width:0.15px;"/><path d="M96.911,88.922c-0.215,0.318 -0.601,0.884 -1.036,0.884c-0.262,-0 -0.324,-0.2 -0.324,-0.401c0.012,-0.26 0.049,-0.52 0.11,-0.773l0.11,-0.47c-0.289,0.567 -0.973,1.657 -1.725,1.657c-0.456,0 -0.615,-0.414 -0.615,-0.759c0,-0.752 0.829,-2.484 2.45,-2.484c0.166,-0.001 0.387,0.023 0.504,0.023c0.084,-0.001 0.167,-0.009 0.249,-0.023l-0.476,2.249c-0.028,0.114 -0.044,0.229 -0.049,0.346c-0.002,0.02 0,0.042 0.006,0.062c0.007,0.021 0.018,0.04 0.033,0.055c0.014,0.016 0.032,0.028 0.051,0.037c0.02,0.008 0.041,0.012 0.063,0.011c0.144,0 0.345,-0.283 0.476,-0.455l0.172,0.041Zm-2.65,0.552c0.566,0 1.726,-1.726 1.767,-2.623c-0.079,-0.019 -0.16,-0.028 -0.242,-0.027c-0.264,-0.019 -0.527,0.041 -0.758,0.171c-0.231,0.13 -0.418,0.324 -0.54,0.56c-0.287,0.433 -0.462,0.931 -0.51,1.45c-0,0.214 0.041,0.469 0.283,0.469Z" style="fill:#c01;fill-rule:nonzero;stroke:#c01;stroke-width:0.15px;"/><path d="M98.139,87.45c0.031,-0.113 0.054,-0.229 0.069,-0.345c0,-0.062 -0.028,-0.139 -0.111,-0.139c-0.193,0 -0.414,0.318 -0.538,0.512l-0.152,-0.111l0.028,-0.048c0.138,-0.242 0.558,-0.767 0.931,-0.767c0.052,-0.003 0.103,0.005 0.151,0.023c0.048,0.018 0.092,0.045 0.129,0.081c0.037,0.036 0.066,0.079 0.085,0.126c0.02,0.048 0.03,0.099 0.029,0.15c-0.017,0.138 -0.044,0.274 -0.083,0.407l-0.345,1.581c-0.023,0.088 -0.04,0.178 -0.048,0.269c-0,0.131 0.076,0.194 0.159,0.194c0.165,-0 0.282,-0.159 0.345,-0.284l0.124,-0.2l0.159,0.094c-0.173,0.286 -0.484,0.804 -0.932,0.804c-0.057,-0.003 -0.112,-0.016 -0.164,-0.041c-0.051,-0.025 -0.097,-0.059 -0.134,-0.103c-0.036,-0.042 -0.064,-0.093 -0.081,-0.147c-0.016,-0.055 -0.021,-0.112 -0.015,-0.168c0.002,-0.149 0.023,-0.296 0.063,-0.439l0.331,-1.449Zm0.628,-2.364c0.035,-0.005 0.07,-0.001 0.104,0.01c0.034,0.012 0.064,0.03 0.09,0.054c0.026,0.024 0.046,0.054 0.059,0.087c0.013,0.033 0.018,0.069 0.016,0.104c0.005,0.123 -0.039,0.243 -0.121,0.334c-0.083,0.093 -0.198,0.148 -0.321,0.156c-0.034,0 -0.067,-0.007 -0.098,-0.02c-0.032,-0.013 -0.059,-0.033 -0.083,-0.058c-0.023,-0.024 -0.041,-0.053 -0.053,-0.085c-0.011,-0.032 -0.016,-0.065 -0.014,-0.099c-0.008,-0.12 0.032,-0.238 0.111,-0.329c0.079,-0.09 0.19,-0.146 0.31,-0.154Z" style="fill:#c01;fill-rule:nonzero;stroke:#c01;stroke-width:0.15px;"/><path d="M100.385,86.92l-0.69,-0l0.262,-0.29l0.49,-0l0.132,-0.629l0.545,-0.138l-0.152,0.767l0.725,-0l-0.034,0.29l-0.76,-0l-0.407,1.87c-0.04,0.15 -0.07,0.302 -0.09,0.456c-0.002,0.021 -0.001,0.043 0.006,0.063c0.007,0.021 0.018,0.04 0.032,0.056c0.014,0.017 0.032,0.03 0.052,0.039c0.019,0.009 0.04,0.014 0.062,0.014c0.207,0 0.456,-0.414 0.552,-0.573l0.173,0.09c-0.242,0.428 -0.629,0.87 -1.015,0.87c-0.241,-0 -0.387,-0.172 -0.387,-0.449c0.01,-0.201 0.04,-0.399 0.09,-0.594l0.414,-1.842Z" style="fill:#c01;fill-rule:nonzero;stroke:#c01;stroke-width:0.15px;"/><path d="M105.409,88.922c-0.213,0.318 -0.6,0.884 -1.035,0.884c-0.262,-0 -0.324,-0.2 -0.324,-0.401c0.012,-0.26 0.049,-0.52 0.11,-0.773l0.11,-0.47c-0.289,0.567 -0.973,1.657 -1.726,1.657c-0.455,0 -0.614,-0.414 -0.614,-0.759c0,-0.752 0.829,-2.484 2.451,-2.484c0.165,-0.001 0.386,0.023 0.504,0.023c0.083,-0.001 0.166,-0.009 0.248,-0.023l-0.476,2.249c-0.028,0.114 -0.044,0.229 -0.049,0.346c-0.002,0.02 0.001,0.042 0.006,0.062c0.007,0.021 0.018,0.04 0.033,0.055c0.014,0.016 0.032,0.028 0.052,0.037c0.019,0.008 0.04,0.012 0.062,0.011c0.144,0 0.345,-0.283 0.476,-0.455l0.172,0.041Zm-2.65,0.552c0.566,0 1.726,-1.726 1.767,-2.623c-0.079,-0.019 -0.16,-0.028 -0.242,-0.027c-0.264,-0.019 -0.527,0.041 -0.758,0.171c-0.231,0.13 -0.418,0.324 -0.54,0.56c-0.287,0.433 -0.462,0.931 -0.511,1.45c0,0.214 0.043,0.469 0.284,0.469Z" style="fill:#c01;fill-rule:nonzero;stroke:#c01;stroke-width:0.15px;"/><path d="M107.012,85.103c0.025,-0.097 0.041,-0.196 0.049,-0.296c-0.001,-0.025 -0.006,-0.049 -0.016,-0.072c-0.01,-0.022 -0.025,-0.043 -0.043,-0.059c-0.017,-0.017 -0.038,-0.03 -0.062,-0.039c-0.023,-0.008 -0.048,-0.011 -0.072,-0.01c-0.108,0.002 -0.215,0.019 -0.318,0.049l0.048,-0.215l1.14,-0.261l-0.85,3.865c0.346,-0.573 1.015,-1.519 1.615,-1.519c0.059,-0.006 0.117,-0 0.172,0.018c0.055,0.017 0.106,0.048 0.15,0.087c0.043,0.038 0.077,0.087 0.1,0.14c0.024,0.053 0.035,0.111 0.034,0.169c-0.004,0.117 -0.023,0.233 -0.055,0.345l-0.401,1.623c-0.019,0.081 -0.033,0.165 -0.041,0.248c-0.003,0.022 -0.001,0.043 0.007,0.064c0.006,0.02 0.018,0.039 0.033,0.054c0.015,0.016 0.034,0.027 0.055,0.035c0.02,0.007 0.042,0.009 0.064,0.006c0.2,-0 0.366,-0.255 0.442,-0.455l0.186,0.054c-0.062,0.201 -0.462,0.843 -0.912,0.843c-0.059,-0.001 -0.119,-0.014 -0.174,-0.039c-0.054,-0.025 -0.104,-0.061 -0.143,-0.105c-0.041,-0.045 -0.072,-0.098 -0.09,-0.155c-0.019,-0.057 -0.026,-0.118 -0.02,-0.178c0.007,-0.128 0.028,-0.255 0.062,-0.379l0.393,-1.547c0.021,-0.076 0.035,-0.155 0.042,-0.234c0.002,-0.022 -0.001,-0.044 -0.008,-0.064c-0.007,-0.021 -0.019,-0.039 -0.034,-0.055c-0.015,-0.016 -0.033,-0.029 -0.053,-0.036c-0.02,-0.008 -0.042,-0.012 -0.064,-0.011c-0.366,-0 -0.904,0.732 -1.105,1.035c-0.335,0.492 -0.548,1.059 -0.62,1.651l-0.532,0.11l1.021,-4.667Z" style="fill:#c01;fill-rule:nonzero;stroke:#c01;stroke-width:0.15px;"/><path d="M113.372,88.922c-0.214,0.318 -0.6,0.884 -1.035,0.884c-0.262,-0 -0.325,-0.2 -0.325,-0.401c0.013,-0.26 0.05,-0.52 0.111,-0.773l0.11,-0.47c-0.29,0.567 -0.973,1.657 -1.725,1.657c-0.456,0 -0.615,-0.414 -0.615,-0.759c-0,-0.752 0.829,-2.484 2.451,-2.484c0.166,-0.001 0.386,0.023 0.504,0.023c0.083,-0.001 0.166,-0.009 0.248,-0.023l-0.476,2.249c-0.028,0.114 -0.044,0.229 -0.049,0.346c-0.002,0.02 0,0.042 0.007,0.062c0.006,0.021 0.017,0.04 0.031,0.055c0.015,0.016 0.033,0.028 0.052,0.037c0.02,0.008 0.041,0.012 0.062,0.011c0.145,0 0.345,-0.283 0.477,-0.455l0.172,0.041Zm-2.65,0.552c0.566,0 1.725,-1.726 1.767,-2.623c-0.079,-0.019 -0.161,-0.028 -0.242,-0.027c-0.264,-0.019 -0.528,0.041 -0.759,0.171c-0.23,0.13 -0.418,0.324 -0.538,0.56c-0.288,0.433 -0.464,0.931 -0.511,1.45c-0,0.214 0.041,0.469 0.3,0.469l-0.017,0Z" style="fill:#c01;fill-rule:nonzero;stroke:#c01;stroke-width:0.15px;"/><path d="M21.226,93.827l-0.121,0c-0.103,-0.666 -0.666,-0.911 -1.221,-0.911c-0.615,0 -1.212,0.487 -1.212,1.38c0,0.894 0.497,1.66 1.298,1.66c0.267,-0.02 0.524,-0.107 0.749,-0.252c0.225,-0.146 0.41,-0.344 0.538,-0.579l0.042,0.545c-0.427,0.318 -0.946,0.487 -1.478,0.483c-1.601,0 -1.836,-1.242 -1.836,-1.746c0,-0.749 0.532,-1.671 1.971,-1.671c0.435,0.015 0.864,0.103 1.27,0.259l0,0.832Z" style="fill:#c01;fill-rule:nonzero;stroke:#c01;stroke-width:0.15px;"/><path d="M22.386,95.956c0.301,-0 0.384,-0.117 0.384,-0.376l-0,-2.268c-0,-0.259 -0.083,-0.369 -0.384,-0.373l0,-0.141l1.364,-0l-0,0.141c-0.3,0 -0.383,0.114 -0.383,0.373l-0,0.935l1.725,0l0,-0.935c0,-0.259 -0.086,-0.369 -0.386,-0.373l-0,-0.141l1.38,-0l0,0.141c-0.3,0 -0.386,0.114 -0.386,0.373l-0,2.275c-0,0.258 0.086,0.372 0.386,0.376l0,0.137l-1.38,0l-0,-0.138c0.3,0.001 0.386,-0.117 0.386,-0.375l0,-1.139l-1.725,-0.001l-0,1.14c-0,0.258 0.082,0.372 0.383,0.376l-0,0.137l-1.364,0l0,-0.144Z" style="fill:#c01;fill-rule:nonzero;stroke:#c01;stroke-width:0.15px;"/><path d="M27.079,95.956c0.3,-0 0.383,-0.117 0.383,-0.376l-0,-2.268c-0,-0.259 -0.083,-0.369 -0.383,-0.373l-0,-0.141l1.48,-0c0.804,-0 1.06,0.404 1.06,0.856c-0.003,0.187 -0.068,0.368 -0.185,0.514c-0.117,0.146 -0.279,0.25 -0.461,0.294l0.58,1.063c0.207,0.383 0.321,0.472 0.584,0.51l-0,0.111l-0.214,-0c-0.615,-0 -0.87,-0.214 -1.129,-0.766l-0.179,-0.383c-0.194,-0.411 -0.259,-0.446 -0.57,-0.449l0,1.035c0,0.259 0.083,0.373 0.383,0.377l0,0.138l-1.38,-0l0.031,-0.142Zm0.966,-1.571c0.1,0.022 0.202,0.034 0.304,0.035c0.417,-0 0.669,-0.19 0.669,-0.638c0.01,-0.108 -0.002,-0.216 -0.036,-0.318c-0.035,-0.102 -0.09,-0.196 -0.163,-0.276c-0.073,-0.079 -0.162,-0.142 -0.26,-0.185c-0.099,-0.043 -0.206,-0.064 -0.314,-0.064c-0.066,-0.007 -0.133,-0.007 -0.2,0l0,1.446Z" style="fill:#c01;fill-rule:nonzero;stroke:#c01;stroke-width:0.15px;"/><path d="M31.082,95.956c0.3,-0 0.383,-0.117 0.383,-0.376l-0,-2.268c-0,-0.259 -0.083,-0.369 -0.383,-0.373l-0,-0.141l1.363,-0l0,0.141c-0.3,0 -0.383,0.114 -0.383,0.373l-0,2.275c-0,0.258 0.083,0.372 0.383,0.376l0,0.137l-1.363,0l-0,-0.144Z" style="fill:#c01;fill-rule:nonzero;stroke:#c01;stroke-width:0.15px;"/><path d="M33.545,95.2l0.179,-0c0.038,0.21 0.145,0.402 0.306,0.544c0.16,0.142 0.364,0.225 0.578,0.236c0.082,0.012 0.165,0.008 0.245,-0.013c0.08,-0.022 0.155,-0.059 0.22,-0.11c0.065,-0.052 0.118,-0.117 0.157,-0.189c0.039,-0.074 0.062,-0.154 0.068,-0.237c0,-0.738 -1.687,-0.69 -1.687,-1.725c-0,-0.235 0.134,-0.963 1.166,-0.963c0.29,-0.006 0.579,0.036 0.856,0.12l0.028,0.818l-0.173,-0c-0.003,-0.106 -0.028,-0.211 -0.073,-0.307c-0.045,-0.097 -0.109,-0.183 -0.187,-0.254c-0.079,-0.071 -0.172,-0.126 -0.273,-0.161c-0.1,-0.034 -0.207,-0.048 -0.313,-0.041c-0.071,-0.007 -0.144,-0.001 -0.213,0.019c-0.069,0.021 -0.133,0.055 -0.189,0.1c-0.055,0.046 -0.101,0.102 -0.135,0.166c-0.033,0.064 -0.054,0.134 -0.06,0.206c0,0.69 1.726,0.735 1.726,1.767c0,0.545 -0.39,0.984 -1.156,0.984c-0.341,-0.009 -0.68,-0.061 -1.008,-0.156l-0.062,-0.804Z" style="fill:#c01;fill-rule:nonzero;stroke:#c01;stroke-width:0.15px;"/><path d="M37.633,95.955c0.3,0 0.383,-0.117 0.383,-0.376l-0,-2.55l-0.408,-0.001c-0.369,0.001 -0.614,0.104 -0.641,0.691l-0.173,-0l0.031,-0.918l2.968,-0l0.028,0.918l-0.183,-0c-0.028,-0.583 -0.273,-0.691 -0.646,-0.691l-0.39,0.001l0,2.557c0,0.259 0.087,0.373 0.387,0.377l-0,0.137l-1.381,0l0.025,-0.145Z" style="fill:#c01;fill-rule:nonzero;stroke:#c01;stroke-width:0.15px;"/><path d="M44.128,93.827l-0.121,0c-0.104,-0.666 -0.666,-0.911 -1.222,-0.911c-0.614,0 -1.211,0.487 -1.211,1.38c-0,0.894 0.497,1.66 1.297,1.66c0.267,-0.02 0.525,-0.107 0.749,-0.252c0.225,-0.146 0.41,-0.344 0.539,-0.579l0.041,0.545c-0.427,0.318 -0.945,0.487 -1.477,0.483c-1.602,0 -1.836,-1.242 -1.836,-1.746c-0,-0.749 0.531,-1.671 1.97,-1.671c0.435,0.015 0.865,0.103 1.271,0.259l-0,0.832Z" style="fill:#c01;fill-rule:nonzero;stroke:#c01;stroke-width:0.15px;"/><path d="M45.298,95.956c0.3,-0 0.383,-0.117 0.383,-0.376l0,-2.268c0,-0.259 -0.083,-0.369 -0.383,-0.373l0,-0.141l1.363,-0l0,0.141c-0.3,0 -0.383,0.114 -0.383,0.373l0,0.935l1.726,0l-0,-0.935c-0,-0.259 -0.086,-0.369 -0.387,-0.373l0,-0.141l1.381,-0l-0,0.141c-0.3,0 -0.383,0.114 -0.383,0.373l-0,2.275c-0,0.258 0.083,0.372 0.383,0.376l-0,0.137l-1.381,0l0,-0.138c0.301,0.001 0.387,-0.117 0.387,-0.375l-0,-1.139l-1.726,-0.001l0,1.14c0,0.258 0.083,0.372 0.383,0.376l0,0.137l-1.363,0l0,-0.144Z" style="fill:#c01;fill-rule:nonzero;stroke:#c01;stroke-width:0.15px;"/><path d="M53.586,92.939c-0.304,-0.001 -0.38,0.113 -0.387,0.372l0,1.487c0,0.674 -0.293,1.357 -1.308,1.357c-0.856,0 -1.511,-0.373 -1.511,-1.363l-0,-1.481c-0,-0.259 -0.083,-0.369 -0.383,-0.373l-0,-0.141l1.38,-0l0,0.142c-0.304,-0 -0.386,0.114 -0.386,0.372l-0,1.584c-0.015,0.135 -0.001,0.272 0.041,0.401c0.041,0.129 0.109,0.247 0.2,0.349c0.09,0.1 0.201,0.181 0.325,0.237c0.124,0.054 0.258,0.084 0.393,0.084c0.804,-0.001 1.091,-0.522 1.091,-1.326l-0,-1.318c-0,-0.28 -0.066,-0.397 -0.404,-0.397l-0,-0.142l1.015,0l-0.066,0.156Z" style="fill:#c01;fill-rule:nonzero;stroke:#c01;stroke-width:0.15px;"/><path d="M54.593,95.956c0.3,-0 0.383,-0.117 0.383,-0.376l-0,-2.268c-0,-0.259 -0.083,-0.369 -0.383,-0.373l-0,-0.141l1.48,-0c0.805,-0 1.06,0.404 1.06,0.856c-0.003,0.187 -0.067,0.367 -0.184,0.513c-0.116,0.146 -0.277,0.25 -0.458,0.295l0.576,1.063c0.211,0.383 0.321,0.472 0.584,0.51l-0,0.111l-0.214,-0.001c-0.615,0.001 -0.87,-0.213 -1.129,-0.765l-0.179,-0.383c-0.194,-0.412 -0.259,-0.446 -0.57,-0.449l0,1.035c0,0.259 0.083,0.373 0.383,0.376l0,0.138l-1.38,0l0.031,-0.141Zm0.966,-1.571c0.101,0.023 0.204,0.034 0.307,0.035c0.415,-0 0.666,-0.19 0.666,-0.639c0.011,-0.107 -0.002,-0.215 -0.036,-0.318c-0.035,-0.102 -0.09,-0.195 -0.163,-0.275c-0.073,-0.079 -0.161,-0.142 -0.26,-0.185c-0.099,-0.043 -0.206,-0.064 -0.314,-0.064c-0.066,-0.007 -0.133,-0.007 -0.2,0l0,1.446Z" style="fill:#c01;fill-rule:nonzero;stroke:#c01;stroke-width:0.15px;"/><path d="M61.945,93.827l-0.117,0c-0.104,-0.666 -0.666,-0.911 -1.222,-0.911c-0.618,0 -1.215,0.487 -1.215,1.38c0,0.894 0.501,1.66 1.302,1.66c0.266,-0.02 0.524,-0.107 0.749,-0.252c0.224,-0.146 0.409,-0.344 0.538,-0.579l0.041,0.545c-0.426,0.318 -0.945,0.487 -1.477,0.483c-1.601,0 -1.836,-1.242 -1.836,-1.746c-0,-0.749 0.532,-1.671 1.971,-1.671c0.433,0.015 0.862,0.103 1.266,0.259l0,0.832Z" style="fill:#c01;fill-rule:nonzero;stroke:#c01;stroke-width:0.15px;"/><path d="M63.108,95.956c0.304,-0 0.387,-0.117 0.387,-0.376l-0,-2.268c-0,-0.259 -0.083,-0.369 -0.387,-0.373l0,-0.141l1.381,-0l-0,0.141c-0.3,0 -0.383,0.114 -0.383,0.373l-0,0.935l1.725,0l0,-0.935c0,-0.259 -0.082,-0.369 -0.383,-0.373l0,-0.141l1.381,-0l-0,0.141c-0.304,0 -0.387,0.114 -0.387,0.373l0,2.275c0,0.258 0.083,0.372 0.387,0.376l-0,0.137l-1.381,0l0,-0.138c0.301,0.001 0.383,-0.117 0.383,-0.375l0,-1.139l-1.725,-0.001l-0,1.14c-0,0.258 0.083,0.372 0.383,0.376l-0,0.137l-1.381,0l0,-0.144Z" style="fill:#c01;fill-rule:nonzero;stroke:#c01;stroke-width:0.15px;"/><path d="M69.888,95.956c0.3,-0 0.386,-0.117 0.386,-0.376l0,-2.268c0,-0.259 -0.086,-0.369 -0.386,-0.373l-0,-0.141l0.869,-0l2.182,2.44l-0,-1.902c-0,-0.279 -0.066,-0.397 -0.397,-0.397l-0,-0.141l1.011,-0l0,0.141c-0.3,0 -0.383,0.114 -0.383,0.373l-0,2.813l-0.186,0l-2.503,-2.761l0.038,2.174c0,0.345 0.09,0.39 0.383,0.418l0,0.138l-1,-0l-0.014,-0.138Z" style="fill:#c01;fill-rule:nonzero;stroke:#c01;stroke-width:0.15px;"/><path d="M74.525,95.956c0.3,-0 0.383,-0.117 0.383,-0.376l0,-2.268c0,-0.259 -0.083,-0.369 -0.383,-0.373l0,-0.141l2.327,-0l0.02,0.78l-0.148,-0c-0.076,-0.445 -0.273,-0.604 -0.829,-0.604l-0.404,-0l0,1.339l0.346,0c0.421,0 0.483,-0.152 0.514,-0.445l0.159,-0l-0,1.08l-0.159,-0c-0,-0.365 -0.114,-0.459 -0.518,-0.459l-0.345,-0l0,1.098c0,0.214 0.086,0.345 0.521,0.345c0.435,-0 0.804,-0.086 0.915,-0.67l0.155,0c-0.037,0.281 -0.06,0.563 -0.069,0.846l-2.488,0l0.003,-0.152Z" style="fill:#c01;fill-rule:nonzero;stroke:#c01;stroke-width:0.15px;"/><path d="M78.083,92.798l1.381,0l0,0.141l-0.134,0c-0.156,0 -0.249,0.069 -0.249,0.194c0.007,0.086 0.03,0.17 0.066,0.248l0.666,1.885l0.784,-2.527l0.082,-0l0.901,2.537l0.555,-1.867c0.027,-0.086 0.046,-0.174 0.056,-0.263c0,-0.158 -0.125,-0.203 -0.346,-0.207l0,-0.141l1.032,0l0,0.141c-0.317,0 -0.393,0.104 -0.49,0.401l-0.939,2.785l-0.134,0l-0.856,-2.354l-0.783,2.354l-0.138,0l-1.015,-2.761c-0.135,-0.38 -0.204,-0.411 -0.449,-0.425l0.01,-0.141Z" style="fill:#c01;fill-rule:nonzero;stroke:#c01;stroke-width:0.15px;"/><path d="M85.888,96.007l2.07,-2.94l-1.208,-0c-0.317,-0 -0.521,0.111 -0.579,0.645l-0.156,0.001l0.028,-0.916l2.816,0l-2.139,3.066l1.273,-0c0.479,-0 0.61,-0.222 0.69,-0.691l0.162,-0l-0.044,0.928l-2.893,0l-0.02,-0.093Z" style="fill:#c01;fill-rule:nonzero;stroke:#c01;stroke-width:0.15px;"/><path d="M89.851,95.956c0.3,-0 0.383,-0.117 0.383,-0.376l0,-2.268c0,-0.259 -0.082,-0.369 -0.383,-0.373l-0,-0.141l2.326,-0l0.021,0.78l-0.148,-0c-0.076,-0.445 -0.273,-0.604 -0.829,-0.604l-0.404,-0l0,1.339l0.345,0c0.422,0 0.483,-0.152 0.515,-0.445l0.158,-0l0,1.08l-0.158,-0c0,-0.365 -0.114,-0.459 -0.517,-0.459l-0.346,-0l-0,1.098c-0,0.214 0.09,0.345 0.525,0.345c0.435,-0 0.8,-0.086 0.911,-0.67l0.155,0c-0.037,0.281 -0.061,0.563 -0.069,0.846l-2.488,0l0.003,-0.152Z" style="fill:#c01;fill-rule:nonzero;stroke:#c01;stroke-width:0.15px;"/><path d="M93.394,95.954c0.318,-0.021 0.407,-0.065 0.659,-0.69l1.018,-2.458l0.08,0l1.252,2.803c0.121,0.266 0.235,0.345 0.474,0.345l-0,0.138l-1.398,0l-0,-0.138c0.258,0 0.345,-0.048 0.345,-0.172c-0.026,-0.132 -0.07,-0.261 -0.132,-0.38l-0.186,-0.435l-1.059,0l-0.135,0.376c-0.063,0.139 -0.105,0.285 -0.124,0.435c0,0.121 0.055,0.172 0.345,0.176l0,0.138l-1.108,0l-0.031,-0.138Zm2.012,-1.163l-0.5,-1.187l-0.425,1.187l0.925,-0Z" style="fill:#c01;fill-rule:nonzero;stroke:#c01;stroke-width:0.15px;"/><path d="M97.774,95.956c0.304,-0 0.387,-0.117 0.387,-0.376l-0,-2.268c-0,-0.259 -0.083,-0.369 -0.387,-0.373l-0,-0.141l1.38,-0l0,0.141c-0.299,0 -0.383,0.114 -0.383,0.373l0,2.275c0,0.241 0.132,0.321 0.518,0.321c0.611,-0 0.915,-0.08 1.008,-0.653l0.159,0l-0.076,0.845l-2.234,0c-0.114,-0.005 -0.23,-0.005 -0.345,0l-0.027,-0.144Z" style="fill:#c01;fill-rule:nonzero;stroke:#c01;stroke-width:0.15px;"/><path d="M101.315,95.954c0.321,-0.021 0.407,-0.065 0.662,-0.69l1.018,-2.458l0.08,0l1.252,2.803c0.121,0.266 0.232,0.345 0.474,0.345l-0.001,0.138l-1.418,0l-0,-0.138c0.262,0 0.345,-0.048 0.345,-0.172c-0.024,-0.133 -0.068,-0.261 -0.131,-0.38l-0.183,-0.435l-1.06,0l-0.134,0.376c-0.065,0.138 -0.107,0.284 -0.124,0.435c-0,0.121 0.055,0.172 0.345,0.176l-0,0.138l-1.112,0l-0.013,-0.138Zm2.012,-1.163l-0.5,-1.187l-0.426,1.187l0.926,-0Z" style="fill:#c01;fill-rule:nonzero;stroke:#c01;stroke-width:0.15px;"/><path d="M105.667,95.956c0.304,-0 0.387,-0.117 0.387,-0.376l-0,-2.268c-0,-0.259 -0.083,-0.369 -0.387,-0.373l0,-0.141l0.874,-0l2.178,2.44l-0,-1.902c-0,-0.279 -0.066,-0.397 -0.398,-0.397l0,-0.141l1.012,-0l-0,0.141c-0.301,0 -0.383,0.114 -0.383,0.373l-0.001,2.813l-0.186,0l-2.502,-2.761l0.038,2.174c0,0.345 0.093,0.39 0.383,0.418l0,0.138l-1.001,-0l-0.013,-0.138Z" style="fill:#c01;fill-rule:nonzero;stroke:#c01;stroke-width:0.15px;"/><path d="M110.304,95.956c0.3,-0 0.383,-0.117 0.383,-0.376l0,-2.268c0,-0.259 -0.083,-0.369 -0.383,-0.373l0,-0.141l1.743,-0c1.177,-0 1.726,0.718 1.726,1.695c-0,0.497 -0.269,1.601 -1.892,1.601l-1.584,-0l0.007,-0.138Zm0.966,-0.362c0,0.245 0.107,0.306 0.456,0.306c0.735,0 1.38,-0.32 1.38,-1.345c0.019,-0.245 -0.016,-0.492 -0.102,-0.722c-0.085,-0.231 -0.221,-0.441 -0.394,-0.614c-0.225,-0.19 -0.463,-0.245 -1.002,-0.245l-0.324,-0l-0.014,2.62Z" style="fill:#c01;fill-rule:nonzero;stroke:#c01;stroke-width:0.15px;"/><path d="M25.192,59.529l-0.027,2.944c-0,1.381 -0.087,1.816 -0.425,2.416c-0.576,1.063 -1.667,1.629 -3.106,1.629c-1.778,0 -3.155,-0.928 -3.52,-2.395c-0.116,-0.492 -0.165,-0.997 -0.149,-1.501l0,-3.058c0,-0.977 -0.1,-1.125 -0.876,-1.277c-0.047,-0.004 -0.093,-0.012 -0.139,-0.024l0,-0.29l0.239,-0c0.353,0.03 0.708,0.043 1.063,0.038l1.152,-0l0.691,-0.028l0.29,0l-0,0.286c-0.801,0.09 -0.967,0.29 -0.967,1.229l0,3.42c0,1.036 0.09,1.478 0.366,1.968c0.23,0.389 0.56,0.708 0.957,0.924c0.397,0.216 0.845,0.32 1.297,0.301c0.625,0.024 1.237,-0.185 1.718,-0.585c0.481,-0.4 0.797,-0.964 0.887,-1.583c0.04,-0.268 0.057,-0.539 0.052,-0.811l0,-0.334l-0.076,-3.207c-0.024,-1.066 -0.138,-1.228 -0.952,-1.318l-0.152,-0l-0,-0.29l0.138,0l0.538,0.024l2.006,0l-0,0.3c-0.756,0.004 -0.994,0.308 -1.005,1.222Z" style="fill:#c01;fill-rule:nonzero;stroke:#c01;stroke-width:0.15px;"/><path d="M36.704,58.353l-0.086,-0c-0.739,0.034 -0.953,0.286 -0.953,1.125l0.001,7.079l-0.301,-0l-6.502,-7.127l-0,5.222c-0,1.09 0.21,1.353 1.115,1.38l-0,0.314l-2.644,0l-0,-0.3c0.853,-0.062 1.035,-0.324 1.035,-1.381l0,-5.435c0,-0.615 -0.262,-0.867 -0.928,-0.891l-0.086,0l-0,-0.314l2.205,0l5.553,6.154l0,-4.663c0,-0.915 -0.162,-1.101 -1.035,-1.163l-0,-0.345l0.2,-0c0.345,0.024 0.891,0.034 1.177,0.034l1.253,0l-0.004,0.311Z" style="fill:#c01;fill-rule:nonzero;stroke:#c01;stroke-width:0.15px;"/><path d="M40.862,58.312c-0.763,0.024 -0.939,0.238 -0.939,1.128l0,5.523c0,0.89 0.176,1.104 0.939,1.114l0,0.29l-3.282,0l-0,-0.29c0.752,0 0.942,-0.224 0.942,-1.114l0,-5.523c0,-0.89 -0.19,-1.114 -0.942,-1.128l-0,-0.287l3.282,0l0,0.287Z" style="fill:#c01;fill-rule:nonzero;stroke:#c01;stroke-width:0.15px;"/><path d="M51.049,58.278c-0.749,0.048 -1.139,0.314 -1.402,0.953l-0.176,0.448l-2.782,6.83l-0.262,0l-3.206,-6.868c-0.49,-1.063 -0.69,-1.239 -1.405,-1.353l0,-0.286l3.797,-0l-0,0.29c-0.663,-0 -1.036,0.224 -1.036,0.625c0.009,0.187 0.056,0.37 0.138,0.538l2.344,5.212l1.881,-5.212c0.072,-0.201 0.119,-0.411 0.138,-0.625c-0,-0.345 -0.214,-0.5 -0.791,-0.528l0,-0.286l2.755,-0l0.007,0.262Z" style="fill:#c01;fill-rule:nonzero;stroke:#c01;stroke-width:0.15px;"/><path d="M57.464,58.116l0.049,0.576c0.027,0.311 0.062,0.625 0.128,1.077l0.024,0.2l-0.401,0.038c-0.039,-0.373 -0.188,-0.726 -0.428,-1.015c-0.386,-0.438 -0.69,-0.528 -1.891,-0.528l-0.877,0l0,3.383l0.853,-0c1.115,-0 1.339,-0.149 1.38,-1.001l0,-0.162l0.415,-0l-0,0.124l-0.025,0.552l0,1.291l0.025,0.614l-0,0.211l-0.415,-0c0,-0.949 -0.238,-1.139 -1.453,-1.139l-0.814,-0l-0,2.533c-0,0.853 0.203,1.035 1.166,1.035c1.726,0.001 2.268,-0.376 2.554,-1.753l0.404,0.076c-0.062,0.501 -0.128,1.177 -0.165,1.878l-0,0.252l-5.409,-0l-0.863,0.024l0,-0.287c0.749,0 0.939,-0.227 0.939,-1.114l0,-5.55c0,-0.904 -0.19,-1.115 -0.939,-1.129l0,-0.3l5.737,-0l0.006,0.114Z" style="fill:#c01;fill-rule:nonzero;stroke:#c01;stroke-width:0.15px;"/><path d="M59.539,58l1.077,0c0.514,0 1.035,0 1.618,-0.038c0.401,0 0.725,-0.027 0.977,-0.027c1.515,-0 2.506,0.866 2.506,2.157c0.004,0.376 -0.093,0.746 -0.281,1.072c-0.187,0.326 -0.459,0.596 -0.786,0.781c-0.207,0.108 -0.426,0.192 -0.652,0.249c0.187,0.163 0.338,0.364 0.442,0.59l0.69,1.277c0.739,1.38 0.863,1.553 1.187,1.791c0.127,0.095 0.273,0.16 0.428,0.19c0.127,0.028 0.257,0.04 0.387,0.038l-0,0.286c-0.265,0.043 -0.533,0.064 -0.801,0.062c-0.345,0.016 -0.689,-0.039 -1.012,-0.161c-0.323,-0.122 -0.617,-0.309 -0.865,-0.55c-0.377,-0.39 -0.729,-0.99 -1.405,-2.395c-0.345,-0.69 -0.601,-0.887 -1.253,-0.887l-0.076,0l0,2.254c0,1.101 0.138,1.263 1.091,1.315l-0,0.345l-3.434,-0l-0,-0.29c0.766,0 0.942,-0.224 0.942,-1.115l-0,-5.529c-0,-0.901 -0.176,-1.115 -0.942,-1.128l-0,-0.301l0.162,0.014Zm2.167,4.035l0.363,-0c0.434,0.022 0.868,-0.037 1.28,-0.173c0.267,-0.129 0.488,-0.336 0.633,-0.594c0.146,-0.258 0.209,-0.554 0.182,-0.848c0.009,-0.336 -0.059,-0.669 -0.201,-0.973c-0.141,-0.304 -0.351,-0.572 -0.614,-0.781c-0.377,-0.259 -0.835,-0.374 -1.291,-0.324l-0.345,-0l-0.007,3.693Z" style="fill:#c01;fill-rule:nonzero;stroke:#c01;stroke-width:0.15px;"/><path d="M73.324,60.182l-0.401,-0c-0.045,-0.367 -0.168,-0.72 -0.362,-1.036c-0.194,-0.283 -0.454,-0.514 -0.758,-0.674c-0.303,-0.159 -0.642,-0.242 -0.985,-0.24c-0.363,-0.024 -0.722,0.097 -0.996,0.336c-0.275,0.239 -0.444,0.578 -0.471,0.941c0,0.452 0.252,0.801 0.839,1.166l1.242,0.715c1.153,0.638 1.616,1.015 1.906,1.553c0.166,0.329 0.248,0.694 0.238,1.063c-0,1.505 -1.119,2.506 -2.761,2.506c-0.864,-0.012 -1.724,-0.108 -2.568,-0.287l-0.1,-2.105l0.414,-0.038l0.024,0.086c0.048,0.297 0.158,0.582 0.322,0.834c0.164,0.253 0.379,0.468 0.631,0.633c0.4,0.295 0.883,0.457 1.38,0.463c0.194,0.008 0.388,-0.023 0.569,-0.09c0.182,-0.068 0.349,-0.171 0.49,-0.304c0.142,-0.132 0.255,-0.292 0.334,-0.469c0.079,-0.178 0.122,-0.369 0.126,-0.563c0,-0.228 -0.066,-0.451 -0.19,-0.642c-0.262,-0.386 -0.525,-0.549 -2.043,-1.325c-1.381,-0.69 -2.03,-1.467 -2.03,-2.416c0.018,-0.48 0.17,-0.946 0.441,-1.342c0.271,-0.397 0.648,-0.71 1.088,-0.901c0.443,-0.159 0.911,-0.235 1.381,-0.225c0.667,0.016 1.333,0.078 1.991,0.187l0.152,0.024l0.097,2.15Z" style="fill:#c01;fill-rule:nonzero;stroke:#c01;stroke-width:0.15px;"/><path d="M77.895,58.312c-0.766,0.024 -0.939,0.238 -0.939,1.128l0,5.523c0,0.89 0.173,1.104 0.939,1.114l0,0.29l-3.282,0l-0,-0.29c0.752,0 0.938,-0.224 0.938,-1.114l0,-5.523c0,-0.89 -0.186,-1.114 -0.938,-1.128l-0,-0.287l3.282,0l0,0.287Z" style="fill:#c01;fill-rule:nonzero;stroke:#c01;stroke-width:0.15px;"/><path d="M86.528,60.292l-0.415,-0c-0.062,-0.753 -0.251,-1.163 -0.614,-1.401c-0.286,-0.201 -0.452,-0.239 -1.101,-0.239l-0.99,0l-0.001,6.299c0.001,0.915 0.177,1.129 0.939,1.142l-0,0.277l-3.289,-0l-0,-0.277c0.766,0 0.942,-0.238 0.942,-1.128l0,-6.309l-1.287,-0c-0.939,-0 -1.288,0.4 -1.439,1.653l-0.425,0l0.111,-2.316l7.506,0l0.063,2.299Z" style="fill:#c01;fill-rule:nonzero;stroke:#c01;stroke-width:0.15px;"/><path d="M95.646,58.312c-0.59,0.062 -0.825,0.262 -1.239,1.035l-2.119,4.045l0,1.518c0,0.939 0.162,1.115 1.104,1.164l0,0.29l-3.658,-0l-0,-0.29c0.977,-0 1.153,-0.187 1.153,-1.177l-0.001,-1.505l-1.725,-3.531c-0.649,-1.353 -0.811,-1.505 -1.602,-1.581l0.001,-0.272l3.792,-0l0,0.304c-0.742,0.062 -0.928,0.176 -0.928,0.562c0.004,0.2 0.051,0.397 0.138,0.576l1.553,3.283l1.553,-3.231c0.101,-0.184 0.156,-0.39 0.163,-0.6c0,-0.366 -0.225,-0.539 -0.749,-0.577l-0,-0.29l2.553,0l0.011,0.277Z" style="fill:#c01;fill-rule:nonzero;stroke:#c01;stroke-width:0.15px;"/><path d="M102.935,66.532c-2.778,-0 -4.87,-1.881 -4.87,-4.387c0,-2.506 1.94,-4.307 4.546,-4.307c2.692,-0 4.621,1.829 4.621,4.383c0,2.554 -1.763,4.311 -4.297,4.311Zm-0.511,-8.283c-1.642,-0 -2.643,1.353 -2.643,3.558c-0,2.492 1.315,4.307 3.106,4.307c1.602,0 2.63,-1.38 2.63,-3.555l-0,-0.151c-0.063,-2.492 -1.336,-4.17 -3.093,-4.17l0.001,0.011Z" style="fill:#c01;fill-rule:nonzero;stroke:#c01;stroke-width:0.15px;"/><path d="M113.749,58.253c-0,0.1 -0,0.211 0.025,0.345c-0.001,0.276 -0.001,0.463 0.023,0.577l0.049,0.517l0.023,0.287l-0.369,0.058c-0.027,-0.367 -0.166,-0.716 -0.4,-1c-0.401,-0.466 -0.862,-0.605 -2.116,-0.605l-0.935,0l0,3.421l0.928,-0c1.254,-0 1.492,-0.176 1.53,-1.153l0.373,0c-0.025,0.566 -0.035,1.035 -0.035,1.581l-0,1.163l-0.377,-0c-0.062,-0.901 -0.345,-1.115 -1.577,-1.115l-0.842,0l-0,2.63c-0,0.915 0.19,1.129 0.991,1.129l0.114,-0l-0,0.29l-3.469,-0l-0,-0.29c0.752,-0 0.939,-0.225 0.939,-1.115l-0,-5.557c-0,-0.901 -0.176,-1.128 -0.939,-1.139l-0,-0.29l1.225,0l0.966,0.024l3.852,0l0.021,0.242Z" style="fill:#c01;fill-rule:nonzero;stroke:#c01;stroke-width:0.15px;"/><path d="M26.694,78.693c-1.477,1.035 -2.761,1.46 -4.338,1.46c-3.154,-0 -5.294,-1.981 -5.294,-4.932c-0,-3.034 2.271,-5.105 5.598,-5.105c1.303,0.023 2.591,0.289 3.796,0.784l0,2.398l-0.321,0c-0.231,-1.605 -1.618,-2.719 -3.396,-2.719c-1.591,-0 -2.692,0.711 -3.299,2.143c-0.264,0.659 -0.401,1.361 -0.404,2.071c-0,2.761 1.636,4.859 3.758,4.859c1.036,0 1.895,-0.42 2.824,-1.359c0.362,-0.352 0.673,-0.751 0.925,-1.188l0.1,0l0.051,1.588Z" style="fill:#c01;fill-rule:nonzero;stroke:#c01;stroke-width:0.15px;"/><path d="M35.498,77.925c0.58,1.329 0.87,1.619 1.795,1.726l-0,0.318l-4.093,-0l-0,-0.346l0.117,0c0.535,0 0.794,-0.172 0.794,-0.562c-0.01,-0.165 -0.049,-0.328 -0.114,-0.48l-0.797,-1.977l-3.079,-0l-0.666,1.836c-0.082,0.194 -0.135,0.398 -0.159,0.607c0,0.377 0.259,0.535 0.866,0.549l0.173,0l-0,0.345l-3.282,0l-0,-0.345c0.797,0 1.318,-0.463 1.75,-1.505l3.299,-8.045l3.396,7.879Zm-5.246,-1.75l2.689,0l-1.433,-3.485l-1.256,3.485Z" style="fill:#c01;fill-rule:nonzero;stroke:#c01;stroke-width:0.15px;"/><path d="M48.369,70.708l-0.1,0c-0.853,0.045 -1.098,0.346 -1.098,1.302l0,8.172l-0.345,0.001l-7.507,-8.229l-0.024,6.029c0,1.257 0.245,1.561 1.287,1.605l0,0.363l-3.05,-0l-0.001,-0.345c0.984,-0.072 1.202,-0.376 1.202,-1.591l-0,-6.295c-0,-0.708 -0.304,-0.998 -1.07,-1.036l-0.094,0l0,-0.362l2.558,-0l6.416,7.127l-0,-5.395c-0,-1.056 -0.186,-1.273 -1.201,-1.346l-0,-0.39l0.231,0c0.407,0.028 1.036,0.045 1.36,0.045l0.594,-0.017l0.852,-0l-0.01,0.362Z" style="fill:#c01;fill-rule:nonzero;stroke:#c01;stroke-width:0.15px;"/><path d="M58.042,72.952l-0.477,0c-0.072,-0.87 -0.29,-1.346 -0.707,-1.622c-0.345,-0.231 -0.521,-0.273 -1.274,-0.273l-1.142,0l-0,7.272c-0,1.056 0.203,1.302 1.084,1.319l-0,0.317l-3.804,0l0,-0.317c0.884,-0.017 1.087,-0.276 1.087,-1.305l0,-7.261l-1.477,-0c-1.084,-0 -1.487,0.462 -1.663,1.908l-0.491,0l0.132,-2.675l8.659,0l0.073,2.637Z" style="fill:#c01;fill-rule:nonzero;stroke:#c01;stroke-width:0.15px;"/><path d="M65.504,70.435l0.059,0.663c0.031,0.362 0.072,0.724 0.144,1.245l0.032,0.232l-0.466,0.041c-0.045,-0.43 -0.216,-0.837 -0.49,-1.17c-0.449,-0.507 -0.812,-0.607 -2.185,-0.607l-1.011,-0l-0,3.903l0.983,0c1.288,0 1.546,-0.172 1.605,-1.156l0,-0.19l0.476,0l0,0.145l-0.027,0.639l-0,1.47l0.027,0.708l0,0.245l-0.476,-0c0,-1.101 -0.273,-1.319 -1.677,-1.319l-0.939,0l0,2.951c0,0.984 0.231,1.187 1.343,1.187c1.981,0 2.619,-0.435 2.95,-2.026l0.463,0.087c-0.073,0.579 -0.145,1.359 -0.186,2.171l-0,0.289c-0.625,-0.017 -1.491,-0.017 -2.575,-0.017c-0.463,0 -0.739,0 -2.475,0.017l-1.215,0c-0.548,0 -0.635,0 -0.997,0.028l-0,-0.345c0.87,-0.017 1.087,-0.263 1.087,-1.288l0,-6.385c0,-1.035 -0.217,-1.287 -1.087,-1.304l-0,-0.345l6.623,-0l0.014,0.131Z" style="fill:#c01;fill-rule:nonzero;stroke:#c01;stroke-width:0.15px;"/><path d="M67.906,70.306l1.242,-0c0.594,-0 1.202,-0 1.868,-0.042c0.462,-0.017 0.838,-0.031 1.128,-0.031c1.75,0 2.893,0.998 2.893,2.489c0.007,0.437 -0.103,0.867 -0.319,1.247c-0.216,0.379 -0.531,0.694 -0.91,0.91c-0.24,0.123 -0.492,0.221 -0.753,0.29c0.215,0.192 0.387,0.427 0.504,0.69l0.78,1.474c0.856,1.591 1.001,1.794 1.381,2.07c0.145,0.11 0.312,0.184 0.49,0.218c0.147,0.033 0.297,0.048 0.448,0.045l0,0.345c-0.305,0.049 -0.615,0.074 -0.925,0.073c-0.399,0.018 -0.797,-0.046 -1.17,-0.188c-0.373,-0.142 -0.714,-0.359 -1,-0.637c-0.432,-0.449 -0.839,-1.143 -1.619,-2.761c-0.39,-0.812 -0.69,-1.036 -1.446,-1.036l-0.086,0l-0,2.606c-0,1.27 0.158,1.46 1.256,1.515l-0,0.408l-3.962,-0l-0,-0.345c0.883,-0 1.087,-0.26 1.087,-1.288l0,-6.42c0,-1.035 -0.204,-1.287 -1.087,-1.301l-0,-0.345l0.2,0.014Zm2.502,4.656l0.418,-0c0.5,0.024 1.001,-0.044 1.477,-0.2c0.594,-0.249 0.939,-0.856 0.939,-1.664c0.011,-0.387 -0.068,-0.772 -0.231,-1.123c-0.163,-0.352 -0.405,-0.661 -0.708,-0.903c-0.421,-0.29 -0.739,-0.376 -1.491,-0.376l-0.404,-0l0,4.266Z" style="fill:#c01;fill-rule:nonzero;stroke:#c01;stroke-width:0.15px;"/><path d="M77.149,70.291l3.741,0c0.537,-0.033 1.075,0.035 1.587,0.2c0.467,0.14 0.876,0.424 1.171,0.811c0.294,0.388 0.457,0.86 0.465,1.346c0,1.198 -0.97,2.071 -2.443,2.24c0.45,0.028 0.894,0.125 1.314,0.29c0.462,0.168 0.859,0.475 1.137,0.88c0.277,0.405 0.42,0.887 0.41,1.377c0,1.633 -1.229,2.517 -3.452,2.517l-4.189,-0l-0,-0.346c0.883,0.001 1.097,-0.258 1.097,-1.287l0,-6.395c0,-1.036 -0.214,-1.288 -1.097,-1.302l-0,-0.345c0.085,0.01 0.172,0.015 0.259,0.014Zm2.46,4.487c0.211,0.024 0.423,0.033 0.635,0.028c1.036,-0 1.432,-0.145 1.822,-0.667c0.196,-0.291 0.319,-0.624 0.361,-0.972c0.041,-0.348 0,-0.7 -0.121,-1.029c-0.122,-0.329 -0.319,-0.624 -0.576,-0.862c-0.258,-0.237 -0.569,-0.411 -0.906,-0.505c-0.248,-0.044 -0.5,-0.064 -0.753,-0.059l-0.462,0l0,4.066Zm0,3.496c0,1.035 0.201,1.274 1.07,1.274c1.342,0 2.023,-0.608 2.023,-1.837c-0,-1.228 -0.767,-2.239 -1.791,-2.415c-0.278,-0.048 -0.558,-0.072 -0.84,-0.073c-0.154,0.002 -0.309,0.013 -0.462,0.031l0,3.02Z" style="fill:#c01;fill-rule:nonzero;stroke:#c01;stroke-width:0.15px;"/><path d="M94.603,72.07l-0.032,3.4c0,1.591 -0.1,2.095 -0.49,2.802c-0.666,1.232 -1.922,1.881 -3.603,1.881c-2.05,0 -3.641,-1.07 -4.062,-2.761c-0.134,-0.565 -0.192,-1.146 -0.173,-1.725l0,-3.549c0,-1.128 -0.117,-1.301 -1.015,-1.477c-0.053,-0.004 -0.106,-0.013 -0.158,-0.027l0,-0.345l0.276,-0c0.549,0.041 0.739,0.041 1.229,0.041l1.332,-0l0.807,-0.028l0.345,0l0,0.345c-0.927,0.101 -1.114,0.346 -1.114,1.416l0,3.948c0,1.201 0.1,1.708 0.421,2.271c0.264,0.45 0.646,0.819 1.105,1.069c0.458,0.25 0.976,0.371 1.497,0.349c0.722,0.027 1.427,-0.214 1.982,-0.676c0.555,-0.462 0.919,-1.112 1.024,-1.826c0.046,-0.311 0.065,-0.625 0.059,-0.939l0,-0.362l-0.086,-3.703c-0.028,-1.229 -0.159,-1.415 -1.101,-1.519l-0.173,0l-0,-0.345l0.159,-0l0.622,0.028l2.315,-0l-0,0.345c-0.88,-0 -1.153,0.331 -1.166,1.387Z" style="fill:#c01;fill-rule:nonzero;stroke:#c01;stroke-width:0.15px;"/><path d="M96.45,70.306l1.243,-0c0.593,-0 1.201,-0 1.867,-0.042c0.462,-0.017 0.838,-0.031 1.128,-0.031c1.75,0 2.892,0.998 2.892,2.489c0.006,0.434 -0.105,0.862 -0.322,1.239c-0.216,0.377 -0.531,0.688 -0.91,0.901c-0.238,0.124 -0.489,0.221 -0.748,0.29c0.214,0.192 0.386,0.427 0.504,0.689l0.779,1.474c0.856,1.592 1.001,1.795 1.38,2.071c0.145,0.109 0.313,0.184 0.491,0.217c0.147,0.033 0.298,0.048 0.449,0.045l-0,0.345c-0.306,0.05 -0.615,0.075 -0.925,0.073c-0.401,0.016 -0.8,-0.05 -1.172,-0.194c-0.374,-0.144 -0.714,-0.364 -0.999,-0.644c-0.432,-0.449 -0.839,-1.142 -1.619,-2.762c-0.39,-0.811 -0.69,-1.035 -1.446,-1.035l-0.086,0l-0,2.606c-0,1.27 0.158,1.46 1.256,1.515l0,0.407l-3.962,0l-0,-0.345c0.883,0 1.087,-0.259 1.087,-1.287l0,-6.389c0,-1.035 -0.204,-1.287 -1.087,-1.301l-0,-0.345l0.2,0.014Zm2.502,4.656l0.418,-0c0.5,0.024 1.001,-0.044 1.477,-0.2c0.59,-0.249 0.938,-0.856 0.938,-1.664c0.012,-0.387 -0.067,-0.772 -0.231,-1.123c-0.162,-0.352 -0.404,-0.661 -0.707,-0.903c-0.421,-0.29 -0.739,-0.376 -1.491,-0.376l-0.404,-0l-0,4.266Z" style="fill:#c01;fill-rule:nonzero;stroke:#c01;stroke-width:0.15px;"/><path d="M113.843,70.649c-0.691,0.073 -0.952,0.304 -1.428,1.215l-2.444,4.673l-0,1.75c-0,1.084 0.186,1.287 1.27,1.343l-0,0.345l-4.235,-0l0,-0.345c1.128,-0 1.328,-0.215 1.328,-1.36l0,-1.726l-1.963,-4.083c-0.752,-1.56 -0.939,-1.726 -1.85,-1.822l-0,-0.318l4.38,0l-0,0.345c-0.853,0.073 -1.071,0.204 -1.071,0.653c0.006,0.231 0.06,0.458 0.159,0.666l1.795,3.796l1.795,-3.731c0.114,-0.212 0.178,-0.449 0.186,-0.69c-0,-0.418 -0.259,-0.621 -0.866,-0.663l-0,-0.345l2.944,0l0,0.297Z" style="fill:#c01;fill-rule:nonzero;stroke:#c01;stroke-width:0.15px;"/></g></svg>